<svg width="35" height="40" viewBox="0 0 35 40" fill="none" xmlns="http://www.w3.org/2000/svg">
<g filter="url(#filter0_d_70_7896)">
<path d="M15.5 37C15.2742 37 15.0484 36.9679 14.8226 36.9036C14.5968 36.8394 14.3871 36.727 14.1935 36.5664C9.6129 32.4232 6.18581 28.5851 3.91226 25.0521C1.63742 21.5191 0.5 18.2752 0.5 15.3203C0.5 10.6632 2.00839 6.94521 5.02516 4.16635C8.04064 1.38879 11.5323 0 15.5 0C19.4677 0 22.96 1.38879 25.9768 4.16635C28.9923 6.94521 30.5 10.6632 30.5 15.3203C30.5 18.2752 29.3632 21.5191 27.0897 25.0521C24.8148 28.5851 21.3871 32.4232 16.8065 36.5664C16.6129 36.727 16.4032 36.8394 16.1774 36.9036C15.9516 36.9679 15.7258 37 15.5 37Z" fill="#EFF1FF"/>
<mask id="mask0_70_7896" style="mask-type:alpha" maskUnits="userSpaceOnUse" x="5" y="5" width="21" height="20">
<rect x="5.5" y="5" width="20" height="20" fill="#D9D9D9"/>
</mask>
<g mask="url(#mask0_70_7896)">
<path d="M15.0833 21.3542C14.6667 21.3542 14.2814 21.25 13.9275 21.0417C13.5731 20.8333 13.2917 20.5556 13.0833 20.2083C12.9722 19.9861 12.9653 19.7744 13.0625 19.5733C13.1597 19.3717 13.3403 19.2708 13.6042 19.2708C13.7153 19.2708 13.8231 19.3022 13.9275 19.365C14.0314 19.4272 14.1319 19.5278 14.2292 19.6667C14.3264 19.8056 14.4514 19.9133 14.6042 19.99C14.7569 20.0661 14.9167 20.1042 15.0833 20.1042C15.375 20.1042 15.6214 20.0033 15.8225 19.8017C16.0242 19.6006 16.125 19.3542 16.125 19.0625C16.125 18.7847 16.0242 18.5417 15.8225 18.3333C15.6214 18.125 15.375 18.0208 15.0833 18.0208H8C7.81944 18.0208 7.67028 17.9617 7.5525 17.8433C7.43417 17.7256 7.375 17.5764 7.375 17.3958C7.375 17.2292 7.43417 17.0833 7.5525 16.9583C7.67028 16.8333 7.81944 16.7708 8 16.7708H15.0833C15.7222 16.7708 16.2639 16.9967 16.7083 17.4483C17.1528 17.8994 17.375 18.4375 17.375 19.0625C17.375 19.7014 17.1528 20.2431 16.7083 20.6875C16.2639 21.1319 15.7222 21.3542 15.0833 21.3542ZM8 13.2292C7.81944 13.2292 7.67028 13.1667 7.5525 13.0417C7.43417 12.9167 7.375 12.7708 7.375 12.6042C7.375 12.4236 7.43417 12.2742 7.5525 12.1558C7.67028 12.0381 7.81944 11.9792 8 11.9792H18.4167C18.8333 11.9792 19.1806 11.8367 19.4583 11.5517C19.7361 11.2672 19.875 10.9236 19.875 10.5208C19.875 10.1042 19.7361 9.75694 19.4583 9.47917C19.1806 9.20139 18.8333 9.0625 18.4167 9.0625C18.125 9.0625 17.8644 9.13194 17.635 9.27083C17.4061 9.40972 17.2361 9.59722 17.125 9.83333C17.0417 9.98611 16.9444 10.1042 16.8333 10.1875C16.7222 10.2708 16.6111 10.3125 16.5 10.3125C16.2778 10.3125 16.1006 10.2328 15.9683 10.0733C15.8367 9.91333 15.8056 9.73611 15.875 9.54167C16.0694 9.01389 16.3958 8.59389 16.8542 8.28167C17.3125 7.96889 17.8333 7.8125 18.4167 7.8125C19.1806 7.8125 19.8228 8.07278 20.3433 8.59333C20.8644 9.11444 21.125 9.75694 21.125 10.5208C21.125 11.2708 20.8644 11.9097 20.3433 12.4375C19.8228 12.9653 19.1806 13.2292 18.4167 13.2292H8ZM22.0208 19.5833C21.7986 19.6667 21.5936 19.6528 21.4058 19.5417C21.2186 19.4306 21.125 19.25 21.125 19C21.125 18.875 21.1633 18.7603 21.24 18.6558C21.3161 18.5519 21.4306 18.4583 21.5833 18.375C21.8333 18.2639 22.0278 18.0939 22.1667 17.865C22.3056 17.6356 22.375 17.375 22.375 17.0833C22.375 16.6667 22.2361 16.3194 21.9583 16.0417C21.6806 15.7639 21.3333 15.625 20.9167 15.625H8C7.81944 15.625 7.67028 15.5658 7.5525 15.4475C7.43417 15.3297 7.375 15.1806 7.375 15C7.375 14.8194 7.43417 14.67 7.5525 14.5517C7.67028 14.4339 7.81944 14.375 8 14.375H20.9167C21.6806 14.375 22.3228 14.6356 22.8433 15.1567C23.3644 15.6772 23.625 16.3194 23.625 17.0833C23.625 17.6389 23.4792 18.1389 23.1875 18.5833C22.8958 19.0278 22.5069 19.3611 22.0208 19.5833Z" fill="#4E62EE"/>
</g>
</g>
<defs>
<filter id="filter0_d_70_7896" x="0.5" y="0" width="34" height="40" filterUnits="userSpaceOnUse" color-interpolation-filters="sRGB">
<feFlood flood-opacity="0" result="BackgroundImageFix"/>
<feColorMatrix in="SourceAlpha" type="matrix" values="0 0 0 0 0 0 0 0 0 0 0 0 0 0 0 0 0 0 127 0" result="hardAlpha"/>
<feOffset dx="4" dy="3"/>
<feColorMatrix type="matrix" values="0 0 0 0 0 0 0 0 0 0.0672916 0 0 0 0 0.554167 0 0 0 0.15 0"/>
<feBlend mode="normal" in2="BackgroundImageFix" result="effect1_dropShadow_70_7896"/>
<feBlend mode="normal" in="SourceGraphic" in2="effect1_dropShadow_70_7896" result="shape"/>
</filter>
</defs>
</svg>
