<svg width="35" height="40" viewBox="0 0 35 40" fill="none" xmlns="http://www.w3.org/2000/svg">
<g filter="url(#filter0_d_70_7905)">
<path d="M15.5 37C15.2742 37 15.0484 36.9679 14.8226 36.9036C14.5968 36.8394 14.3871 36.727 14.1935 36.5664C9.6129 32.4232 6.18581 28.5851 3.91226 25.0521C1.63742 21.5191 0.5 18.2752 0.5 15.3203C0.5 10.6632 2.00839 6.94521 5.02516 4.16635C8.04064 1.38879 11.5323 0 15.5 0C19.4677 0 22.96 1.38879 25.9768 4.16635C28.9923 6.94521 30.5 10.6632 30.5 15.3203C30.5 18.2752 29.3632 21.5191 27.0897 25.0521C24.8148 28.5851 21.3871 32.4232 16.8065 36.5664C16.6129 36.727 16.4032 36.8394 16.1774 36.9036C15.9516 36.9679 15.7258 37 15.5 37Z" fill="#3D50D9"/>
<mask id="mask0_70_7905" style="mask-type:alpha" maskUnits="userSpaceOnUse" x="5" y="5" width="21" height="20">
<rect x="5.5" y="5" width="20" height="20" fill="#D9D9D9"/>
</mask>
<g mask="url(#mask0_70_7905)">
<path d="M15.5 22.4998C13.7639 22.4998 12.2883 21.899 11.0733 20.6973C9.85778 19.4962 9.25 18.0415 9.25 16.3332C9.25 15.4721 9.41333 14.6768 9.74 13.9473C10.0661 13.2184 10.5139 12.5693 11.0833 11.9998L15.5 7.6665L19.9167 11.9998C20.4861 12.5693 20.9342 13.2221 21.2608 13.9582C21.5869 14.6943 21.75 15.4859 21.75 16.3332C21.75 18.0415 21.1422 19.4962 19.9267 20.6973C18.7117 21.899 17.2361 22.4998 15.5 22.4998ZM15.5 21.2498C16.8889 21.2498 18.0694 20.7671 19.0417 19.8015C20.0139 18.8365 20.5 17.6804 20.5 16.3332C20.5 15.6665 20.3783 15.0448 20.135 14.4682C19.8922 13.8921 19.5278 13.3748 19.0417 12.9165L15.5 9.4165L11.9583 12.9165C11.4722 13.3748 11.1078 13.8921 10.865 14.4682C10.6217 15.0448 10.5 15.6665 10.5 16.3332C10.5 17.6804 10.9861 18.8365 11.9583 19.8015C12.9306 20.7671 14.1111 21.2498 15.5 21.2498Z" fill="white"/>
</g>
</g>
<defs>
<filter id="filter0_d_70_7905" x="0.5" y="0" width="34" height="40" filterUnits="userSpaceOnUse" color-interpolation-filters="sRGB">
<feFlood flood-opacity="0" result="BackgroundImageFix"/>
<feColorMatrix in="SourceAlpha" type="matrix" values="0 0 0 0 0 0 0 0 0 0 0 0 0 0 0 0 0 0 127 0" result="hardAlpha"/>
<feOffset dx="4" dy="3"/>
<feColorMatrix type="matrix" values="0 0 0 0 0 0 0 0 0 0.0672916 0 0 0 0 0.554167 0 0 0 0.15 0"/>
<feBlend mode="normal" in2="BackgroundImageFix" result="effect1_dropShadow_70_7905"/>
<feBlend mode="normal" in="SourceGraphic" in2="effect1_dropShadow_70_7905" result="shape"/>
</filter>
</defs>
</svg>
