<svg width="46" height="40" viewBox="0 0 46 40" fill="none" xmlns="http://www.w3.org/2000/svg">
<g filter="url(#filter0_d_70_7886)">
<path d="M15.5 37C15.2742 37 15.0484 36.9679 14.8226 36.9036C14.5968 36.8394 14.3871 36.727 14.1935 36.5664C9.6129 32.4232 6.18581 28.5851 3.91226 25.0521C1.63742 21.5191 0.5 18.2752 0.5 15.3203C0.5 10.6632 2.00839 6.94521 5.02516 4.16635C8.04064 1.38879 11.5323 0 15.5 0C19.4677 0 22.96 1.38879 25.9768 4.16635C28.9923 6.94521 30.5 10.6632 30.5 15.3203C30.5 18.2752 29.3632 21.5191 27.0897 25.0521C24.8148 28.5851 21.3871 32.4232 16.8065 36.5664C16.6129 36.727 16.4032 36.8394 16.1774 36.9036C15.9516 36.9679 15.7258 37 15.5 37Z" fill="#FFCE1A"/>
<rect x="25.5" width="16" height="16" rx="8" fill="#EFF1FF"/>
<mask id="mask0_70_7886" style="mask-type:alpha" maskUnits="userSpaceOnUse" x="25" y="0" width="17" height="16">
<rect x="25.5" width="16" height="16" fill="#D9D9D9"/>
</mask>
<g mask="url(#mask0_70_7886)">
<path d="M28.5 9.33319C28.5 8.21096 28.8251 7.11652 29.4753 6.04985C30.1251 4.98319 31.0167 4.0443 32.15 3.23319C32.3611 3.07763 32.5862 3.06363 32.8253 3.19119C33.064 3.31919 33.1833 3.51652 33.1833 3.78319V4.33319C33.1833 4.7443 33.3471 5.10274 33.6747 5.40852C34.0027 5.71385 34.3944 5.86652 34.85 5.86652C35.05 5.86652 35.2418 5.82763 35.4253 5.74985C35.6084 5.67207 35.7778 5.56096 35.9333 5.41652C36.0222 5.32763 36.1278 5.27763 36.25 5.26652C36.3722 5.25541 36.4833 5.28874 36.5833 5.36652C37.1833 5.83319 37.6529 6.41652 37.992 7.11652C38.3307 7.81652 38.5 8.55541 38.5 9.33319C38.5 10.3332 38.236 11.2305 37.708 12.0252C37.1804 12.8194 36.4944 13.411 35.65 13.7999C35.8611 13.5665 36.0278 13.2999 36.15 12.9999C36.2722 12.6999 36.3333 12.3776 36.3333 12.0332C36.3333 11.6665 36.264 11.3136 36.1253 10.9745C35.9862 10.6359 35.7833 10.3332 35.5167 10.0665L33.5 8.09985L31.5 10.0665C31.2333 10.3443 31.0278 10.647 30.8833 10.9745C30.7389 11.3025 30.6667 11.6554 30.6667 12.0332C30.6667 12.3776 30.7278 12.6999 30.85 12.9999C30.9722 13.2999 31.1389 13.5665 31.35 13.7999C30.5056 13.411 29.8196 12.8194 29.292 12.0252C28.764 11.2305 28.5 10.3332 28.5 9.33319ZM33.5 9.49985L34.8 10.7665C34.9778 10.9443 35.1111 11.1387 35.2 11.3499C35.2889 11.561 35.3333 11.7887 35.3333 12.0332C35.3333 12.5332 35.1556 12.9581 34.8 13.3079C34.4444 13.6581 34.0111 13.8332 33.5 13.8332C32.9889 13.8332 32.5556 13.6581 32.2 13.3079C31.8444 12.9581 31.6667 12.5332 31.6667 12.0332C31.6667 11.7999 31.7111 11.575 31.8 11.3585C31.8889 11.1416 32.0222 10.9443 32.2 10.7665L33.5 9.49985Z" fill="#F9705A"/>
</g>
<mask id="mask1_70_7886" style="mask-type:alpha" maskUnits="userSpaceOnUse" x="5" y="5" width="21" height="20">
<rect x="5.5" y="5" width="20" height="20" fill="#D9D9D9"/>
</mask>
<g mask="url(#mask1_70_7886)">
<path d="M15.5002 9.3335C15.3196 9.3335 15.1704 9.27433 15.0527 9.156C14.9343 9.03822 14.8752 8.88905 14.8752 8.7085V6.896C14.8752 6.71544 14.9343 6.566 15.0527 6.44766C15.1704 6.32988 15.3196 6.271 15.5002 6.271C15.6807 6.271 15.8302 6.32988 15.9485 6.44766C16.0663 6.566 16.1252 6.71544 16.1252 6.896V8.7085C16.1252 8.88905 16.0663 9.03822 15.9485 9.156C15.8302 9.27433 15.6807 9.3335 15.5002 9.3335ZM19.5002 11.0002C19.3891 10.8891 19.3335 10.7468 19.3335 10.5735C19.3335 10.3996 19.3891 10.2502 19.5002 10.1252L20.771 8.8335C20.896 8.69461 21.0454 8.62516 21.2193 8.62516C21.3927 8.62516 21.5418 8.69461 21.6668 8.8335C21.7918 8.94461 21.8543 9.08683 21.8543 9.26016C21.8543 9.43405 21.7918 9.5835 21.6668 9.7085L20.3752 11.0002C20.2502 11.1252 20.1043 11.1877 19.9377 11.1877C19.771 11.1877 19.6252 11.1252 19.5002 11.0002ZM21.7918 15.6252C21.6113 15.6252 21.4621 15.566 21.3443 15.4477C21.226 15.3299 21.1668 15.1807 21.1668 15.0002C21.1668 14.8196 21.226 14.6702 21.3443 14.5518C21.4621 14.4341 21.6113 14.3752 21.7918 14.3752H23.6043C23.7849 14.3752 23.9343 14.4341 24.0527 14.5518C24.1704 14.6702 24.2293 14.8196 24.2293 15.0002C24.2293 15.1807 24.1704 15.3299 24.0527 15.4477C23.9343 15.566 23.7849 15.6252 23.6043 15.6252H21.7918ZM15.5002 23.7293C15.3196 23.7293 15.1704 23.6704 15.0527 23.5527C14.9343 23.4343 14.8752 23.2849 14.8752 23.1043V21.2918C14.8752 21.1113 14.9343 20.9621 15.0527 20.8443C15.1704 20.726 15.3196 20.6668 15.5002 20.6668C15.6807 20.6668 15.8302 20.726 15.9485 20.8443C16.0663 20.9621 16.1252 21.1113 16.1252 21.2918V23.1043C16.1252 23.2849 16.0663 23.4343 15.9485 23.5527C15.8302 23.6704 15.6807 23.7293 15.5002 23.7293ZM10.6252 11.0002L9.3335 9.72933C9.19461 9.60433 9.12516 9.45155 9.12516 9.271C9.12516 9.09044 9.19461 8.94461 9.3335 8.8335C9.44461 8.7085 9.59044 8.646 9.771 8.646C9.95155 8.646 10.0974 8.7085 10.2085 8.8335L11.521 10.1252C11.6321 10.2502 11.6877 10.3996 11.6877 10.5735C11.6877 10.7468 11.6321 10.8891 11.521 11.0002C11.396 11.1113 11.2502 11.1668 11.0835 11.1668C10.9168 11.1668 10.7641 11.1113 10.6252 11.0002ZM20.7918 21.1668L19.5002 19.8752C19.3891 19.7502 19.3335 19.6007 19.3335 19.4268C19.3335 19.2535 19.3891 19.1113 19.5002 19.0002C19.6113 18.8891 19.7535 18.8335 19.9268 18.8335C20.1007 18.8335 20.2502 18.8891 20.3752 19.0002L21.6668 20.2918C21.7918 20.4029 21.8543 20.5454 21.8543 20.7193C21.8543 20.8927 21.7918 21.0418 21.6668 21.1668C21.5418 21.3057 21.3927 21.3752 21.2193 21.3752C21.0454 21.3752 20.9029 21.3057 20.7918 21.1668ZM7.396 15.6252C7.21544 15.6252 7.06627 15.566 6.9485 15.4477C6.83016 15.3299 6.771 15.1807 6.771 15.0002C6.771 14.8196 6.83016 14.6702 6.9485 14.5518C7.06627 14.4341 7.21544 14.3752 7.396 14.3752H9.2085C9.38905 14.3752 9.5385 14.4341 9.65683 14.5518C9.77461 14.6702 9.8335 14.8196 9.8335 15.0002C9.8335 15.1807 9.77461 15.3299 9.65683 15.4477C9.5385 15.566 9.38905 15.6252 9.2085 15.6252H7.396ZM9.3335 21.1668C9.22238 21.0557 9.1635 20.9132 9.15683 20.7393C9.14961 20.566 9.2085 20.4168 9.3335 20.2918L10.6252 19.0002C10.7363 18.8891 10.8752 18.8335 11.0418 18.8335C11.2085 18.8335 11.3613 18.8891 11.5002 19.0002C11.6252 19.1391 11.6877 19.2918 11.6877 19.4585C11.6877 19.6252 11.6252 19.771 11.5002 19.896L10.2293 21.1668C10.0904 21.3057 9.93433 21.3752 9.761 21.3752C9.58711 21.3752 9.44461 21.3057 9.3335 21.1668ZM15.5002 19.5835C14.2224 19.5835 13.1391 19.1391 12.2502 18.2502C11.3613 17.3613 10.9168 16.2779 10.9168 15.0002C10.9168 13.7224 11.3613 12.6391 12.2502 11.7502C13.1391 10.8613 14.2224 10.4168 15.5002 10.4168C16.7779 10.4168 17.8613 10.8613 18.7502 11.7502C19.6391 12.6391 20.0835 13.7224 20.0835 15.0002C20.0835 16.2779 19.6391 17.3613 18.7502 18.2502C17.8613 19.1391 16.7779 19.5835 15.5002 19.5835ZM15.5002 18.3335C16.4168 18.3335 17.2016 18.0071 17.8543 17.3543C18.5071 16.7016 18.8335 15.9168 18.8335 15.0002C18.8335 14.0835 18.5071 13.2988 17.8543 12.646C17.2016 11.9932 16.4168 11.6668 15.5002 11.6668C14.5835 11.6668 13.7988 11.9932 13.146 12.646C12.4932 13.2988 12.1668 14.0835 12.1668 15.0002C12.1668 15.9168 12.4932 16.7016 13.146 17.3543C13.7988 18.0071 14.5835 18.3335 15.5002 18.3335Z" fill="#4E62EE"/>
</g>
</g>
<defs>
<filter id="filter0_d_70_7886" x="0.5" y="0" width="45" height="40" filterUnits="userSpaceOnUse" color-interpolation-filters="sRGB">
<feFlood flood-opacity="0" result="BackgroundImageFix"/>
<feColorMatrix in="SourceAlpha" type="matrix" values="0 0 0 0 0 0 0 0 0 0 0 0 0 0 0 0 0 0 127 0" result="hardAlpha"/>
<feOffset dx="4" dy="3"/>
<feColorMatrix type="matrix" values="0 0 0 0 0 0 0 0 0 0.0672916 0 0 0 0 0.554167 0 0 0 0.15 0"/>
<feBlend mode="normal" in2="BackgroundImageFix" result="effect1_dropShadow_70_7886"/>
<feBlend mode="normal" in="SourceGraphic" in2="effect1_dropShadow_70_7886" result="shape"/>
</filter>
</defs>
</svg>
