<svg width="343" height="213" viewBox="0 0 343 213" fill="none" xmlns="http://www.w3.org/2000/svg">
<path d="M203.752 139.242C203.752 139.242 202.57 173.126 252.252 199.742C294.252 222.242 341.752 206.242 341.752 206.242" stroke="#6B7EFD" stroke-width="2" stroke-linecap="round" stroke-dasharray="4 4"/>
<path d="M182.75 63.2419C182.75 57.2686 175.609 23.2111 145.003 12.1555C114.396 1.09999 81.75 12.1555 81.75 12.1555" stroke="#6B7EFD" stroke-width="2" stroke-linecap="round" stroke-dasharray="4 4"/>
<mask id="mask0_422_3645" style="mask-type:alpha" maskUnits="userSpaceOnUse" x="0" y="0" width="53" height="53">
<rect x="0.75" y="0.241943" width="52" height="52" fill="#D9D9D9"/>
</mask>
<g mask="url(#mask0_422_3645)">
<path d="M26.8333 11.4969C26.2194 11.4969 25.7052 11.293 25.2907 10.8851C24.8747 10.4787 24.6667 9.97452 24.6667 9.37266V5.12422C24.6667 4.52236 24.8747 4.0175 25.2907 3.60965C25.7052 3.20322 26.2194 3 26.8333 3C27.4472 3 27.9622 3.20322 28.3782 3.60965C28.7927 4.0175 29 4.52236 29 5.12422V9.37266C29 9.97452 28.7927 10.4787 28.3782 10.8851C27.9622 11.293 27.4472 11.4969 26.8333 11.4969ZM37.5583 15.8515C37.1611 15.4621 36.9625 14.9749 36.9625 14.3901C36.9625 13.8066 37.1611 13.3025 37.5583 12.8776L40.5917 9.85061C41.025 9.42577 41.5392 9.21334 42.1343 9.21334C42.7309 9.21334 43.2458 9.42577 43.6792 9.85061C44.0764 10.2401 44.275 10.7357 44.275 11.3376C44.275 11.9394 44.0764 12.4351 43.6792 12.8245L40.5917 15.8515C40.1944 16.241 39.6889 16.4357 39.075 16.4357C38.4611 16.4357 37.9556 16.241 37.5583 15.8515ZM44.1667 28.4906C43.5528 28.4906 43.0386 28.2867 42.624 27.8789C42.208 27.4724 42 26.9683 42 26.3664C42 25.7646 42.208 25.2597 42.624 24.8519C43.0386 24.4454 43.5528 24.2422 44.1667 24.2422H48.5C49.1139 24.2422 49.6281 24.4454 50.0427 24.8519C50.4587 25.2597 50.6667 25.7646 50.6667 26.3664C50.6667 26.9683 50.4587 27.4724 50.0427 27.8789C49.6281 28.2867 49.1139 28.4906 48.5 28.4906H44.1667ZM26.8333 49.7328C26.2194 49.7328 25.7052 49.5289 25.2907 49.1211C24.8747 48.7146 24.6667 48.2105 24.6667 47.6086V43.3602C24.6667 42.7583 24.8747 42.2542 25.2907 41.8477C25.7052 41.4399 26.2194 41.236 26.8333 41.236C27.4472 41.236 27.9622 41.4399 28.3782 41.8477C28.7927 42.2542 29 42.7583 29 43.3602V47.6086C29 48.2105 28.7927 48.7146 28.3782 49.1211C27.9622 49.5289 27.4472 49.7328 26.8333 49.7328ZM13.075 15.8515L9.9875 12.8776C9.55417 12.4528 9.3375 11.9394 9.3375 11.3376C9.3375 10.7357 9.55417 10.2401 9.9875 9.85061C10.3847 9.46117 10.8903 9.26645 11.5042 9.26645C12.1181 9.26645 12.6236 9.46117 13.0208 9.85061L16.1083 12.8776C16.5056 13.2671 16.7042 13.7627 16.7042 14.3646C16.7042 14.9664 16.5056 15.4621 16.1083 15.8515C15.675 16.241 15.1694 16.4357 14.5917 16.4357C14.0139 16.4357 13.5083 16.241 13.075 15.8515ZM40.5917 42.8822L37.5583 39.8552C37.1611 39.4304 36.9625 38.9262 36.9625 38.3428C36.9625 37.7579 37.1611 37.2708 37.5583 36.8813C37.9556 36.4919 38.4524 36.2971 39.049 36.2971C39.6441 36.2971 40.1583 36.4919 40.5917 36.8813L43.6792 39.8552C44.1125 40.2447 44.3198 40.7403 44.301 41.3422C44.2837 41.944 44.0764 42.4574 43.6792 42.8822C43.2458 43.3071 42.7222 43.5195 42.1083 43.5195C41.4944 43.5195 40.9889 43.3071 40.5917 42.8822ZM5.16667 28.4906C4.55278 28.4906 4.03856 28.2867 3.624 27.8789C3.208 27.4724 3 26.9683 3 26.3664C3 25.7646 3.208 25.2597 3.624 24.8519C4.03856 24.4454 4.55278 24.2422 5.16667 24.2422H9.5C10.1139 24.2422 10.6288 24.4454 11.0448 24.8519C11.4594 25.2597 11.6667 25.7646 11.6667 26.3664C11.6667 26.9683 11.4594 27.4724 11.0448 27.8789C10.6288 28.2867 10.1139 28.4906 9.5 28.4906H5.16667ZM9.9875 42.8822C9.59028 42.4928 9.39167 41.9971 9.39167 41.3953C9.39167 40.7934 9.59028 40.2978 9.9875 39.9083L13.075 36.8813C13.4722 36.4919 13.9691 36.2971 14.5657 36.2971C15.1608 36.2971 15.675 36.4919 16.1083 36.8813C16.5417 37.3062 16.7583 37.811 16.7583 38.3959C16.7583 38.9793 16.5417 39.4835 16.1083 39.9083L13.075 42.8822C12.6417 43.3071 12.1181 43.5195 11.5042 43.5195C10.8903 43.5195 10.3847 43.3071 9.9875 42.8822ZM26.8333 39.1117C23.2222 39.1117 20.1528 37.8726 17.625 35.3944C15.0972 32.9161 13.8333 29.9068 13.8333 26.3664C13.8333 22.8261 15.0972 19.8167 17.625 17.3385C20.1528 14.8602 23.2222 13.6211 26.8333 13.6211C30.4444 13.6211 33.5139 14.8602 36.0417 17.3385C38.5694 19.8167 39.8333 22.8261 39.8333 26.3664C39.8333 29.9068 38.5694 32.9161 36.0417 35.3944C33.5139 37.8726 30.4444 39.1117 26.8333 39.1117Z" fill="#FFCE1A"/>
</g>
<mask id="mask1_422_3645" style="mask-type:alpha" maskUnits="userSpaceOnUse" x="173" y="73" width="53" height="53">
<rect x="173.75" y="73.2419" width="52" height="52" fill="#D9D9D9"/>
</mask>
<g mask="url(#mask1_422_3645)">
<path d="M203.892 120.272C203.35 120.555 202.8 120.599 202.241 120.404C201.68 120.21 201.256 119.847 200.967 119.316L197.717 112.943C197.428 112.412 197.383 111.873 197.582 111.325C197.78 110.775 198.15 110.359 198.692 110.076C199.233 109.792 199.784 109.749 200.343 109.944C200.903 110.138 201.328 110.501 201.617 111.032L204.867 117.404C205.156 117.935 205.201 118.475 205.003 119.023C204.804 119.572 204.433 119.989 203.892 120.272ZM216.892 120.272C216.35 120.555 215.8 120.599 215.241 120.404C214.68 120.21 214.256 119.847 213.967 119.316L210.717 112.943C210.428 112.412 210.383 111.873 210.582 111.325C210.78 110.775 211.15 110.359 211.692 110.076C212.233 109.792 212.784 109.749 213.343 109.944C213.903 110.138 214.328 110.501 214.617 111.032L217.867 117.404C218.156 117.935 218.201 118.475 218.003 119.023C217.804 119.572 217.433 119.989 216.892 120.272ZM190.892 120.272C190.35 120.555 189.8 120.599 189.241 120.404C188.68 120.21 188.256 119.847 187.967 119.316L184.717 112.943C184.428 112.412 184.383 111.873 184.582 111.325C184.78 110.775 185.15 110.359 185.692 110.076C186.233 109.792 186.784 109.749 187.343 109.944C187.903 110.138 188.328 110.501 188.617 111.032L191.867 117.404C192.156 117.935 192.201 118.475 192.003 119.023C191.804 119.572 191.433 119.989 190.892 120.272ZM189.917 107.739C186.631 107.739 183.823 106.597 181.495 104.313C179.165 102.03 178 99.2776 178 96.0559C178 93.1174 178.993 90.5506 180.979 88.3556C182.965 86.1605 185.421 84.8683 188.346 84.4789C189.501 82.4609 191.082 80.8762 193.086 79.7249C195.09 78.575 197.283 78 199.667 78C202.917 78 205.742 79.0182 208.143 81.0546C210.545 83.0896 211.999 85.6295 212.504 88.6742C214.996 88.8866 217.09 89.8956 218.787 91.7012C220.485 93.5068 221.333 95.6664 221.333 98.1801C221.333 100.835 220.386 103.093 218.491 104.952C216.594 106.81 214.292 107.739 211.583 107.739H189.917Z" fill="#6B7EFD"/>
</g>
</svg>
