<svg width="376" height="169" viewBox="0 0 376 169" fill="none" xmlns="http://www.w3.org/2000/svg">
<path d="M1.25 95.2419C1.25 95.2419 0.0672607 129.126 49.75 155.742C91.75 178.242 139.25 162.242 139.25 162.242" stroke="#6B7EFD" stroke-width="2" stroke-linecap="round" stroke-dasharray="4 4"/>
<path d="M198.75 99.1472C198.75 93.184 205.75 59.1841 235.75 48.1472C265.75 37.1104 297.75 48.1472 297.75 48.1472" stroke="#6B7EFD" stroke-width="2" stroke-linecap="round" stroke-dasharray="4 4"/>
<mask id="mask0_422_3630" style="mask-type:alpha" maskUnits="userSpaceOnUse" x="146" y="107" width="53" height="53">
<rect x="146.75" y="107.242" width="52" height="52" fill="#D9D9D9"/>
</mask>
<g mask="url(#mask0_422_3630)">
<path d="M171.583 151.112C170.392 151.112 169.3 150.819 168.307 150.234C167.314 149.651 166.528 148.881 165.95 147.925C165.553 147.217 165.517 146.509 165.842 145.801C166.167 145.093 166.781 144.739 167.683 144.739C168.044 144.739 168.406 144.845 168.767 145.058C169.128 145.27 169.507 145.624 169.904 146.12C170.085 146.368 170.328 146.554 170.634 146.678C170.942 146.802 171.258 146.863 171.583 146.863C172.197 146.863 172.712 146.659 173.128 146.252C173.543 145.845 173.75 145.341 173.75 144.739C173.75 144.137 173.543 143.633 173.128 143.227C172.712 142.819 172.197 142.615 171.583 142.615H153.167C152.553 142.615 152.039 142.411 151.624 142.003C151.208 141.597 151 141.093 151 140.491C151 139.889 151.208 139.384 151.624 138.976C152.039 138.57 152.553 138.366 153.167 138.366H171.583C173.389 138.366 174.924 138.986 176.187 140.225C177.451 141.464 178.083 142.969 178.083 144.739C178.083 146.509 177.451 148.014 176.187 149.253C174.924 150.492 173.389 151.112 171.583 151.112ZM153.167 129.87C152.553 129.87 152.039 129.666 151.624 129.258C151.208 128.851 151 128.347 151 127.745C151 127.143 151.208 126.639 151.624 126.231C152.039 125.824 152.553 125.621 153.167 125.621H180.25C181.189 125.621 181.965 125.32 182.579 124.718C183.193 124.116 183.5 123.355 183.5 122.435C183.5 121.514 183.193 120.753 182.579 120.151C181.965 119.549 181.189 119.248 180.25 119.248C179.636 119.248 179.086 119.382 178.599 119.648C178.111 119.913 177.722 120.293 177.433 120.788C177.144 121.32 176.801 121.727 176.404 122.01C176.007 122.293 175.61 122.435 175.212 122.435C174.454 122.435 173.858 122.169 173.425 121.638C172.992 121.107 172.883 120.541 173.1 119.939C173.606 118.452 174.5 117.257 175.782 116.353C177.064 115.451 178.553 115 180.25 115C182.381 115 184.177 115.717 185.641 117.15C187.102 118.584 187.833 120.346 187.833 122.435C187.833 124.524 187.102 126.285 185.641 127.718C184.177 129.152 182.381 129.87 180.25 129.87H153.167ZM189.892 146.226C189.133 146.545 188.42 146.518 187.751 146.147C187.084 145.775 186.75 145.164 186.75 144.314C186.75 143.925 186.894 143.544 187.183 143.171C187.472 142.8 187.887 142.473 188.429 142.19C188.935 141.907 189.323 141.526 189.593 141.047C189.864 140.57 190 140.03 190 139.429C190 138.508 189.693 137.747 189.079 137.145C188.465 136.543 187.689 136.242 186.75 136.242H153.167C152.553 136.242 152.039 136.038 151.624 135.63C151.208 135.224 151 134.72 151 134.118C151 133.516 151.208 133.011 151.624 132.603C152.039 132.197 152.553 131.994 153.167 131.994H186.75C188.881 131.994 190.677 132.71 192.141 134.143C193.602 135.578 194.333 137.34 194.333 139.429C194.333 140.951 193.927 142.314 193.116 143.518C192.302 144.721 191.228 145.624 189.892 146.226Z" fill="#6B7EFD"/>
</g>
<mask id="mask1_422_3630" style="mask-type:alpha" maskUnits="userSpaceOnUse" x="323" y="0" width="53" height="53">
<rect x="323.75" y="0.241943" width="52" height="52" fill="#D9D9D9"/>
</mask>
<g mask="url(#mask1_422_3630)">
<path d="M326.54 37.7292C326.955 38.154 327.469 38.3664 328.083 38.3664C328.697 38.3664 329.212 38.1625 329.628 37.7546C330.043 37.3482 330.286 36.8441 330.358 36.2422C330.9 31.4273 333.004 27.3913 336.67 24.1341C340.334 20.877 344.694 19.2484 349.75 19.2484C354.805 19.2484 359.166 20.877 362.832 24.1341C366.497 27.3913 368.6 31.4273 369.141 36.2422C369.214 36.8441 369.466 37.3482 369.9 37.7546C370.333 38.1625 370.839 38.3664 371.416 38.3664C372.03 38.3664 372.545 38.154 372.959 37.7292C373.375 37.3043 373.547 36.8087 373.475 36.2422C373.222 33.2683 372.419 30.4891 371.065 27.9046C369.711 25.3202 367.977 23.072 365.865 21.1602C363.752 19.2484 361.314 17.7438 358.551 16.6463C355.789 15.5488 352.855 15 349.75 15C346.644 15 343.711 15.5488 340.949 16.6463C338.186 17.7438 335.747 19.2484 333.634 21.1602C331.522 23.072 329.798 25.3202 328.462 27.9046C327.126 30.4891 326.314 33.2683 326.025 36.2422C325.953 36.8087 326.124 37.3043 326.54 37.7292Z" fill="#F9705A"/>
<path d="M336.75 38.3664C336.136 38.3664 335.63 38.1539 335.233 37.7291C334.836 37.3043 334.673 36.8086 334.746 36.2421C335.251 32.631 336.922 29.604 339.757 27.1611C342.591 24.7183 345.922 23.4968 349.75 23.4968C353.578 23.4968 356.909 24.7183 359.745 27.1611C362.579 29.604 364.248 32.631 364.754 36.2421C364.826 36.8086 364.664 37.3043 364.267 37.7291C363.869 38.1539 363.364 38.3664 362.75 38.3664C362.172 38.3664 361.667 38.1716 361.233 37.7822C360.8 37.3928 360.511 36.8971 360.367 36.2953C359.861 33.8524 358.625 31.8167 356.657 30.1881C354.688 28.5596 352.386 27.7453 349.75 27.7453C347.114 27.7453 344.811 28.5596 342.843 30.1881C340.875 31.8167 339.639 33.8524 339.133 36.2953C338.989 36.8971 338.7 37.3928 338.267 37.7822C337.833 38.1716 337.328 38.3664 336.75 38.3664Z" fill="#FFCE1A"/>
</g>
</svg>
