<svg width="20" height="20" viewBox="0 0 20 20" fill="none" xmlns="http://www.w3.org/2000/svg">
<mask id="mask0_1036_7533" style="mask-type:alpha" maskUnits="userSpaceOnUse" x="0" y="0" width="20" height="20">
<rect width="20" height="20" fill="#D9D9D9"/>
</mask>
<g mask="url(#mask0_1036_7533)">
<path d="M9.06215 15.0968C10.0183 15.0968 10.829 14.7642 11.494 14.0992C12.1591 13.4341 12.4916 12.6235 12.4916 11.6673C12.4916 10.7111 12.1591 9.90048 11.494 9.23542C10.829 8.57037 10.0183 8.23784 9.06215 8.23784C8.10596 8.23784 7.29533 8.57037 6.63028 9.23542C5.96521 9.90048 5.63267 10.7111 5.63267 11.6673C5.63267 12.6235 5.96521 13.4341 6.63028 14.0992C7.29533 14.7642 8.10596 15.0968 9.06215 15.0968ZM2.6519 17.9173C2.23097 17.9173 1.87467 17.7714 1.58301 17.4798C1.29134 17.1881 1.14551 16.8318 1.14551 16.4109V6.92373C1.14551 6.50279 1.29134 6.14648 1.58301 5.85482C1.87467 5.56315 2.23097 5.41732 2.6519 5.41732H5.19678L6.28653 4.23623C6.42436 4.08683 6.59039 3.96855 6.78461 3.8814C6.97883 3.79423 7.18246 3.75065 7.39549 3.75065H11.0173C11.2307 3.75065 11.4096 3.82284 11.5539 3.96721C11.6983 4.11157 11.7705 4.29046 11.7705 4.50386V6.6673L2.6519 6.92373H2.39549V16.4109C2.39549 16.4857 2.41952 16.5471 2.46759 16.5952C2.51567 16.6433 2.57711 16.6673 2.6519 16.6673H15.4724C15.5472 16.6673 15.6086 16.6433 15.6567 16.5952C15.7048 16.5471 15.7288 16.4857 15.7288 16.4109V8.95894H16.2256C16.1871 8.95894 16.2066 8.97978 16.284 9.02144C16.3615 9.06311 16.4518 9.11947 16.5549 9.19053C16.658 9.26157 16.7544 9.34383 16.8442 9.43732C16.9339 9.53079 16.9788 9.6224 16.9788 9.71215V16.4109C16.9788 16.8318 16.8329 17.1881 16.5413 17.4798C16.2496 17.7714 15.8933 17.9173 15.4724 17.9173H2.6519ZM15.7368 5.00063H14.6952C14.5181 5.00063 14.3696 4.94071 14.2498 4.82086C14.13 4.70103 14.0702 4.55253 14.0702 4.37536C14.0702 4.19821 14.13 4.0498 14.2498 3.93015C14.3696 3.81048 14.5181 3.75065 14.6952 3.75065H15.7368V2.70898C15.7368 2.5319 15.7967 2.38346 15.9166 2.26367C16.0364 2.14388 16.1849 2.08398 16.3621 2.08398C16.5392 2.08398 16.6877 2.14388 16.8073 2.26367C16.927 2.38346 16.9868 2.5319 16.9868 2.70898V3.75065H18.0285C18.2056 3.75065 18.354 3.81057 18.4738 3.93042C18.5936 4.05027 18.6535 4.19877 18.6535 4.37592C18.6535 4.55309 18.5936 4.7015 18.4738 4.82115C18.354 4.9408 18.2056 5.00063 18.0285 5.00063H16.9868V6.04232C16.9868 6.21939 16.9269 6.36782 16.807 6.48761C16.6872 6.6074 16.5387 6.6673 16.3615 6.6673C16.1844 6.6673 16.036 6.6074 15.9163 6.48761C15.7966 6.36782 15.7368 6.21939 15.7368 6.04232V5.00063Z" fill="#0B0D13"/>
</g>
</svg>
