<svg width="18" height="15" viewBox="0 0 18 15" fill="none" xmlns="http://www.w3.org/2000/svg">
<path d="M8.58333 14.3542C8.16667 14.3542 7.78139 14.25 7.4275 14.0417C7.07306 13.8333 6.79167 13.5556 6.58333 13.2083C6.47222 12.9861 6.46528 12.7744 6.5625 12.5733C6.65972 12.3717 6.84028 12.2708 7.10417 12.2708C7.21528 12.2708 7.32306 12.3022 7.4275 12.365C7.53139 12.4272 7.63194 12.5278 7.72917 12.6667C7.82639 12.8056 7.95139 12.9133 8.10417 12.99C8.25694 13.0661 8.41667 13.1042 8.58333 13.1042C8.875 13.1042 9.12139 13.0033 9.3225 12.8017C9.52417 12.6006 9.625 12.3542 9.625 12.0625C9.625 11.7847 9.52417 11.5417 9.3225 11.3333C9.12139 11.125 8.875 11.0208 8.58333 11.0208H1.5C1.31944 11.0208 1.17028 10.9617 1.0525 10.8433C0.934167 10.7256 0.875 10.5764 0.875 10.3958C0.875 10.2292 0.934167 10.0833 1.0525 9.95833C1.17028 9.83333 1.31944 9.77083 1.5 9.77083H8.58333C9.22222 9.77083 9.76389 9.99667 10.2083 10.4483C10.6528 10.8994 10.875 11.4375 10.875 12.0625C10.875 12.7014 10.6528 13.2431 10.2083 13.6875C9.76389 14.1319 9.22222 14.3542 8.58333 14.3542ZM1.5 6.22917C1.31944 6.22917 1.17028 6.16667 1.0525 6.04167C0.934167 5.91667 0.875 5.77083 0.875 5.60417C0.875 5.42361 0.934167 5.27417 1.0525 5.15583C1.17028 5.03806 1.31944 4.97917 1.5 4.97917H11.9167C12.3333 4.97917 12.6806 4.83667 12.9583 4.55167C13.2361 4.26722 13.375 3.92361 13.375 3.52083C13.375 3.10417 13.2361 2.75694 12.9583 2.47917C12.6806 2.20139 12.3333 2.0625 11.9167 2.0625C11.625 2.0625 11.3644 2.13194 11.135 2.27083C10.9061 2.40972 10.7361 2.59722 10.625 2.83333C10.5417 2.98611 10.4444 3.10417 10.3333 3.1875C10.2222 3.27083 10.1111 3.3125 10 3.3125C9.77778 3.3125 9.60056 3.23278 9.46833 3.07333C9.33667 2.91333 9.30556 2.73611 9.375 2.54167C9.56944 2.01389 9.89583 1.59389 10.3542 1.28167C10.8125 0.968889 11.3333 0.8125 11.9167 0.8125C12.6806 0.8125 13.3228 1.07278 13.8433 1.59333C14.3644 2.11444 14.625 2.75694 14.625 3.52083C14.625 4.27083 14.3644 4.90972 13.8433 5.4375C13.3228 5.96528 12.6806 6.22917 11.9167 6.22917H1.5ZM15.5208 12.5833C15.2986 12.6667 15.0936 12.6528 14.9058 12.5417C14.7186 12.4306 14.625 12.25 14.625 12C14.625 11.875 14.6633 11.7603 14.74 11.6558C14.8161 11.5519 14.9306 11.4583 15.0833 11.375C15.3333 11.2639 15.5278 11.0939 15.6667 10.865C15.8056 10.6356 15.875 10.375 15.875 10.0833C15.875 9.66667 15.7361 9.31944 15.4583 9.04167C15.1806 8.76389 14.8333 8.625 14.4167 8.625H1.5C1.31944 8.625 1.17028 8.56583 1.0525 8.4475C0.934167 8.32972 0.875 8.18056 0.875 8C0.875 7.81944 0.934167 7.67 1.0525 7.55167C1.17028 7.43389 1.31944 7.375 1.5 7.375H14.4167C15.1806 7.375 15.8228 7.63556 16.3433 8.15667C16.8644 8.67722 17.125 9.31944 17.125 10.0833C17.125 10.6389 16.9792 11.1389 16.6875 11.5833C16.3958 12.0278 16.0069 12.3611 15.5208 12.5833Z" fill="white"/>
</svg>
