<svg width="20" height="21" viewBox="0 0 20 21" fill="none" xmlns="http://www.w3.org/2000/svg">
<mask id="mask0_533_3854" style="mask-type:alpha" maskUnits="userSpaceOnUse" x="0" y="0" width="20" height="21">
<rect y="0.673828" width="20" height="20" fill="#D9D9D9"/>
</mask>
<g mask="url(#mask0_533_3854)">
<path d="M7.39575 14.9445C7.27075 14.8195 7.20825 14.6737 7.20825 14.507C7.20825 14.3403 7.27075 14.1945 7.39575 14.0695L10.7916 10.6737L7.39575 7.27783C7.27075 7.15283 7.20825 7.007 7.20825 6.84033C7.20825 6.67367 7.27075 6.52783 7.39575 6.40283C7.52075 6.27783 7.66659 6.21533 7.83325 6.21533C7.99992 6.21533 8.14575 6.27783 8.27075 6.40283L12.0208 10.1528C12.0902 10.2223 12.1424 10.302 12.1774 10.392C12.2119 10.4826 12.2291 10.5764 12.2291 10.6737C12.2291 10.7709 12.2119 10.8645 12.1774 10.9545C12.1424 11.0451 12.0902 11.1251 12.0208 11.1945L8.27075 14.9445C8.14575 15.0695 7.99992 15.132 7.83325 15.132C7.66659 15.132 7.52075 15.0695 7.39575 14.9445Z" fill="#4E62EE"/>
</g>
</svg>
