<svg width="32" height="32" viewBox="0 0 32 32" fill="none" xmlns="http://www.w3.org/2000/svg">
<mask id="mask0_959_14127" style="mask-type:alpha" maskUnits="userSpaceOnUse" x="0" y="0" width="32" height="32">
<rect width="32" height="32" fill="#D9D9D9"/>
</mask>
<g mask="url(#mask0_959_14127)">
<path d="M15.9993 27.6673C15.7105 27.6673 15.4718 27.5731 15.2833 27.3846C15.094 27.1953 14.9993 26.9562 14.9993 26.6673V24.8673C13.9771 24.6895 13.0882 24.3282 12.3327 23.7833C11.5771 23.2393 10.966 22.4784 10.4993 21.5007C10.3882 21.2784 10.3882 21.034 10.4993 20.7673C10.6105 20.5007 10.7993 20.3118 11.066 20.2006C11.3105 20.0895 11.5607 20.0895 11.8167 20.2006C12.0718 20.3118 12.266 20.4895 12.3993 20.734C12.7771 21.4673 13.2718 22.0282 13.8833 22.4167C14.494 22.806 15.266 23.0007 16.1993 23.0007C17.1549 23.0007 17.9993 22.7731 18.7327 22.318C19.466 21.862 19.8327 21.134 19.8327 20.134C19.8327 19.2673 19.5602 18.5784 19.0153 18.0673C18.4713 17.5562 17.3327 17.0229 15.5993 16.4673C13.7771 15.8895 12.5105 15.2118 11.7993 14.434C11.0882 13.6562 10.7327 12.6895 10.7327 11.534C10.7327 10.2007 11.2051 9.1451 12.15 8.36732C13.094 7.58954 14.0438 7.15621 14.9993 7.06732V5.33398C14.9993 5.0451 15.094 4.80598 15.2833 4.61665C15.4718 4.42821 15.7105 4.33398 15.9993 4.33398C16.2882 4.33398 16.5273 4.42821 16.7167 4.61665C16.9051 4.80598 16.9993 5.0451 16.9993 5.33398V7.06732C17.8216 7.17843 18.5438 7.41754 19.166 7.78465C19.7882 8.15087 20.2993 8.63398 20.6993 9.23398C20.8549 9.45621 20.894 9.70065 20.8167 9.96732C20.7385 10.234 20.5549 10.4229 20.266 10.534C20.0438 10.6451 19.8051 10.6615 19.55 10.5833C19.294 10.506 19.0549 10.3451 18.8327 10.1007C18.5216 9.74509 18.1496 9.46198 17.7167 9.25132C17.2829 9.03976 16.7327 8.93398 16.066 8.93398C15.066 8.93398 14.2607 9.17843 13.65 9.66732C13.0385 10.1562 12.7327 10.7784 12.7327 11.534C12.7327 12.3118 13.0438 12.934 13.666 13.4007C14.2882 13.8673 15.4549 14.3562 17.166 14.8673C18.7438 15.334 19.9158 16.0118 20.682 16.9007C21.4491 17.7895 21.8327 18.8562 21.8327 20.1006C21.8327 21.5451 21.366 22.6726 20.4327 23.4833C19.4993 24.2949 18.3549 24.7784 16.9993 24.934V26.6673C16.9993 26.9562 16.9051 27.1953 16.7167 27.3846C16.5273 27.5731 16.2882 27.6673 15.9993 27.6673Z" fill="#D6DBFF"/>
</g>
</svg>
