<svg width="52" height="52" viewBox="0 0 52 52" fill="none" xmlns="http://www.w3.org/2000/svg">
<mask id="mask0_30_6334" style="mask-type:alpha" maskUnits="userSpaceOnUse" x="0" y="0" width="52" height="52">
<rect width="52" height="52" fill="#D9D9D9"/>
</mask>
<g mask="url(#mask0_30_6334)">
<path d="M16.3577 10.7248L18.416 15.1665L20.4743 10.7248L24.916 8.6665L20.4743 6.60817L18.416 2.1665L16.3577 6.60817L11.916 8.6665L16.3577 10.7248Z" fill="#FFCE1A"/>
<path d="M41.2747 35.6413L43.333 40.083L45.3913 35.6413L49.833 33.583L45.3913 31.5247L43.333 27.083L41.2747 31.5247L36.833 33.583L41.2747 35.6413Z" fill="#FFCE1A"/>
<path d="M11.05 47.0167L4.98334 40.95C4.55001 40.5167 4.33334 39.9931 4.33334 39.3792C4.33334 38.7653 4.55001 38.2417 4.98334 37.8083L29.1417 13.65C29.575 13.2167 30.0986 13 30.7125 13C31.3264 13 31.85 13.2167 32.2833 13.65L38.35 19.7167C38.7833 20.15 39 20.6736 39 21.2875C39 21.9014 38.7833 22.425 38.35 22.8583L14.1917 47.0167C13.7583 47.45 13.2347 47.6667 12.6208 47.6667C12.007 47.6667 11.4833 47.45 11.05 47.0167ZM30.7125 24.3208L33.7458 21.2875L30.7125 18.2542L27.6792 21.2875L30.7125 24.3208Z" fill="#4E62EE"/>
<path d="M41.2747 10.7248L43.333 15.1665L45.3913 10.7248L49.833 8.6665L45.3913 6.60817L43.333 2.1665L41.2747 6.60817L36.833 8.6665L41.2747 10.7248Z" fill="#FFCE1A"/>
</g>
</svg>
