<svg width="20" height="20" viewBox="0 0 20 20" fill="none" xmlns="http://www.w3.org/2000/svg">
<mask id="mask0_766_4434" style="mask-type:alpha" maskUnits="userSpaceOnUse" x="0" y="0" width="20" height="20">
<rect width="20" height="20" fill="#D9D9D9"/>
</mask>
<g mask="url(#mask0_766_4434)">
<path d="M10.0001 12.2086C9.90286 12.2086 9.80925 12.1947 9.71925 12.1669C9.62869 12.1392 9.54869 12.0836 9.47925 12.0003L5.70841 8.25027C5.5973 8.12527 5.54175 7.97944 5.54175 7.81277C5.54175 7.64611 5.60425 7.50027 5.72925 7.37527C5.85425 7.26416 6.00008 7.2086 6.16675 7.2086C6.33341 7.2086 6.47925 7.26416 6.60425 7.37527L10.0001 10.7711L13.4167 7.37527C13.5279 7.25027 13.6667 7.19111 13.8334 7.19777C14.0001 7.20499 14.1459 7.26416 14.2709 7.37527C14.3959 7.50027 14.4584 7.64944 14.4584 7.82277C14.4584 7.99666 14.3959 8.13916 14.2709 8.25027L10.5209 12.0003C10.4515 12.0836 10.3717 12.1392 10.2817 12.1669C10.1912 12.1947 10.0973 12.2086 10.0001 12.2086Z" fill="#0B0D13"/>
</g>
</svg>
