<svg width="12" height="14" viewBox="0 0 12 14" fill="none" xmlns="http://www.w3.org/2000/svg">
<path d="M1.5335 13.3333C1.20016 13.3333 0.91683 13.2166 0.683496 12.9833C0.450163 12.75 0.333496 12.4666 0.333496 12.1333V3.19998C0.333496 2.86665 0.450163 2.58331 0.683496 2.34998C0.91683 2.11665 1.20016 1.99998 1.5335 1.99998H2.46683V1.08331C2.46683 0.938869 2.51394 0.819313 2.60816 0.724646C2.70283 0.630424 2.82238 0.583313 2.96683 0.583313C3.12239 0.583313 3.24727 0.633313 3.3415 0.733313C3.43616 0.833313 3.4835 0.955535 3.4835 1.09998V1.99998H8.5335V1.06665C8.5335 0.933313 8.5835 0.819313 8.6835 0.724646C8.7835 0.630424 8.90016 0.583313 9.0335 0.583313C9.17794 0.583313 9.29727 0.633313 9.3915 0.733313C9.48616 0.833313 9.5335 0.94998 9.5335 1.08331V1.99998H10.4668C10.8002 1.99998 11.0835 2.11665 11.3168 2.34998C11.5502 2.58331 11.6668 2.86665 11.6668 3.19998V12.1333C11.6668 12.4666 11.5502 12.75 11.3168 12.9833C11.0835 13.2166 10.8002 13.3333 10.4668 13.3333H1.5335ZM1.5335 12.3333H10.4668C10.5224 12.3333 10.5697 12.314 10.6088 12.2753C10.6475 12.2362 10.6668 12.1889 10.6668 12.1333V5.86665H1.3335V12.1333C1.3335 12.1889 1.35305 12.2362 1.39216 12.2753C1.43083 12.314 1.47794 12.3333 1.5335 12.3333ZM1.3335 4.86665H10.6668V3.19998C10.6668 3.14442 10.6475 3.09731 10.6088 3.05865C10.5697 3.01954 10.5224 2.99998 10.4668 2.99998H1.5335C1.47794 2.99998 1.43083 3.01954 1.39216 3.05865C1.35305 3.09731 1.3335 3.14442 1.3335 3.19998V4.86665Z" fill="#0B0D13"/>
</svg>
