<svg width="96" height="96" viewBox="0 0 96 96" fill="none" xmlns="http://www.w3.org/2000/svg">
<mask id="mask0_503_8409" style="mask-type:alpha" maskUnits="userSpaceOnUse" x="0" y="0" width="96" height="96">
<rect width="96" height="96" fill="#D9D9D9"/>
</mask>
<g mask="url(#mask0_503_8409)">
<path d="M45.1995 80.0002L65.1995 41.0002H51.1995V16.0002L31.1995 55.0002H45.1995V80.0002ZM47.9995 88.0002C42.4662 88.0002 37.2662 86.9495 32.3995 84.8482C27.5328 82.7495 23.2995 79.9002 19.6995 76.3002C16.0995 72.7002 13.2502 68.4669 11.1515 63.6002C9.05018 58.7335 7.99951 53.5335 7.99951 48.0002C7.99951 42.4669 9.05018 37.2669 11.1515 32.4002C13.2502 27.5335 16.0995 23.3002 19.6995 19.7002C23.2995 16.1002 27.5328 13.2495 32.3995 11.1482C37.2662 9.04952 42.4662 8.00018 47.9995 8.00018C53.5328 8.00018 58.7328 9.04952 63.5995 11.1482C68.4662 13.2495 72.6995 16.1002 76.2995 19.7002C79.8995 23.3002 82.7488 27.5335 84.8475 32.4002C86.9488 37.2669 87.9995 42.4669 87.9995 48.0002C87.9995 53.5335 86.9488 58.7335 84.8475 63.6002C82.7488 68.4669 79.8995 72.7002 76.2995 76.3002C72.6995 79.9002 68.4662 82.7495 63.5995 84.8482C58.7328 86.9495 53.5328 88.0002 47.9995 88.0002Z" fill="#3CCD87"/>
</g>
</svg>
