<svg width="24" height="24" viewBox="0 0 24 24" fill="none" xmlns="http://www.w3.org/2000/svg">
<mask id="mask0_959_13475" style="mask-type:alpha" maskUnits="userSpaceOnUse" x="0" y="0" width="24" height="24">
<rect width="24" height="24" fill="#D9D9D9"/>
</mask>
<g mask="url(#mask0_959_13475)">
<path d="M9.54998 17.2754C9.43332 17.2754 9.32098 17.2544 9.21298 17.2124C9.10432 17.1711 9.00832 17.1087 8.92498 17.0254L4.74998 12.8504C4.59998 12.7004 4.52898 12.5211 4.53698 12.3124C4.54565 12.1044 4.61665 11.9254 4.74998 11.7754C4.89998 11.6254 5.07932 11.5504 5.28798 11.5504C5.49598 11.5504 5.66665 11.6254 5.79998 11.7754L9.54998 15.5254L18.2 6.87539C18.3333 6.72539 18.5083 6.65039 18.725 6.65039C18.9417 6.65039 19.1167 6.72539 19.25 6.87539C19.4 7.02539 19.475 7.20439 19.475 7.41239C19.475 7.62106 19.4 7.80039 19.25 7.95039L10.175 17.0254C10.0917 17.1087 9.99598 17.1711 9.88798 17.2124C9.77932 17.2544 9.66665 17.2754 9.54998 17.2754Z" fill="#3CCD87"/>
</g>
</svg>
