<svg width="18" height="18" viewBox="0 0 18 18" fill="none" xmlns="http://www.w3.org/2000/svg">
<path d="M9.00016 3.33334C8.81961 3.33334 8.67044 3.27418 8.55266 3.15584C8.43433 3.03807 8.37516 2.8889 8.37516 2.70834V0.895844C8.37516 0.715288 8.43433 0.565844 8.55266 0.44751C8.67044 0.329732 8.81961 0.270844 9.00016 0.270844C9.18072 0.270844 9.33016 0.329732 9.4485 0.44751C9.56627 0.565844 9.62516 0.715288 9.62516 0.895844V2.70834C9.62516 2.8889 9.56627 3.03807 9.4485 3.15584C9.33016 3.27418 9.18072 3.33334 9.00016 3.33334ZM13.0002 5.00001C12.8891 4.8889 12.8335 4.74668 12.8335 4.57334C12.8335 4.39945 12.8891 4.25001 13.0002 4.12501L14.271 2.83334C14.396 2.69445 14.5454 2.62501 14.7193 2.62501C14.8927 2.62501 15.0418 2.69445 15.1668 2.83334C15.2918 2.94445 15.3543 3.08668 15.3543 3.26001C15.3543 3.4339 15.2918 3.58334 15.1668 3.70834L13.8752 5.00001C13.7502 5.12501 13.6043 5.18751 13.4377 5.18751C13.271 5.18751 13.1252 5.12501 13.0002 5.00001ZM15.2918 9.62501C15.1113 9.62501 14.9621 9.56584 14.8443 9.44751C14.726 9.32973 14.6668 9.18057 14.6668 9.00001C14.6668 8.81946 14.726 8.67001 14.8443 8.55168C14.9621 8.4339 15.1113 8.37501 15.2918 8.37501H17.1043C17.2849 8.37501 17.4343 8.4339 17.5527 8.55168C17.6704 8.67001 17.7293 8.81946 17.7293 9.00001C17.7293 9.18057 17.6704 9.32973 17.5527 9.44751C17.4343 9.56584 17.2849 9.62501 17.1043 9.62501H15.2918ZM9.00016 17.7292C8.81961 17.7292 8.67044 17.6703 8.55266 17.5525C8.43433 17.4342 8.37516 17.2847 8.37516 17.1042V15.2917C8.37516 15.1111 8.43433 14.962 8.55266 14.8442C8.67044 14.7258 8.81961 14.6667 9.00016 14.6667C9.18072 14.6667 9.33016 14.7258 9.4485 14.8442C9.56627 14.962 9.62516 15.1111 9.62516 15.2917V17.1042C9.62516 17.2847 9.56627 17.4342 9.4485 17.5525C9.33016 17.6703 9.18072 17.7292 9.00016 17.7292ZM4.12516 5.00001L2.8335 3.72918C2.69461 3.60418 2.62516 3.4514 2.62516 3.27084C2.62516 3.09029 2.69461 2.94445 2.8335 2.83334C2.94461 2.70834 3.09044 2.64584 3.271 2.64584C3.45155 2.64584 3.59738 2.70834 3.7085 2.83334L5.021 4.12501C5.13211 4.25001 5.18766 4.39945 5.18766 4.57334C5.18766 4.74668 5.13211 4.8889 5.021 5.00001C4.896 5.11112 4.75016 5.16668 4.5835 5.16668C4.41683 5.16668 4.26405 5.11112 4.12516 5.00001ZM14.2918 15.1667L13.0002 13.875C12.8891 13.75 12.8335 13.6006 12.8335 13.4267C12.8335 13.2533 12.8891 13.1111 13.0002 13C13.1113 12.8889 13.2535 12.8333 13.4268 12.8333C13.6007 12.8333 13.7502 12.8889 13.8752 13L15.1668 14.2917C15.2918 14.4028 15.3543 14.5453 15.3543 14.7192C15.3543 14.8925 15.2918 15.0417 15.1668 15.1667C15.0418 15.3056 14.8927 15.375 14.7193 15.375C14.5454 15.375 14.4029 15.3056 14.2918 15.1667ZM0.895996 9.62501C0.715441 9.62501 0.566274 9.56584 0.448496 9.44751C0.330163 9.32973 0.270996 9.18057 0.270996 9.00001C0.270996 8.81946 0.330163 8.67001 0.448496 8.55168C0.566274 8.4339 0.715441 8.37501 0.895996 8.37501H2.7085C2.88905 8.37501 3.0385 8.4339 3.15683 8.55168C3.27461 8.67001 3.3335 8.81946 3.3335 9.00001C3.3335 9.18057 3.27461 9.32973 3.15683 9.44751C3.0385 9.56584 2.88905 9.62501 2.7085 9.62501H0.895996ZM2.8335 15.1667C2.72238 15.0556 2.6635 14.9131 2.65683 14.7392C2.64961 14.5658 2.7085 14.4167 2.8335 14.2917L4.12516 13C4.23627 12.8889 4.37516 12.8333 4.54183 12.8333C4.7085 12.8333 4.86127 12.8889 5.00016 13C5.12516 13.1389 5.18766 13.2917 5.18766 13.4583C5.18766 13.625 5.12516 13.7708 5.00016 13.8958L3.72933 15.1667C3.59044 15.3056 3.43433 15.375 3.261 15.375C3.08711 15.375 2.94461 15.3056 2.8335 15.1667ZM9.00016 13.5833C7.72238 13.5833 6.63905 13.1389 5.75016 12.25C4.86127 11.3611 4.41683 10.2778 4.41683 9.00001C4.41683 7.72223 4.86127 6.6389 5.75016 5.75001C6.63905 4.86112 7.72238 4.41668 9.00016 4.41668C10.2779 4.41668 11.3613 4.86112 12.2502 5.75001C13.1391 6.6389 13.5835 7.72223 13.5835 9.00001C13.5835 10.2778 13.1391 11.3611 12.2502 12.25C11.3613 13.1389 10.2779 13.5833 9.00016 13.5833ZM9.00016 12.3333C9.91683 12.3333 10.7016 12.007 11.3543 11.3542C12.0071 10.7014 12.3335 9.91668 12.3335 9.00001C12.3335 8.08334 12.0071 7.29862 11.3543 6.64584C10.7016 5.99307 9.91683 5.66668 9.00016 5.66668C8.0835 5.66668 7.29877 5.99307 6.646 6.64584C5.99322 7.29862 5.66683 8.08334 5.66683 9.00001C5.66683 9.91668 5.99322 10.7014 6.646 11.3542C7.29877 12.007 8.0835 12.3333 9.00016 12.3333Z" fill="#4E62EE"/>
</svg>
