<svg width="20" height="20" viewBox="0 0 20 20" fill="none" xmlns="http://www.w3.org/2000/svg">
<mask id="mask0_557_5742" style="mask-type:alpha" maskUnits="userSpaceOnUse" x="0" y="0" width="20" height="20">
<rect width="20" height="20" fill="#D9D9D9"/>
</mask>
<g mask="url(#mask0_557_5742)">
<path d="M9.99992 10.8749L5.77075 15.1041C5.65964 15.2152 5.51742 15.2741 5.34409 15.2808C5.1702 15.288 5.02075 15.2291 4.89575 15.1041C4.77075 14.9791 4.70825 14.8333 4.70825 14.6666C4.70825 14.4999 4.77075 14.3541 4.89575 14.2291L9.12492 9.99992L4.89575 5.77075C4.78464 5.65964 4.72575 5.51714 4.71909 5.34325C4.71186 5.16992 4.77075 5.02075 4.89575 4.89575C5.02075 4.77075 5.16659 4.70825 5.33325 4.70825C5.49992 4.70825 5.64575 4.77075 5.77075 4.89575L9.99992 9.12492L14.2291 4.89575C14.3402 4.78464 14.4827 4.72547 14.6566 4.71825C14.8299 4.71159 14.9791 4.77075 15.1041 4.89575C15.2291 5.02075 15.2916 5.16659 15.2916 5.33325C15.2916 5.49992 15.2291 5.64575 15.1041 5.77075L10.8749 9.99992L15.1041 14.2291C15.2152 14.3402 15.2741 14.4824 15.2808 14.6558C15.288 14.8296 15.2291 14.9791 15.1041 15.1041C14.9791 15.2291 14.8333 15.2916 14.6666 15.2916C14.4999 15.2916 14.3541 15.2291 14.2291 15.1041L9.99992 10.8749Z" fill="white"/>
</g>
</svg>
