<svg width="64" height="64" viewBox="0 0 64 64" fill="none" xmlns="http://www.w3.org/2000/svg">
<rect width="64" height="64" rx="32" fill="white"/>
<mask id="mask0_959_13453" style="mask-type:alpha" maskUnits="userSpaceOnUse" x="12" y="12" width="40" height="40">
<rect x="12" y="12" width="40" height="40" fill="#D9D9D9"/>
</mask>
<g mask="url(#mask0_959_13453)">
<path d="M22.8334 44.4999C20.53 44.4999 18.5652 43.6997 16.9391 42.0993C15.3131 40.4989 14.5001 38.547 14.5001 36.2435C14.5001 34.2051 15.1528 32.3921 16.4584 30.8045C17.764 29.2169 19.4295 28.2778 21.4552 27.9872C21.9894 25.4957 23.242 23.4583 25.2132 21.875C27.1843 20.2917 29.4466 19.5 32 19.5C35.015 19.5 37.5742 20.5518 39.6779 22.6555C41.7815 24.7591 42.8333 27.3183 42.8333 30.3333V31.1667H43.3461C45.1025 31.3034 46.5673 32.0096 47.7404 33.2852C48.9134 34.5609 49.5 36.0769 49.5 37.8333C49.5 39.6922 48.8536 41.2681 47.5609 42.5608C46.2681 43.8536 44.6923 44.4999 42.8334 44.4999H22.8334ZM22.8334 42H42.8334C44 42 44.9861 41.5972 45.7917 40.7916C46.5972 39.9861 47 39 47 37.8333C47 36.6666 46.5972 35.6805 45.7917 34.875C44.9861 34.0694 44 33.6666 42.8334 33.6666H40.3334V30.3333C40.3334 28.0277 39.5209 26.0625 37.8959 24.4375C36.2709 22.8125 34.3056 22 32 22C29.6945 22 27.7292 22.8125 26.1042 24.4375C24.4792 26.0625 23.6667 28.0277 23.6667 30.3333H22.8334C21.2222 30.3333 19.8472 30.9027 18.7084 32.0416C17.5695 33.1805 17 34.5555 17 36.1666C17 37.7777 17.5695 39.1527 18.7084 40.2916C19.8472 41.4305 21.2222 42 22.8334 42Z" fill="#4E62EE"/>
</g>
</svg>
