<svg width="20" height="20" viewBox="0 0 20 20" fill="none" xmlns="http://www.w3.org/2000/svg">
<mask id="mask0_972_6808" style="mask-type:alpha" maskUnits="userSpaceOnUse" x="0" y="0" width="20" height="20">
<rect width="20" height="20" fill="#D9D9D9"/>
</mask>
<g mask="url(#mask0_972_6808)">
<path d="M13.7644 14.2813C13.649 14.3967 13.5061 14.453 13.3357 14.4504C13.1653 14.4477 13.0182 14.3844 12.8943 14.2605C12.765 14.1312 12.7003 13.9827 12.7003 13.815C12.7003 13.6472 12.765 13.4987 12.8943 13.3695L16.2757 9.98806L12.8734 6.58579C12.758 6.47041 12.7038 6.32752 12.7108 6.15712C12.7177 5.98672 12.7789 5.84383 12.8943 5.72845C13.015 5.60772 13.1613 5.54735 13.3333 5.54735C13.5053 5.54735 13.6517 5.60772 13.7724 5.72845L17.5176 9.47364C17.6682 9.62428 17.7436 9.80002 17.7436 10.0009C17.7436 10.2017 17.6682 10.3775 17.5176 10.5281L13.7644 14.2813ZM6.22759 14.2733L2.4824 10.5281C2.33176 10.3775 2.25644 10.2017 2.25644 10.0009C2.25644 9.80002 2.33176 9.62428 2.4824 9.47364L6.23559 5.72043C6.35097 5.60504 6.496 5.54655 6.67067 5.54495C6.84535 5.54336 6.99465 5.60452 7.11859 5.72845C7.24785 5.85772 7.31248 6.00622 7.31248 6.17395C7.31248 6.34167 7.24785 6.49017 7.11859 6.61945L3.72434 10.0137L7.12659 13.416C7.24197 13.5313 7.2962 13.6742 7.28925 13.8446C7.28231 14.015 7.22114 14.1579 7.10575 14.2733C6.98503 14.394 6.83867 14.4544 6.66667 14.4544C6.49467 14.4544 6.34831 14.394 6.22759 14.2733Z" fill="white"/>
</g>
</svg>
