<svg width="20" height="20" viewBox="0 0 20 20" fill="none" xmlns="http://www.w3.org/2000/svg">
<mask id="mask0_972_6192" style="mask-type:alpha" maskUnits="userSpaceOnUse" x="0" y="0" width="20" height="20">
<rect width="20" height="20" fill="#D9D9D9"/>
</mask>
<g mask="url(#mask0_972_6192)">
<path d="M9.99998 4.33398C9.81942 4.33398 9.67026 4.27482 9.55248 4.15648C9.43415 4.03871 9.37498 3.88954 9.37498 3.70898V1.89648C9.37498 1.71593 9.43415 1.56648 9.55248 1.44815C9.67026 1.33037 9.81942 1.27148 9.99998 1.27148C10.1805 1.27148 10.33 1.33037 10.4483 1.44815C10.5661 1.56648 10.625 1.71593 10.625 1.89648V3.70898C10.625 3.88954 10.5661 4.03871 10.4483 4.15648C10.33 4.27482 10.1805 4.33398 9.99998 4.33398ZM14 6.00065C13.8889 5.88954 13.8333 5.74732 13.8333 5.57398C13.8333 5.4001 13.8889 5.25065 14 5.12565L15.2708 3.83398C15.3958 3.6951 15.5453 3.62565 15.7191 3.62565C15.8925 3.62565 16.0416 3.6951 16.1666 3.83398C16.2916 3.9451 16.3541 4.08732 16.3541 4.26065C16.3541 4.43454 16.2916 4.58398 16.1666 4.70898L14.875 6.00065C14.75 6.12565 14.6041 6.18815 14.4375 6.18815C14.2708 6.18815 14.125 6.12565 14 6.00065ZM16.2916 10.6257C16.1111 10.6257 15.9619 10.5665 15.8441 10.4482C15.7258 10.3304 15.6666 10.1812 15.6666 10.0007C15.6666 9.8201 15.7258 9.67065 15.8441 9.55232C15.9619 9.43454 16.1111 9.37565 16.2916 9.37565H18.1041C18.2847 9.37565 18.4341 9.43454 18.5525 9.55232C18.6703 9.67065 18.7291 9.8201 18.7291 10.0007C18.7291 10.1812 18.6703 10.3304 18.5525 10.4482C18.4341 10.5665 18.2847 10.6257 18.1041 10.6257H16.2916ZM9.99998 18.7298C9.81942 18.7298 9.67026 18.6709 9.55248 18.5532C9.43415 18.4348 9.37498 18.2854 9.37498 18.1048V16.2923C9.37498 16.1118 9.43415 15.9626 9.55248 15.8448C9.67026 15.7265 9.81942 15.6673 9.99998 15.6673C10.1805 15.6673 10.33 15.7265 10.4483 15.8448C10.5661 15.9626 10.625 16.1118 10.625 16.2923V18.1048C10.625 18.2854 10.5661 18.4348 10.4483 18.5532C10.33 18.6709 10.1805 18.7298 9.99998 18.7298ZM5.12498 6.00065L3.83331 4.72982C3.69442 4.60482 3.62498 4.45204 3.62498 4.27148C3.62498 4.09093 3.69442 3.9451 3.83331 3.83398C3.94442 3.70898 4.09026 3.64648 4.27081 3.64648C4.45137 3.64648 4.5972 3.70898 4.70831 3.83398L6.02081 5.12565C6.13192 5.25065 6.18748 5.4001 6.18748 5.57398C6.18748 5.74732 6.13192 5.88954 6.02081 6.00065C5.89581 6.11176 5.74998 6.16732 5.58331 6.16732C5.41665 6.16732 5.26387 6.11176 5.12498 6.00065ZM15.2916 16.1673L14 14.8757C13.8889 14.7507 13.8333 14.6012 13.8333 14.4273C13.8333 14.254 13.8889 14.1118 14 14.0007C14.1111 13.8895 14.2533 13.834 14.4266 13.834C14.6005 13.834 14.75 13.8895 14.875 14.0007L16.1666 15.2923C16.2916 15.4034 16.3541 15.5459 16.3541 15.7198C16.3541 15.8932 16.2916 16.0423 16.1666 16.1673C16.0416 16.3062 15.8925 16.3757 15.7191 16.3757C15.5453 16.3757 15.4028 16.3062 15.2916 16.1673ZM1.89581 10.6257C1.71526 10.6257 1.56609 10.5665 1.44831 10.4482C1.32998 10.3304 1.27081 10.1812 1.27081 10.0007C1.27081 9.8201 1.32998 9.67065 1.44831 9.55232C1.56609 9.43454 1.71526 9.37565 1.89581 9.37565H3.70831C3.88887 9.37565 4.03831 9.43454 4.15665 9.55232C4.27442 9.67065 4.33331 9.8201 4.33331 10.0007C4.33331 10.1812 4.27442 10.3304 4.15665 10.4482C4.03831 10.5665 3.88887 10.6257 3.70831 10.6257H1.89581ZM3.83331 16.1673C3.7222 16.0562 3.66331 15.9137 3.65665 15.7398C3.64942 15.5665 3.70831 15.4173 3.83331 15.2923L5.12498 14.0007C5.23609 13.8895 5.37498 13.834 5.54165 13.834C5.70831 13.834 5.86109 13.8895 5.99998 14.0007C6.12498 14.1395 6.18748 14.2923 6.18748 14.459C6.18748 14.6257 6.12498 14.7715 5.99998 14.8965L4.72915 16.1673C4.59026 16.3062 4.43415 16.3757 4.26081 16.3757C4.08692 16.3757 3.94442 16.3062 3.83331 16.1673ZM9.99998 14.584C8.7222 14.584 7.63887 14.1395 6.74998 13.2507C5.86109 12.3618 5.41665 11.2784 5.41665 10.0007C5.41665 8.72287 5.86109 7.63954 6.74998 6.75065C7.63887 5.86176 8.7222 5.41732 9.99998 5.41732C11.2778 5.41732 12.3611 5.86176 13.25 6.75065C14.1389 7.63954 14.5833 8.72287 14.5833 10.0007C14.5833 11.2784 14.1389 12.3618 13.25 13.2507C12.3611 14.1395 11.2778 14.584 9.99998 14.584ZM9.99998 13.334C10.9166 13.334 11.7014 13.0076 12.3541 12.3548C13.0069 11.702 13.3333 10.9173 13.3333 10.0007C13.3333 9.08398 13.0069 8.29926 12.3541 7.64648C11.7014 6.99371 10.9166 6.66732 9.99998 6.66732C9.08331 6.66732 8.29859 6.99371 7.64581 7.64648C6.99304 8.29926 6.66665 9.08398 6.66665 10.0007C6.66665 10.9173 6.99304 11.702 7.64581 12.3548C8.29859 13.0076 9.08331 13.334 9.99998 13.334Z" fill="#4E62EE"/>
</g>
</svg>
