<svg width="18" height="14" viewBox="0 0 18 14" fill="none" xmlns="http://www.w3.org/2000/svg">
<path d="M2.58398 11.7707C2.16732 11.7707 1.81315 11.6248 1.52148 11.3332C1.22982 11.0415 1.08398 10.6873 1.08398 10.2707V1.62484C1.08398 1.20817 1.22982 0.850393 1.52148 0.551504C1.81315 0.253171 2.16732 0.104004 2.58398 0.104004H15.4173C15.834 0.104004 16.1882 0.253171 16.4798 0.551504C16.7715 0.850393 16.9173 1.20817 16.9173 1.62484V10.2707C16.9173 10.6873 16.7715 11.0415 16.4798 11.3332C16.1882 11.6248 15.834 11.7707 15.4173 11.7707H2.58398ZM2.58398 10.5207H15.4173C15.4868 10.5207 15.5459 10.4965 15.5948 10.4482C15.6431 10.3993 15.6673 10.3401 15.6673 10.2707V1.62484C15.6673 1.5415 15.6431 1.47539 15.5948 1.4265C15.5459 1.37817 15.4868 1.354 15.4173 1.354H2.58398C2.51454 1.354 2.45565 1.37817 2.40732 1.4265C2.35843 1.47539 2.33398 1.5415 2.33398 1.62484V10.2707C2.33398 10.3401 2.35843 10.3993 2.40732 10.4482C2.45565 10.4965 2.51454 10.5207 2.58398 10.5207ZM0.771484 13.854C0.604818 13.854 0.458984 13.7951 0.333984 13.6773C0.208984 13.559 0.146484 13.4096 0.146484 13.229C0.146484 13.0484 0.208984 12.8993 0.333984 12.7815C0.458984 12.6632 0.604818 12.604 0.771484 12.604H17.2298C17.3965 12.604 17.5423 12.6632 17.6673 12.7815C17.7923 12.8993 17.8548 13.0484 17.8548 13.229C17.8548 13.4096 17.7923 13.559 17.6673 13.6773C17.5423 13.7951 17.3965 13.854 17.2298 13.854H0.771484Z" fill="#4E62EE"/>
</svg>
