<svg width="65" height="64" viewBox="0 0 65 64" fill="none" xmlns="http://www.w3.org/2000/svg">
<rect x="0.5" width="64" height="64" rx="32" fill="white"/>
<mask id="mask0_959_13463" style="mask-type:alpha" maskUnits="userSpaceOnUse" x="12" y="12" width="41" height="40">
<rect x="12.5" y="12" width="40" height="40" fill="#D9D9D9"/>
</mask>
<g mask="url(#mask0_959_13463)">
<path d="M32.5 20.666C32.1389 20.666 31.8406 20.5477 31.605 20.311C31.3684 20.0755 31.25 19.7771 31.25 19.416V15.791C31.25 15.4299 31.3684 15.131 31.605 14.8943C31.8406 14.6588 32.1389 14.541 32.5 14.541C32.8611 14.541 33.16 14.6588 33.3967 14.8943C33.6322 15.131 33.75 15.4299 33.75 15.791V19.416C33.75 19.7771 33.6322 20.0755 33.3967 20.311C33.16 20.5477 32.8611 20.666 32.5 20.666ZM40.5 23.9993C40.2778 23.7771 40.1667 23.4927 40.1667 23.146C40.1667 22.7982 40.2778 22.4993 40.5 22.2493L43.0417 19.666C43.2917 19.3882 43.5906 19.2493 43.9384 19.2493C44.285 19.2493 44.5834 19.3882 44.8334 19.666C45.0834 19.8882 45.2084 20.1727 45.2084 20.5193C45.2084 20.8671 45.0834 21.166 44.8334 21.416L42.25 23.9993C42 24.2493 41.7084 24.3743 41.375 24.3743C41.0417 24.3743 40.75 24.2493 40.5 23.9993ZM45.0834 33.2493C44.7222 33.2493 44.4239 33.131 44.1884 32.8943C43.9517 32.6588 43.8334 32.3605 43.8334 31.9993C43.8334 31.6382 43.9517 31.3393 44.1884 31.1027C44.4239 30.8671 44.7222 30.7493 45.0834 30.7493H48.7084C49.0695 30.7493 49.3684 30.8671 49.605 31.1027C49.8406 31.3393 49.9584 31.6382 49.9584 31.9993C49.9584 32.3605 49.8406 32.6588 49.605 32.8943C49.3684 33.131 49.0695 33.2493 48.7084 33.2493H45.0834ZM32.5 49.4577C32.1389 49.4577 31.8406 49.3399 31.605 49.1044C31.3684 48.8677 31.25 48.5688 31.25 48.2077V44.5827C31.25 44.2216 31.3684 43.9232 31.605 43.6877C31.8406 43.451 32.1389 43.3327 32.5 43.3327C32.8611 43.3327 33.16 43.451 33.3967 43.6877C33.6322 43.9232 33.75 44.2216 33.75 44.5827V48.2077C33.75 48.5688 33.6322 48.8677 33.3967 49.1044C33.16 49.3399 32.8611 49.4577 32.5 49.4577ZM22.75 23.9993L20.1667 21.4577C19.8889 21.2077 19.75 20.9021 19.75 20.541C19.75 20.1799 19.8889 19.8882 20.1667 19.666C20.3889 19.416 20.6806 19.291 21.0417 19.291C21.4028 19.291 21.6945 19.416 21.9167 19.666L24.5417 22.2493C24.7639 22.4993 24.875 22.7982 24.875 23.146C24.875 23.4927 24.7639 23.7771 24.5417 23.9993C24.2917 24.2216 24 24.3327 23.6667 24.3327C23.3334 24.3327 23.0278 24.2216 22.75 23.9993ZM43.0834 44.3327L40.5 41.7493C40.2778 41.4993 40.1667 41.2005 40.1667 40.8527C40.1667 40.506 40.2778 40.2216 40.5 39.9993C40.7222 39.7771 41.0067 39.666 41.3534 39.666C41.7011 39.666 42 39.7771 42.25 39.9993L44.8334 42.5827C45.0834 42.8049 45.2084 43.0899 45.2084 43.4377C45.2084 43.7843 45.0834 44.0827 44.8334 44.3327C44.5834 44.6105 44.285 44.7493 43.9384 44.7493C43.5906 44.7493 43.3056 44.6105 43.0834 44.3327ZM16.2917 33.2493C15.9306 33.2493 15.6322 33.131 15.3967 32.8943C15.16 32.6588 15.0417 32.3605 15.0417 31.9993C15.0417 31.6382 15.16 31.3393 15.3967 31.1027C15.6322 30.8671 15.9306 30.7493 16.2917 30.7493H19.9167C20.2778 30.7493 20.5767 30.8671 20.8134 31.1027C21.0489 31.3393 21.1667 31.6382 21.1667 31.9993C21.1667 32.3605 21.0489 32.6588 20.8134 32.8943C20.5767 33.131 20.2778 33.2493 19.9167 33.2493H16.2917ZM20.1667 44.3327C19.9445 44.1105 19.8267 43.8255 19.8134 43.4777C19.7989 43.131 19.9167 42.8327 20.1667 42.5827L22.75 39.9993C22.9722 39.7771 23.25 39.666 23.5834 39.666C23.9167 39.666 24.2222 39.7771 24.5 39.9993C24.75 40.2771 24.875 40.5827 24.875 40.916C24.875 41.2493 24.75 41.541 24.5 41.791L21.9584 44.3327C21.6806 44.6105 21.3684 44.7493 21.0217 44.7493C20.6739 44.7493 20.3889 44.6105 20.1667 44.3327ZM32.5 41.166C29.9445 41.166 27.7778 40.2771 26 38.4993C24.2222 36.7216 23.3334 34.5549 23.3334 31.9993C23.3334 29.4438 24.2222 27.2771 26 25.4993C27.7778 23.7216 29.9445 22.8327 32.5 22.8327C35.0556 22.8327 37.2222 23.7216 39 25.4993C40.7778 27.2771 41.6667 29.4438 41.6667 31.9993C41.6667 34.5549 40.7778 36.7216 39 38.4993C37.2222 40.2771 35.0556 41.166 32.5 41.166ZM32.5 38.666C34.3334 38.666 35.9028 38.0132 37.2084 36.7077C38.5139 35.4021 39.1667 33.8327 39.1667 31.9993C39.1667 30.166 38.5139 28.5966 37.2084 27.291C35.9028 25.9855 34.3334 25.3327 32.5 25.3327C30.6667 25.3327 29.0972 25.9855 27.7917 27.291C26.4861 28.5966 25.8334 30.166 25.8334 31.9993C25.8334 33.8327 26.4861 35.4021 27.7917 36.7077C29.0972 38.0132 30.6667 38.666 32.5 38.666Z" fill="#4E62EE"/>
</g>
</svg>
