<svg width="20" height="20" viewBox="0 0 20 20" fill="none" xmlns="http://www.w3.org/2000/svg">
<mask id="mask0_694_2836" style="mask-type:alpha" maskUnits="userSpaceOnUse" x="0" y="0" width="20" height="20">
<rect width="20" height="20" fill="#D9D9D9"/>
</mask>
<g mask="url(#mask0_694_2836)">
<path d="M17.9168 5.25V14.75C17.9168 15.1667 17.771 15.5208 17.4793 15.8125C17.1877 16.1042 16.8335 16.25 16.4168 16.25H3.5835C3.16683 16.25 2.81266 16.1042 2.521 15.8125C2.22933 15.5208 2.0835 15.1667 2.0835 14.75V5.25C2.0835 4.83333 2.22933 4.47917 2.521 4.1875C2.81266 3.89583 3.16683 3.75 3.5835 3.75H16.4168C16.8335 3.75 17.1877 3.89583 17.4793 4.1875C17.771 4.47917 17.9168 4.83333 17.9168 5.25ZM3.3335 7H16.6668V5.25C16.6668 5.19444 16.6391 5.13889 16.5835 5.08333C16.5279 5.02778 16.4724 5 16.4168 5H3.5835C3.52794 5 3.47238 5.02778 3.41683 5.08333C3.36127 5.13889 3.3335 5.19444 3.3335 5.25V7ZM3.3335 9.66667V14.75C3.3335 14.8056 3.36127 14.8611 3.41683 14.9167C3.47238 14.9722 3.52794 15 3.5835 15H16.4168C16.4724 15 16.5279 14.9722 16.5835 14.9167C16.6391 14.8611 16.6668 14.8056 16.6668 14.75V9.66667H3.3335Z" fill="white"/>
</g>
</svg>
