<svg width="20" height="20" viewBox="0 0 20 20" fill="none" xmlns="http://www.w3.org/2000/svg">
<mask id="mask0_694_2805" style="mask-type:alpha" maskUnits="userSpaceOnUse" x="0" y="0" width="20" height="20">
<rect width="20" height="20" fill="#D9D9D9"/>
</mask>
<g mask="url(#mask0_694_2805)">
<path d="M9.99992 18.75C8.37492 18.75 6.89936 18.3472 5.57325 17.5417C4.24659 16.7361 3.20825 15.6597 2.45825 14.3125V16.1667C2.45825 16.3472 2.39936 16.4967 2.28159 16.615C2.16325 16.7328 2.01381 16.7917 1.83325 16.7917C1.6527 16.7917 1.50353 16.7328 1.38575 16.615C1.26742 16.4967 1.20825 16.3472 1.20825 16.1667V12.9583C1.20825 12.75 1.28131 12.5728 1.42742 12.4267C1.57297 12.2811 1.74992 12.2083 1.95825 12.2083H5.16659C5.34714 12.2083 5.49659 12.2675 5.61492 12.3858C5.7327 12.5036 5.79158 12.6528 5.79158 12.8333C5.79158 13.0139 5.7327 13.1633 5.61492 13.2817C5.49659 13.3994 5.34714 13.4583 5.16659 13.4583H3.41659C4.0277 14.6806 4.92353 15.6597 6.10408 16.3958C7.28464 17.1319 8.58325 17.5 9.99992 17.5C11.9305 17.5 13.6008 16.8681 15.0108 15.6042C16.4202 14.3403 17.236 12.75 17.4583 10.8333C17.486 10.6528 17.5588 10.5033 17.6766 10.385C17.7949 10.2672 17.9444 10.2083 18.1249 10.2083C18.2916 10.2083 18.4374 10.2708 18.5624 10.3958C18.6874 10.5208 18.736 10.6667 18.7083 10.8333C18.611 11.9444 18.3124 12.9828 17.8124 13.9483C17.3124 14.9133 16.6735 15.75 15.8958 16.4583C15.118 17.1667 14.2258 17.7256 13.2191 18.135C12.2119 18.545 11.1388 18.75 9.99992 18.75ZM1.87492 9.79167C1.70825 9.79167 1.56242 9.72917 1.43742 9.60417C1.31242 9.47917 1.26381 9.33333 1.29159 9.16667C1.4027 8.02778 1.70825 6.97556 2.20825 6.01C2.70825 5.045 3.34714 4.20833 4.12492 3.5C4.9027 2.79167 5.7952 2.23944 6.80242 1.84333C7.80909 1.44778 8.87492 1.25 9.99992 1.25C11.611 1.25 13.0866 1.65278 14.4266 2.45833C15.7671 3.26389 16.8055 4.35417 17.5416 5.72917V3.83333C17.5416 3.65278 17.6008 3.50333 17.7191 3.385C17.8369 3.26722 17.986 3.20833 18.1666 3.20833C18.3471 3.20833 18.4963 3.26722 18.6141 3.385C18.7324 3.50333 18.7916 3.65278 18.7916 3.83333V7.04167C18.7916 7.25 18.7188 7.42694 18.5733 7.5725C18.4271 7.71861 18.2499 7.79167 18.0416 7.79167H14.8333C14.6527 7.79167 14.5035 7.7325 14.3858 7.61417C14.2674 7.49639 14.2083 7.34722 14.2083 7.16667C14.2083 6.98611 14.2674 6.83667 14.3858 6.71833C14.5035 6.60056 14.6527 6.54167 14.8333 6.54167H16.5833C15.986 5.34722 15.0971 4.375 13.9166 3.625C12.736 2.875 11.4305 2.5 9.99992 2.5C8.09714 2.5 6.43408 3.125 5.01075 4.375C3.58686 5.625 2.76381 7.22222 2.54159 9.16667C2.51381 9.34722 2.44103 9.49639 2.32325 9.61417C2.20492 9.7325 2.05547 9.79167 1.87492 9.79167ZM9.97909 15.6667C9.82631 15.6667 9.69436 15.6111 9.58325 15.5C9.47214 15.3889 9.41658 15.2569 9.41658 15.1042V14.625C8.88881 14.5139 8.43742 14.3194 8.06242 14.0417C7.68742 13.7639 7.38881 13.3889 7.16659 12.9167C7.09714 12.7778 7.09714 12.6319 7.16659 12.4792C7.23603 12.3264 7.3402 12.2222 7.47909 12.1667C7.61797 12.1111 7.76047 12.1111 7.90659 12.1667C8.05214 12.2222 8.16658 12.3194 8.24992 12.4583C8.45825 12.8333 8.72575 13.1217 9.05242 13.3233C9.37853 13.5244 9.73603 13.625 10.1249 13.625C10.5971 13.625 11.0208 13.5069 11.3958 13.2708C11.7708 13.0347 11.9583 12.6528 11.9583 12.125C11.9583 11.6944 11.7985 11.3506 11.4791 11.0933C11.1596 10.8367 10.5555 10.5417 9.66659 10.2083C8.80547 9.90278 8.18742 9.55889 7.81242 9.17667C7.43742 8.795 7.24992 8.29167 7.24992 7.66667C7.24992 7.125 7.44103 6.63528 7.82325 6.1975C8.20492 5.76028 8.74992 5.47222 9.45825 5.33333V4.89583C9.45825 4.74306 9.51381 4.61111 9.62492 4.5C9.73603 4.38889 9.86797 4.33333 10.0208 4.33333C10.1735 4.33333 10.3055 4.38889 10.4166 4.5C10.5277 4.61111 10.5833 4.74306 10.5833 4.89583V5.33333C10.9583 5.36111 11.3091 5.47917 11.6358 5.6875C11.9619 5.89583 12.236 6.15972 12.4583 6.47917C12.5555 6.60417 12.5727 6.74639 12.5099 6.90583C12.4477 7.06583 12.3402 7.17361 12.1874 7.22917C12.0624 7.28472 11.9341 7.28833 11.8024 7.24C11.6702 7.19111 11.5485 7.10417 11.4374 6.97917C11.2846 6.78472 11.0902 6.62833 10.8541 6.51C10.618 6.39222 10.3471 6.33333 10.0416 6.33333C9.5277 6.33333 9.12159 6.45833 8.82325 6.70833C8.52436 6.95833 8.37492 7.27778 8.37492 7.66667C8.37492 8.05556 8.52075 8.36111 8.81242 8.58333C9.10408 8.80556 9.68742 9.0625 10.5624 9.35417C11.5624 9.71528 12.2327 10.1217 12.5733 10.5733C12.9133 11.0244 13.0833 11.5417 13.0833 12.125C13.0833 12.9306 12.823 13.5347 12.3024 13.9375C11.7813 14.3403 11.1944 14.5833 10.5416 14.6667V15.1042C10.5416 15.2569 10.486 15.3889 10.3749 15.5C10.2638 15.6111 10.1319 15.6667 9.97909 15.6667Z" fill="white"/>
</g>
</svg>
