<svg width="195" height="51" viewBox="0 0 195 51" fill="none" xmlns="http://www.w3.org/2000/svg">
<path d="M190.757 9.08935C191.285 8.92917 191.844 9.22779 192.004 9.75633L194.614 18.3695C194.774 18.898 194.476 19.4564 193.947 19.6165C193.419 19.7767 192.86 19.4781 192.7 18.9495L190.38 11.2934L182.724 13.6137C182.195 13.7738 181.637 13.4752 181.477 12.9467C181.316 12.4181 181.615 11.8598 182.144 11.6996L190.757 9.08935ZM100.278 49.1104L100.279 48.1104L100.278 49.1104ZM0.846308 2.61658C0.490593 2.1941 0.544728 1.56325 0.967214 1.20755C1.38969 0.851839 2.02054 0.905968 2.37624 1.32845L0.846308 2.61658ZM190.842 12.2834C190.537 12.7438 189.917 12.8697 189.457 12.5647C188.996 12.2597 188.87 11.6392 189.175 11.1788L190.842 12.2834ZM186.898 14.3088C187.24 13.8749 187.869 13.8003 188.303 14.1421C188.737 14.4839 188.811 15.1127 188.469 15.5465L186.898 14.3088ZM185.884 18.6148C185.516 19.0259 184.883 19.0601 184.472 18.6913C184.061 18.3225 184.027 17.6902 184.396 17.2791L185.884 18.6148ZM181.698 20.1155C182.09 19.7262 182.723 19.7281 183.113 20.1198C183.502 20.5115 183.5 21.1446 183.108 21.534L181.698 20.1155ZM180.201 24.2749C179.789 24.6431 179.157 24.608 178.789 24.1964C178.42 23.7849 178.456 23.1527 178.867 22.7844L180.201 24.2749ZM175.879 25.3258C176.308 24.9785 176.938 25.0451 177.285 25.4746C177.632 25.904 177.566 26.5337 177.136 26.881L175.879 25.3258ZM173.973 29.3167C173.528 29.6433 172.902 29.547 172.575 29.1016C172.249 28.6562 172.345 28.0304 172.79 27.7038L173.973 29.3167ZM169.581 29.9455C170.041 29.6396 170.662 29.7643 170.968 30.224C171.274 30.6838 171.149 31.3046 170.689 31.6106L169.581 29.9455ZM167.304 33.7574C166.831 34.0429 166.216 33.8912 165.931 33.4184C165.645 32.9456 165.797 32.3309 166.27 32.0454L167.304 33.7574ZM162.869 34.0017C163.353 33.7364 163.961 33.914 164.227 34.3984C164.492 34.8828 164.314 35.4906 163.83 35.7559L162.869 34.0017ZM160.28 37.6067C159.785 37.8521 159.185 37.6499 158.94 37.1551C158.694 36.6603 158.897 36.0603 159.391 35.8149L160.28 37.6067ZM155.846 37.487C156.35 37.2612 156.941 37.4867 157.167 37.9907C157.393 38.4948 157.168 39.0864 156.664 39.3122L155.846 37.487ZM152.989 40.8756C152.477 41.0823 151.894 40.8346 151.687 40.3224C151.481 39.8103 151.728 39.2276 152.241 39.0209L152.989 40.8756ZM148.582 40.4201C149.101 40.2321 149.675 40.5008 149.863 41.0201C150.051 41.5394 149.782 42.1127 149.263 42.3007L148.582 40.4201ZM145.49 43.5918C144.965 43.7616 144.401 43.4731 144.231 42.9476C144.061 42.422 144.35 41.8584 144.875 41.6886L145.49 43.5918ZM141.125 42.8306C141.656 42.6786 142.209 42.9857 142.361 43.5167C142.513 44.0476 142.206 44.6013 141.675 44.7533L141.125 42.8306ZM137.82 45.7898C137.285 45.9247 136.741 45.5998 136.607 45.0643C136.472 44.5287 136.797 43.9852 137.332 43.8504L137.82 45.7898ZM133.499 44.752C134.039 44.6338 134.572 44.9754 134.69 45.5148C134.808 46.0543 134.467 46.5875 133.927 46.7057L133.499 44.752ZM130.008 47.5028C129.465 47.6049 128.943 47.2476 128.841 46.7048C128.739 46.162 129.096 45.6393 129.639 45.5372L130.008 47.5028ZM125.784 46.2052C126.33 46.1186 126.842 46.4905 126.929 47.0359C127.016 47.5814 126.644 48.0938 126.098 48.1804L125.784 46.2052ZM122.157 48.7512C121.609 48.8229 121.107 48.4372 121.035 47.8896C120.963 47.342 121.349 46.8399 121.897 46.7681L122.157 48.7512ZM117.973 47.2294C118.522 47.1721 119.014 47.5709 119.071 48.1202C119.129 48.6695 118.73 49.1613 118.181 49.2186L117.973 47.2294ZM114.224 49.5811C113.673 49.6247 113.191 49.2137 113.148 48.6631C113.104 48.1125 113.515 47.6309 114.066 47.5874L114.224 49.5811ZM110.15 47.8496C110.701 47.8193 111.173 48.2417 111.203 48.7932C111.233 49.3446 110.811 49.8162 110.259 49.8466L110.15 47.8496ZM106.257 50.0198C105.705 50.0374 105.244 49.6041 105.226 49.0521C105.209 48.5001 105.642 48.0384 106.194 48.0208L106.257 50.0198ZM102.278 48.1018C102.83 48.0964 103.282 48.5398 103.288 49.092C103.293 49.6443 102.85 50.0963 102.297 50.1017L102.278 48.1018ZM98.2377 50.0896C97.6855 50.0789 97.2465 49.6227 97.2571 49.0705C97.2678 48.5183 97.7241 48.0793 98.2762 48.09L98.2377 50.0896ZM94.3064 47.9418C94.8579 47.9724 95.2802 48.4441 95.2497 48.9956C95.2191 49.547 94.7474 49.9693 94.1959 49.9388L94.3064 47.9418ZM90.1526 49.6422C89.6026 49.5919 89.1975 49.1053 89.2478 48.5554C89.298 48.0054 89.7846 47.6002 90.3346 47.6505L90.1526 49.6422ZM86.3725 47.2171C86.9204 47.2869 87.3079 47.7876 87.2381 48.3355C87.1683 48.8833 86.6676 49.2709 86.1197 49.2011L86.3725 47.2171ZM82.1109 48.6185C81.5658 48.5295 81.1961 48.0155 81.2851 47.4704C81.3741 46.9253 81.8881 46.5556 82.4332 46.6446L82.1109 48.6185ZM78.5198 45.9357C79.0615 46.0436 79.4132 46.57 79.3054 47.1117C79.1976 47.6534 78.6711 48.0051 78.1295 47.8973L78.5198 45.9357ZM74.1739 47.0396C73.6362 46.9134 73.3026 46.3752 73.4288 45.8375C73.555 45.2999 74.0932 44.9663 74.6309 45.0925L74.1739 47.0396ZM70.7635 44.116C71.2967 44.2601 71.612 44.8092 71.4679 45.3423C71.3238 45.8755 70.7748 46.1908 70.2416 46.0467L70.7635 44.116ZM66.3483 44.9252C65.8202 44.7637 65.523 44.2046 65.6845 43.6764C65.846 43.1483 66.4051 42.8511 66.9333 43.0126L66.3483 44.9252ZM63.1427 41.7863C63.6654 41.9647 63.9445 42.533 63.7662 43.0557C63.5878 43.5784 63.0195 43.8575 62.4968 43.6791L63.1427 41.7863ZM58.6896 42.3128C58.1728 42.1182 57.9116 41.5414 58.1062 41.0246C58.3008 40.5077 58.8776 40.2465 59.3944 40.4411L58.6896 42.3128ZM55.6908 38.9813C56.2015 39.1916 56.445 39.7761 56.2347 40.2867C56.0244 40.7974 55.4399 41.0409 54.9292 40.8306L55.6908 38.9813ZM51.2097 39.2332C50.7056 39.0078 50.4796 38.4163 50.705 37.9122C50.9305 37.408 51.5219 37.182 52.0261 37.4075L51.2097 39.2332ZM48.4062 35.725C48.9036 35.965 49.1123 36.5628 48.8723 37.0602C48.6323 37.5576 48.0345 37.7663 47.5371 37.5262L48.4062 35.725ZM43.9168 35.7154C43.4264 35.4614 43.2348 34.858 43.4888 34.3676C43.7428 33.8772 44.3463 33.6855 44.8367 33.9395L43.9168 35.7154ZM41.3188 32.055C41.802 32.3225 41.9768 32.931 41.7094 33.4142C41.4419 33.8974 40.8334 34.0723 40.3502 33.8048L41.3188 32.055ZM36.8382 31.7981C36.3624 31.5177 36.204 30.9047 36.4844 30.4289C36.7648 29.9531 37.3779 29.7947 37.8537 30.0751L36.8382 31.7981ZM34.4424 28.0033C34.9106 28.2962 35.0528 28.9132 34.7599 29.3814C34.467 29.8497 33.85 29.9918 33.3818 29.699L34.4424 28.0033ZM29.9818 27.5105C29.5213 27.2056 29.3951 26.5852 29.7 26.1247C30.0049 25.6641 30.6253 25.538 31.0858 25.8429L29.9818 27.5105ZM27.7853 23.5967C28.2379 23.9132 28.3482 24.5367 28.0318 24.9893C27.7153 25.4419 27.0918 25.5523 26.6392 25.2358L27.7853 23.5967ZM23.3556 22.878C22.911 22.5502 22.8163 21.9242 23.144 21.4797C23.4717 21.0351 24.0978 20.9404 24.5423 21.2681L23.3556 22.878ZM21.3599 18.8605C21.7961 19.1991 21.8753 19.8273 21.5367 20.2636C21.198 20.6999 20.5698 20.779 20.1335 20.4404L21.3599 18.8605ZM16.9781 17.9281C16.5504 17.5787 16.4868 16.9488 16.8361 16.521C17.1854 16.0932 17.8154 16.0296 18.2432 16.379L16.9781 17.9281ZM15.1825 13.8154C15.6015 14.1753 15.6493 14.8067 15.2894 15.2256C14.9295 15.6445 14.2981 15.6923 13.8792 15.3324L15.1825 13.8154ZM10.8354 12.6492C10.4258 12.2787 10.3942 11.6463 10.7647 11.2367C11.1352 10.8272 11.7676 10.7955 12.1772 11.1661L10.8354 12.6492ZM9.26728 8.4628C9.6668 8.84411 9.68155 9.4771 9.30024 9.87663C8.91891 10.2761 8.28593 10.2909 7.88641 9.90959L9.26728 8.4628ZM5.00333 7.07739C4.61523 6.68447 4.61912 6.05132 5.01203 5.6632C5.40496 5.27509 6.03811 5.27899 6.42623 5.67191L5.00333 7.07739ZM3.65898 2.77005C4.03205 3.17726 4.00438 3.80983 3.59716 4.1829C3.18994 4.55599 2.55738 4.52831 2.1843 4.1211L3.65898 2.77005ZM191.047 10.0464C191.929 10.518 191.928 10.5181 191.928 10.5182C191.928 10.5182 191.928 10.5183 191.928 10.5183C191.928 10.5184 191.928 10.5186 191.928 10.5187C191.928 10.519 191.928 10.5193 191.928 10.5196C191.927 10.5203 191.927 10.5212 191.926 10.5222C191.925 10.5242 191.924 10.5268 191.922 10.5299C191.919 10.5363 191.914 10.545 191.908 10.5561C191.896 10.5781 191.878 10.6095 191.856 10.6499C191.81 10.7306 191.743 10.8474 191.654 10.9977C191.475 11.2983 191.207 11.7333 190.842 12.2834L189.175 11.1788C189.521 10.6569 189.772 10.2495 189.935 9.97576C190.016 9.8389 190.075 9.73545 190.113 9.66782C190.132 9.634 190.146 9.60913 190.155 9.59352C190.159 9.58571 190.162 9.58022 190.164 9.57707C190.165 9.5755 190.165 9.57452 190.165 9.57413C190.165 9.57393 190.165 9.57388 190.165 9.57398C190.165 9.57404 190.165 9.57412 190.165 9.57425C190.165 9.57431 190.165 9.57438 190.165 9.57446C190.165 9.5745 190.165 9.57457 190.165 9.57459C190.165 9.57466 190.165 9.57473 191.047 10.0464ZM188.469 15.5465C187.737 16.4766 186.878 17.5076 185.884 18.6148L184.396 17.2791C185.36 16.2049 186.191 15.2066 186.898 14.3088L188.469 15.5465ZM183.108 21.534C182.216 22.4212 181.248 23.3381 180.201 24.2749L178.867 22.7844C179.887 21.8715 180.83 20.9787 181.698 20.1155L183.108 21.534ZM177.136 26.881C176.14 27.6869 175.086 28.5007 173.973 29.3167L172.79 27.7038C173.877 26.9067 174.906 26.1122 175.879 25.3258L177.136 26.881ZM170.689 31.6106C169.609 32.3298 168.48 33.0467 167.304 33.7574L166.27 32.0454C167.421 31.3499 168.525 30.6487 169.581 29.9455L170.689 31.6106ZM163.83 35.7559C162.687 36.3816 161.504 36.9995 160.28 37.6067L159.391 35.8149C160.591 35.2199 161.75 34.6145 162.869 34.0017L163.83 35.7559ZM156.664 39.3122C155.474 39.8451 154.249 40.3669 152.989 40.8756L152.241 39.0209C153.478 38.5217 154.679 38.0097 155.846 37.487L156.664 39.3122ZM149.263 42.3007C148.036 42.7445 146.779 43.1755 145.49 43.5918L144.875 41.6886C146.142 41.2794 147.378 40.856 148.582 40.4201L149.263 42.3007ZM141.675 44.7533C140.418 45.1133 139.134 45.4592 137.82 45.7898L137.332 43.8504C138.624 43.525 139.888 43.1846 141.125 42.8306L141.675 44.7533ZM133.927 46.7057C132.646 46.9863 131.34 47.2523 130.008 47.5028L129.639 45.5372C130.951 45.2904 132.238 45.0283 133.499 44.752L133.927 46.7057ZM126.098 48.1804C124.807 48.3855 123.493 48.5761 122.157 48.7512L121.897 46.7681C123.216 46.5954 124.511 46.4074 125.784 46.2052L126.098 48.1804ZM118.181 49.2186C116.882 49.3541 115.563 49.4752 114.224 49.5811L114.066 47.5874C115.389 47.4827 116.691 47.3631 117.973 47.2294L118.181 49.2186ZM110.259 49.8466C108.945 49.9189 107.611 49.9769 106.257 50.0198L106.194 48.0208C107.532 47.9784 108.85 47.9211 110.15 47.8496L110.259 49.8466ZM102.297 50.1017C101.628 50.1083 100.955 50.1112 100.277 50.1104L100.279 48.1104C100.95 48.1112 101.616 48.1083 102.278 48.1018L102.297 50.1017ZM100.277 50.1104C99.5945 50.1096 98.9148 50.1027 98.2377 50.0896L98.2762 48.09C98.9413 48.1028 99.6089 48.1097 100.279 48.1104L100.277 50.1104ZM94.1959 49.9388C92.837 49.8636 91.4891 49.7643 90.1526 49.6422L90.3346 47.6505C91.6476 47.7705 92.9716 47.868 94.3064 47.9418L94.1959 49.9388ZM86.1197 49.2011C84.7711 49.0293 83.4347 48.8346 82.1109 48.6185L82.4332 46.6446C83.7342 46.857 85.0474 47.0483 86.3725 47.2171L86.1197 49.2011ZM78.1295 47.8973C76.7973 47.6321 75.4787 47.3458 74.1739 47.0396L74.6309 45.0925C75.9139 45.3936 77.2103 45.6751 78.5198 45.9357L78.1295 47.8973ZM70.2416 46.0467C68.9287 45.6918 67.6309 45.3174 66.3483 44.9252L66.9333 43.0126C68.1953 43.3986 69.4721 43.7669 70.7635 44.116L70.2416 46.0467ZM62.4968 43.6791C61.2111 43.2404 59.9419 42.7844 58.6896 42.3128L59.3944 40.4411C60.6276 40.9055 61.8771 41.3544 63.1427 41.7863L62.4968 43.6791ZM54.9292 40.8306C53.6708 40.3124 52.4309 39.7793 51.2097 39.2332L52.0261 37.4075C53.2295 37.9456 54.4512 38.4708 55.6908 38.9813L54.9292 40.8306ZM47.5371 37.5262C46.3095 36.9339 45.1026 36.3296 43.9168 35.7154L44.8367 33.9395C46.006 34.5452 47.196 35.141 48.4062 35.725L47.5371 37.5262ZM40.3502 33.8048C39.1558 33.1437 37.9849 32.474 36.8382 31.7981L37.8537 30.0751C38.9853 30.742 40.1405 31.4028 41.3188 32.055L40.3502 33.8048ZM33.3818 29.699C32.2207 28.9727 31.0872 28.2423 29.9818 27.5105L31.0858 25.8429C32.1772 26.5654 33.2963 27.2865 34.4424 28.0033L33.3818 29.699ZM26.6392 25.2358C25.511 24.447 24.4162 23.6599 23.3556 22.878L24.5423 21.2681C25.5899 22.0404 26.6712 22.8178 27.7853 23.5967L26.6392 25.2358ZM20.1335 20.4404C19.0386 19.5905 17.9865 18.7515 16.9781 17.9281L18.2432 16.379C19.2391 17.1923 20.2784 18.021 21.3599 18.8605L20.1335 20.4404ZM13.8792 15.3324C12.8016 14.4066 11.7864 13.5096 10.8354 12.6492L12.1772 11.1661C13.116 12.0154 14.1183 12.9011 15.1825 13.8154L13.8792 15.3324ZM7.88641 9.90959C6.80524 8.87768 5.84288 7.92733 5.00333 7.07739L6.42623 5.67191C7.25258 6.5085 8.20095 7.44505 9.26728 8.4628L7.88641 9.90959ZM2.1843 4.1211C1.74645 3.64319 1.41402 3.26951 1.19004 3.01411C1.07804 2.88641 0.993155 2.78826 0.935736 2.72142C0.907034 2.68801 0.885197 2.66241 0.870274 2.64487C0.862812 2.63609 0.857079 2.62933 0.853077 2.6246C0.851089 2.62225 0.849518 2.62039 0.848389 2.61905C0.847824 2.61838 0.847374 2.61785 0.847016 2.61743C0.846851 2.61723 0.846704 2.61706 0.846579 2.61691C0.846515 2.61683 0.846461 2.61678 0.846423 2.61672C0.846401 2.6167 0.846369 2.61666 0.846359 2.61665C0.846327 2.61661 0.846308 2.61658 1.61128 1.97252C2.37624 1.32845 2.37622 1.32843 2.3762 1.3284C2.3762 1.3284 2.37618 1.32838 2.37617 1.32836C2.37614 1.32834 2.37614 1.32832 2.37614 1.32832C2.37611 1.3283 2.37614 1.32832 2.37618 1.32838C2.37626 1.32848 2.37646 1.32871 2.37676 1.32907C2.37737 1.32979 2.37841 1.33101 2.37989 1.33275C2.38282 1.33622 2.38749 1.34174 2.39388 1.34926C2.40667 1.3643 2.42635 1.38735 2.45287 1.41823C2.5059 1.47997 2.5863 1.57295 2.69371 1.69542C2.90851 1.94035 3.23127 2.30321 3.65898 2.77005L2.1843 4.1211Z" fill="#6B7EFD"/>
</svg>
