<svg width="20" height="20" viewBox="0 0 20 20" fill="none" xmlns="http://www.w3.org/2000/svg">
<mask id="mask0_1022_8032" style="mask-type:alpha" maskUnits="userSpaceOnUse" x="0" y="0" width="20" height="20">
<rect width="20" height="20" fill="#D9D9D9"/>
</mask>
<g mask="url(#mask0_1022_8032)">
<path d="M6.08333 17.084C5.66667 17.084 5.3125 16.9382 5.02083 16.6465C4.72917 16.3548 4.58333 16.0007 4.58333 15.584V5.00065H4.375C4.19444 5.00065 4.04528 4.94148 3.9275 4.82315C3.80917 4.70537 3.75 4.55621 3.75 4.37565C3.75 4.1951 3.80917 4.04593 3.9275 3.92815C4.04528 3.80982 4.19444 3.75065 4.375 3.75065H7.5C7.5 3.54232 7.57278 3.36871 7.71833 3.22982C7.86444 3.09093 8.04167 3.02148 8.25 3.02148H11.75C11.9583 3.02148 12.1356 3.09093 12.2817 3.22982C12.4272 3.36871 12.5 3.54232 12.5 3.75065H15.625C15.8056 3.75065 15.955 3.80982 16.0733 3.92815C16.1911 4.04593 16.25 4.1951 16.25 4.37565C16.25 4.55621 16.1911 4.70537 16.0733 4.82315C15.955 4.94148 15.8056 5.00065 15.625 5.00065H15.4167V15.584C15.4167 16.0007 15.2708 16.3548 14.9792 16.6465C14.6875 16.9382 14.3333 17.084 13.9167 17.084H6.08333ZM5.83333 5.00065V15.584C5.83333 15.6534 5.85778 15.7126 5.90667 15.7615C5.955 15.8098 6.01389 15.834 6.08333 15.834H13.9167C13.9861 15.834 14.0453 15.8098 14.0942 15.7615C14.1425 15.7126 14.1667 15.6534 14.1667 15.584V5.00065H5.83333ZM7.83333 13.5423C7.83333 13.7229 7.8925 13.8723 8.01083 13.9907C8.12861 14.1084 8.27778 14.1673 8.45833 14.1673C8.63889 14.1673 8.78833 14.1084 8.90667 13.9907C9.02444 13.8723 9.08333 13.7229 9.08333 13.5423V7.29232C9.08333 7.11176 9.02444 6.96232 8.90667 6.84398C8.78833 6.72621 8.63889 6.66732 8.45833 6.66732C8.27778 6.66732 8.12861 6.72621 8.01083 6.84398C7.8925 6.96232 7.83333 7.11176 7.83333 7.29232V13.5423ZM10.9167 13.5423C10.9167 13.7229 10.9756 13.8723 11.0933 13.9907C11.2117 14.1084 11.3611 14.1673 11.5417 14.1673C11.7222 14.1673 11.8717 14.1084 11.99 13.9907C12.1078 13.8723 12.1667 13.7229 12.1667 13.5423V7.29232C12.1667 7.11176 12.1078 6.96232 11.99 6.84398C11.8717 6.72621 11.7222 6.66732 11.5417 6.66732C11.3611 6.66732 11.2117 6.72621 11.0933 6.84398C10.9756 6.96232 10.9167 7.11176 10.9167 7.29232V13.5423ZM5.83333 5.00065V15.584C5.83333 15.6534 5.85778 15.7126 5.90667 15.7615C5.955 15.8098 6.01389 15.834 6.08333 15.834H5.83333V5.00065Z" fill="#F9705A"/>
</g>
</svg>
