<svg width="64" height="64" viewBox="0 0 64 64" fill="none" xmlns="http://www.w3.org/2000/svg">
<rect width="64" height="64" rx="32" fill="white"/>
<mask id="mask0_959_13444" style="mask-type:alpha" maskUnits="userSpaceOnUse" x="12" y="12" width="40" height="40">
<rect x="12" y="12" width="40" height="40" fill="#D9D9D9"/>
</mask>
<g mask="url(#mask0_959_13444)">
<path d="M20.8462 46.1666C20.0043 46.1666 19.2917 45.8749 18.7084 45.2916C18.125 44.7083 17.8334 43.9956 17.8334 43.1537V20.8462C17.8334 20.0043 18.125 19.2917 18.7084 18.7083C19.2917 18.125 20.0043 17.8333 20.8462 17.8333H28.2629C28.3953 16.8974 28.8088 16.1079 29.5033 15.4647C30.1977 14.8216 31.0299 14.5 32 14.5C32.9701 14.5 33.8023 14.8216 34.4968 15.4647C35.1912 16.1079 35.6047 16.8974 35.7371 17.8333H43.1538C43.9957 17.8333 44.7083 18.125 45.2916 18.7083C45.875 19.2917 46.1666 20.0043 46.1666 20.8462V43.1537C46.1666 43.9956 45.875 44.7083 45.2916 45.2916C44.7083 45.8749 43.9957 46.1666 43.1538 46.1666H20.8462ZM32 19.2435C32.3611 19.2435 32.6597 19.1255 32.8958 18.8894C33.1319 18.6533 33.25 18.3547 33.25 17.9935C33.25 17.6324 33.1319 17.3338 32.8958 17.0977C32.6597 16.8616 32.3611 16.7435 32 16.7435C31.6389 16.7435 31.3403 16.8616 31.1042 17.0977C30.8681 17.3338 30.75 17.6324 30.75 17.9935C30.75 18.3547 30.8681 18.6533 31.1042 18.8894C31.3403 19.1255 31.6389 19.2435 32 19.2435ZM20.3333 42.0705C21.8333 40.5983 23.5764 39.4386 25.5625 38.5913C27.5486 37.7441 29.6944 37.3205 32 37.3205C34.3056 37.3205 36.4514 37.7441 38.4375 38.5913C40.4236 39.4386 42.1667 40.5983 43.6667 42.0705V20.8462C43.6667 20.7179 43.6133 20.6004 43.5064 20.4935C43.3996 20.3867 43.282 20.3333 43.1538 20.3333H20.8462C20.718 20.3333 20.6004 20.3867 20.4936 20.4935C20.3867 20.6004 20.3333 20.7179 20.3333 20.8462V42.0705ZM32 33.7308C33.5043 33.7308 34.7831 33.204 35.8365 32.1506C36.8899 31.0972 37.4166 29.8184 37.4166 28.3141C37.4166 26.8098 36.8899 25.531 35.8365 24.4776C34.7831 23.4242 33.5043 22.8975 32 22.8975C30.4957 22.8975 29.2169 23.4242 28.1635 24.4776C27.1101 25.531 26.5834 26.8098 26.5834 28.3141C26.5834 29.8184 27.1101 31.0972 28.1635 32.1506C29.2169 33.204 30.4957 33.7308 32 33.7308ZM22.7371 43.6666H41.2629V43.3141C39.9466 42.1388 38.5027 41.2628 36.9311 40.6858C35.3595 40.1089 33.7158 39.8204 32 39.8204C30.3056 39.8204 28.6699 40.1062 27.0929 40.6778C25.516 41.2494 24.064 42.1175 22.7371 43.282V43.6666ZM32 31.2308C31.1987 31.2308 30.5123 30.945 29.9407 30.3734C29.3691 29.8018 29.0833 29.1154 29.0833 28.3141C29.0833 27.5128 29.3691 26.8264 29.9407 26.2548C30.5123 25.6832 31.1987 25.3974 32 25.3974C32.8013 25.3974 33.4877 25.6832 34.0593 26.2548C34.6309 26.8264 34.9167 27.5128 34.9167 28.3141C34.9167 29.1154 34.6309 29.8018 34.0593 30.3734C33.4877 30.945 32.8013 31.2308 32 31.2308Z" fill="#4E62EE"/>
</g>
</svg>
