<svg width="52" height="52" viewBox="0 0 52 52" fill="none" xmlns="http://www.w3.org/2000/svg">
<mask id="mask0_30_6363" style="mask-type:alpha" maskUnits="userSpaceOnUse" x="0" y="0" width="52" height="52">
<rect width="52" height="52" fill="#D9D9D9"/>
</mask>
<g mask="url(#mask0_30_6363)">
<path d="M18.9583 48.5876C17.2972 48.5876 15.808 48.1542 14.4907 47.2876C13.1719 46.4209 12.1514 45.2292 11.4292 43.7126C10.8514 44.4709 10.1205 45.0573 9.2365 45.4719C8.35106 45.8879 7.43889 46.0959 6.5 46.0959C4.65833 46.0959 3.11494 45.464 1.86983 44.2001C0.623278 42.9362 0 41.4015 0 39.5959C0 38.0431 0.505556 36.6435 1.51667 35.3969C2.52778 34.1518 3.80972 33.439 5.3625 33.2584C4.85694 32.5362 4.46911 31.7685 4.199 30.9552C3.92744 30.1435 3.79167 29.2862 3.79167 28.3834C3.79167 26.939 4.16217 25.5848 4.90317 24.3209C5.64272 23.057 6.68056 22.0278 8.01667 21.2334C8.19722 21.8834 8.44061 22.5782 8.74683 23.3177C9.0545 24.0587 9.40694 24.7001 9.80417 25.2417C9.29861 25.639 8.90139 26.1171 8.6125 26.6761C8.32361 27.2365 8.17917 27.8237 8.17917 28.4376C8.17917 30.4598 9.00972 31.7056 10.6708 32.1751C12.3319 32.6445 13.9028 33.0237 15.3833 33.3126L16.4125 35.0459C16.0153 36.2015 15.6722 37.1858 15.3833 37.9991C15.0944 38.8108 14.95 39.5417 14.95 40.1917C14.95 41.2751 15.3386 42.2234 16.1157 43.0366C16.8913 43.8484 17.8389 44.2542 18.9583 44.2542C20.1139 44.2542 21.0983 43.8115 21.9115 42.9261C22.7233 42.0421 23.4087 40.9414 23.9677 39.6241C24.5281 38.3053 24.9889 36.9056 25.35 35.4251C25.7111 33.9445 26 32.6084 26.2167 31.4167C26.325 30.8028 26.6319 30.3153 27.1375 29.9542C27.6431 29.5931 28.1847 29.5028 28.7625 29.6834C29.3764 29.864 29.8372 30.2337 30.1448 30.7927C30.4511 31.3532 30.5319 31.9403 30.3875 32.5542C30.0625 34.2153 29.6472 35.9848 29.1417 37.8626C28.6361 39.7403 27.9594 41.4737 27.1115 43.0626C26.2622 44.6515 25.1788 45.9695 23.8615 47.0167C22.5427 48.064 20.9083 48.5876 18.9583 48.5876ZM23.4542 31.6334C22.9847 32.1028 22.4163 32.3101 21.749 32.2552C21.0802 32.2018 20.4931 31.9403 19.9875 31.4709C17.2069 28.9431 14.9861 26.6501 13.325 24.5917C11.6639 22.5334 10.8333 20.3126 10.8333 17.9292C10.8333 15.582 11.6372 13.6046 13.2448 11.9969C14.8511 10.3907 16.8278 9.58757 19.175 9.58757C19.3194 9.58757 19.4458 9.59623 19.5542 9.61356C19.6625 9.63234 19.7889 9.64173 19.9333 9.64173C19.7889 9.28062 19.6806 8.91951 19.6083 8.5584C19.5361 8.19729 19.5 7.81812 19.5 7.4209C19.5 5.61534 20.1319 4.08062 21.3958 2.81673C22.6597 1.55284 24.1944 0.920898 26 0.920898C27.8056 0.920898 29.3403 1.55284 30.6042 2.81673C31.8681 4.08062 32.5 5.61534 32.5 7.4209C32.5 7.81812 32.4639 8.1879 32.3917 8.53023C32.3194 8.87401 32.2111 9.22645 32.0667 9.58757H32.825C34.9917 9.58757 36.8333 10.2823 38.35 11.6719C39.8667 13.0629 40.7695 14.7876 41.0583 16.8459C40.4083 16.7376 39.6774 16.6834 38.8657 16.6834C38.0524 16.6834 37.3028 16.7195 36.6167 16.7917C36.3639 15.9612 35.9038 15.2751 35.2365 14.7334C34.5677 14.1917 33.7639 13.9209 32.825 13.9209C31.5611 13.9209 30.5774 14.2914 29.874 15.0324C29.1691 15.772 28.2028 16.8459 26.975 18.2542H24.9708C23.7069 16.7737 22.7233 15.681 22.0198 14.9761C21.3149 14.2726 20.3667 13.9209 19.175 13.9209C18.0194 13.9209 17.0625 14.3001 16.3042 15.0584C15.5458 15.8167 15.1667 16.7737 15.1667 17.9292C15.1667 19.4459 15.8795 21.0254 17.3052 22.6677C18.7323 24.3115 20.6556 26.2348 23.075 28.4376C23.5806 28.8709 23.8781 29.4032 23.9677 30.0344C24.0587 30.6671 23.8875 31.2001 23.4542 31.6334ZM32.9875 48.5876C32.1931 48.5876 31.408 48.4792 30.6323 48.2626C29.8552 48.0459 29.1056 47.7028 28.3833 47.2334C28.7806 46.7278 29.1778 46.132 29.575 45.4459C29.9722 44.7598 30.3333 44.1278 30.6583 43.5501C31.0556 43.8028 31.4528 43.9834 31.85 44.0917C32.2472 44.2001 32.6444 44.2542 33.0417 44.2542C34.1972 44.2542 35.1628 43.8484 35.9385 43.0366C36.7156 42.2234 37.1042 41.257 37.1042 40.1376C37.1042 39.4515 36.9597 38.7112 36.6708 37.9167C36.3819 37.1223 36.0389 36.1473 35.6417 34.9917L36.6708 33.2584C38.1875 32.9695 39.7677 32.5903 41.4115 32.1209C43.0538 31.6515 43.875 30.4056 43.875 28.3834C43.875 26.939 43.3427 25.8917 42.2782 25.2417C41.2122 24.5917 40.0472 24.2667 38.7833 24.2667C37.5194 24.2667 36.0569 24.4834 34.3958 24.9167C32.7347 25.3501 30.8389 25.9098 28.7083 26.5959C28.0944 26.7765 27.4986 26.749 26.9208 26.5136C26.3431 26.2796 25.9639 25.8556 25.7833 25.2417C25.6028 24.6278 25.6931 24.0407 26.0542 23.4802C26.4153 22.9212 26.9028 22.5515 27.5167 22.3709C29.7917 21.6487 31.85 21.0615 33.6917 20.6094C35.5333 20.1587 37.2486 19.9334 38.8375 19.9334C41.3292 19.9334 43.5139 20.6737 45.3917 22.1542C47.2694 23.6348 48.2083 25.7112 48.2083 28.3834C48.2083 29.2862 48.0726 30.1435 47.801 30.9552C47.5309 31.7685 47.1431 32.5362 46.6375 33.2584C48.1903 33.439 49.4722 34.1518 50.4833 35.3969C51.4944 36.6435 52 38.0431 52 39.5959C52 41.4015 51.3774 42.9362 50.1323 44.2001C48.8858 45.464 47.3417 46.0959 45.5 46.0959C44.5611 46.0959 43.6497 45.8879 42.7657 45.4719C41.8802 45.0573 41.1486 44.4709 40.5708 43.7126C39.8486 45.2292 38.8281 46.4209 37.5093 47.2876C36.192 48.1542 34.6847 48.5876 32.9875 48.5876Z" fill="#4E62EE"/>
<path d="M32.9875 48.5875C32.1931 48.5875 31.408 48.4792 30.6323 48.2625C29.8552 48.0459 29.1056 47.7028 28.3833 47.2333C28.7806 46.7278 29.1778 46.132 29.575 45.4459C29.9722 44.7597 30.3333 44.1278 30.6583 43.55C31.0556 43.8028 31.4528 43.9834 31.85 44.0917C32.2472 44.2 32.6444 44.2542 33.0417 44.2542C34.1972 44.2542 35.1628 43.8483 35.9385 43.0365C36.7156 42.2233 37.1042 41.257 37.1042 40.1375C37.1042 39.4514 36.9597 38.7111 36.6708 37.9167C36.3819 37.1222 36.0389 36.1472 35.6417 34.9917L36.6708 33.2583C38.1875 32.9695 39.7677 32.5903 41.4115 32.1208C43.0538 31.6514 43.875 30.4056 43.875 28.3834C43.875 26.9389 43.3427 25.8917 42.2782 25.2417C41.2122 24.5917 40.0472 24.2667 38.7833 24.2667C37.5194 24.2667 36.0569 24.4833 34.3958 24.9167C32.7347 25.35 30.8389 25.9097 28.7083 26.5958C28.0944 26.7764 27.4986 26.749 26.9208 26.5135C26.3431 26.2795 25.9639 25.8556 25.7833 25.2417C25.6028 24.6278 25.6931 24.0406 26.0542 23.4802C26.4153 22.9212 26.9028 22.5514 27.5167 22.3708C29.7917 21.6486 31.85 21.0615 33.6917 20.6094C35.5333 20.1587 37.2486 19.9333 38.8375 19.9333C41.3292 19.9333 43.5139 20.6736 45.3917 22.1542C47.2694 23.6347 48.2083 25.7111 48.2083 28.3834C48.2083 29.2861 48.0726 30.1434 47.801 30.9552C47.5309 31.7684 47.1431 32.5361 46.6375 33.2583C48.1903 33.4389 49.4722 34.1517 50.4833 35.3968C51.4944 36.6434 52 38.0431 52 39.5958C52 41.4014 51.3774 42.9361 50.1323 44.2C48.8858 45.4639 47.3417 46.0958 45.5 46.0958C44.5611 46.0958 43.6497 45.8878 42.7657 45.4718C41.8802 45.0573 41.1486 44.4708 40.5708 43.7125C39.8486 45.2292 38.8281 46.4209 37.5093 47.2875C36.192 48.1542 34.6847 48.5875 32.9875 48.5875Z" fill="#3CCD87"/>
</g>
</svg>
