<svg width="20" height="20" viewBox="0 0 20 20" fill="none" xmlns="http://www.w3.org/2000/svg">
<mask id="mask0_1036_7647" style="mask-type:alpha" maskUnits="userSpaceOnUse" x="0" y="0" width="20" height="20">
<rect width="20" height="20" fill="#D9D9D9"/>
</mask>
<g mask="url(#mask0_1036_7647)">
<path d="M10 12.7077C9.90278 12.7077 9.80917 12.6905 9.71917 12.656C9.62861 12.621 9.54861 12.5618 9.47917 12.4785L6.875 9.89518C6.76389 9.78407 6.70833 9.63824 6.70833 9.45768C6.70833 9.27713 6.76389 9.13129 6.875 9.02018C7 8.89518 7.14917 8.82907 7.3225 8.82185C7.49639 8.81518 7.64583 8.87435 7.77083 8.99935L9.375 10.6035V4.22852C9.375 4.04796 9.43417 3.89852 9.5525 3.78018C9.67028 3.6624 9.81944 3.60352 10 3.60352C10.1806 3.60352 10.33 3.6624 10.4483 3.78018C10.5661 3.89852 10.625 4.04796 10.625 4.22852V10.6035L12.2292 8.99935C12.3403 8.88824 12.4861 8.83268 12.6667 8.83268C12.8472 8.83268 13 8.89518 13.125 9.02018C13.2361 9.13129 13.2917 9.27352 13.2917 9.44685C13.2917 9.62074 13.2361 9.77018 13.125 9.89518L10.5208 12.4785C10.4514 12.5618 10.3717 12.621 10.2817 12.656C10.1911 12.6905 10.0972 12.7077 10 12.7077ZM5.25 16.2493C4.83333 16.2493 4.47917 16.1035 4.1875 15.8118C3.89583 15.5202 3.75 15.166 3.75 14.7494V13.1243C3.75 12.9438 3.80917 12.7943 3.9275 12.676C4.04528 12.5582 4.19444 12.4993 4.375 12.4993C4.55556 12.4993 4.70472 12.5582 4.8225 12.676C4.94083 12.7943 5 12.9438 5 13.1243V14.7494C5 14.8049 5.02778 14.8605 5.08333 14.916C5.13889 14.9716 5.19444 14.9993 5.25 14.9993H14.75C14.8056 14.9993 14.8611 14.9716 14.9167 14.916C14.9722 14.8605 15 14.8049 15 14.7494V13.1243C15 12.9438 15.0589 12.7943 15.1767 12.676C15.295 12.5582 15.4444 12.4993 15.625 12.4993C15.8056 12.4993 15.955 12.5582 16.0733 12.676C16.1911 12.7943 16.25 12.9438 16.25 13.1243V14.7494C16.25 15.166 16.1042 15.5202 15.8125 15.8118C15.5208 16.1035 15.1667 16.2493 14.75 16.2493H5.25Z" fill="#4E62EE"/>
</g>
</svg>
