<svg width="20" height="20" viewBox="0 0 20 20" fill="none" xmlns="http://www.w3.org/2000/svg">
<mask id="mask0_1036_7545" style="mask-type:alpha" maskUnits="userSpaceOnUse" x="0" y="0" width="20" height="20">
<rect width="20" height="20" fill="#D9D9D9"/>
</mask>
<g mask="url(#mask0_1036_7545)">
<path d="M4.29199 15.8327H5.33366L13.042 8.12435L12.0212 7.08268L4.29199 14.8118V15.8327ZM15.7087 7.20768L12.8962 4.41602L14.0003 3.33268C14.2364 3.09657 14.5317 2.97852 14.8862 2.97852C15.24 2.97852 15.535 3.09657 15.7712 3.33268L16.792 4.35352C17.0281 4.60352 17.1531 4.89852 17.167 5.23852C17.1809 5.57907 17.0628 5.8674 16.8128 6.10352L15.7087 7.20768ZM3.79199 17.0827C3.58366 17.0827 3.40671 17.0099 3.26116 16.8643C3.11505 16.7182 3.04199 16.541 3.04199 16.3327V14.5827C3.04199 14.4855 3.05949 14.3918 3.09449 14.3018C3.12894 14.2113 3.18783 14.1243 3.27116 14.041L12.0003 5.31185L14.8128 8.12435L6.08366 16.8535C6.00033 16.9368 5.91366 16.996 5.82366 17.031C5.7331 17.0655 5.63921 17.0827 5.54199 17.0827H3.79199ZM12.5212 7.60352L12.0212 7.08268L13.042 8.12435L12.5212 7.60352Z" fill="#4E62EE"/>
</g>
</svg>
