<svg width="44" height="45" viewBox="0 0 44 45" fill="none" xmlns="http://www.w3.org/2000/svg">
<path d="M17.6898 30.166H14.58V20.1513H17.6898V30.166ZM16.1332 18.7852C15.1388 18.7852 14.3323 17.9615 14.3323 16.9671C14.3323 16.4894 14.522 16.0313 14.8598 15.6935C15.1975 15.3558 15.6556 15.166 16.1332 15.166C16.6109 15.166 17.069 15.3558 17.4067 15.6935C17.7445 16.0313 17.9342 16.4894 17.9342 16.9671C17.9342 17.9615 17.1273 18.7852 16.1332 18.7852ZM29.3286 30.166H26.2255V25.2909C26.2255 24.1291 26.2021 22.6391 24.6087 22.6391C22.9919 22.6391 22.7441 23.9014 22.7441 25.2072V30.166H19.6377V20.1513H22.6203V21.5174H22.6638C23.079 20.7305 24.0931 19.9002 25.6061 19.9002C28.7534 19.9002 29.3319 21.9728 29.3319 24.6648V30.166H29.3286Z" fill="#4E62EE"/>
</svg>
