<svg width="44" height="45" viewBox="0 0 44 45" fill="none" xmlns="http://www.w3.org/2000/svg">
<path d="M15.7251 18.8845C15.7466 18.6726 15.664 18.4606 15.5059 18.3169L13.8858 16.3628V16.0718H18.9222L22.8162 24.6106L26.2396 16.0718H31.0425V16.3628L29.6559 17.6919C29.5373 17.7817 29.4762 17.9326 29.5014 18.0799V27.8508C29.4762 27.9981 29.5373 28.149 29.6559 28.2388L31.0101 29.5679V29.8589H24.1956V29.5679L25.6002 28.2064C25.7367 28.0699 25.7367 28.0268 25.7367 27.8185V19.9227L21.8319 29.8337H21.3038L16.7632 19.9227V26.5648C16.7237 26.845 16.8171 27.1252 17.0147 27.3263L18.8395 29.5392V29.8301H13.6667V29.5428L15.4916 27.3263C15.6855 27.1252 15.7753 26.8414 15.7251 26.5648V18.8845Z" fill="#4E62EE"/>
</svg>
