<svg width="44" height="45" viewBox="0 0 44 45" fill="none" xmlns="http://www.w3.org/2000/svg">
<path d="M28.5958 19.2955C28.6066 19.4456 28.6066 19.5958 28.6066 19.746C28.6066 24.3258 25.1207 29.6028 18.7497 29.6028C16.7869 29.6028 14.9636 29.0343 13.4298 28.0476C13.7087 28.0798 13.9768 28.0905 14.2664 28.0905C15.8859 28.0905 17.3768 27.5435 18.5674 26.6104C17.0443 26.5782 15.768 25.5807 15.3282 24.2078C15.5428 24.24 15.7573 24.2614 15.9825 24.2614C16.2935 24.2614 16.6046 24.2185 16.8942 24.1435C15.3068 23.8217 14.1162 22.4274 14.1162 20.7434V20.7006C14.5774 20.958 15.1137 21.1189 15.6821 21.1403C14.749 20.5182 14.1377 19.4564 14.1377 18.2551C14.1377 17.6116 14.3093 17.0217 14.6096 16.5068C16.315 18.609 18.8784 19.9819 21.7528 20.1321C21.6992 19.8747 21.667 19.6065 21.667 19.3384C21.667 17.4292 23.2115 15.874 25.1314 15.874C26.1289 15.874 27.0298 16.2923 27.6627 16.968C28.4456 16.8179 29.1964 16.5283 29.8614 16.1314C29.604 16.9359 29.057 17.6116 28.3384 18.0406C29.0355 17.9655 29.7113 17.7724 30.3333 17.5043C29.8615 18.1907 29.2715 18.8021 28.5958 19.2955Z" fill="#4E62EE"/>
</svg>
