<svg width="20" height="21" viewBox="0 0 20 21" fill="none" xmlns="http://www.w3.org/2000/svg">
<mask id="mask0_41_3210" style="mask-type:alpha" maskUnits="userSpaceOnUse" x="0" y="0" width="20" height="21">
<rect y="0.5" width="20" height="20" fill="#D9D9D9"/>
</mask>
<g mask="url(#mask0_41_3210)">
<path d="M5.729 12.5833C5.604 12.4722 5.5415 12.3297 5.5415 12.1558C5.5415 11.9825 5.604 11.8333 5.729 11.7083L9.479 7.97917C9.54845 7.89583 9.62845 7.83667 9.719 7.80167C9.809 7.76722 9.90261 7.75 9.99984 7.75C10.0971 7.75 10.1909 7.76722 10.2815 7.80167C10.3715 7.83667 10.4512 7.89583 10.5207 7.97917L14.2915 11.7292C14.4026 11.8542 14.4582 11.9964 14.4582 12.1558C14.4582 12.3158 14.3957 12.4583 14.2707 12.5833C14.1457 12.7083 13.9998 12.7708 13.8332 12.7708C13.6665 12.7708 13.5207 12.7083 13.3957 12.5833L9.99984 9.20833L6.58317 12.6042C6.47206 12.7292 6.33317 12.7917 6.1665 12.7917C5.99984 12.7917 5.854 12.7222 5.729 12.5833Z" fill="#4E62EE"/>
</g>
</svg>
