<svg width="20" height="21" viewBox="0 0 20 21" fill="none" xmlns="http://www.w3.org/2000/svg">
<mask id="mask0_41_3194" style="mask-type:alpha" maskUnits="userSpaceOnUse" x="0" y="0" width="20" height="21">
<rect y="0.5" width="20" height="20" fill="#D9D9D9"/>
</mask>
<g mask="url(#mask0_41_3194)">
<path d="M9.99984 12.7084C9.90261 12.7084 9.809 12.6945 9.719 12.6667C9.62845 12.6389 9.54845 12.5834 9.479 12.5L5.70817 8.75003C5.59706 8.62503 5.5415 8.47919 5.5415 8.31253C5.5415 8.14586 5.604 8.00003 5.729 7.87503C5.854 7.76392 5.99984 7.70836 6.1665 7.70836C6.33317 7.70836 6.479 7.76392 6.604 7.87503L9.99984 11.2709L13.4165 7.87503C13.5276 7.75003 13.6665 7.69086 13.8332 7.69753C13.9998 7.70475 14.1457 7.76392 14.2707 7.87503C14.3957 8.00003 14.4582 8.14919 14.4582 8.32253C14.4582 8.49642 14.3957 8.63892 14.2707 8.75003L10.5207 12.5C10.4512 12.5834 10.3715 12.6389 10.2815 12.6667C10.1909 12.6945 10.0971 12.7084 9.99984 12.7084Z" fill="#4E62EE"/>
</g>
</svg>
