<svg width="52" height="52" viewBox="0 0 52 52" fill="none" xmlns="http://www.w3.org/2000/svg">
<g clip-path="url(#clip0_30_6357)">
<path d="M8.06038 13.0867C9.07871 14.0833 10.682 14.1267 11.7654 13.2167C12.567 12.5233 13.2604 12.1117 13.6504 12.285C14.7337 12.7183 13.6504 14.5167 13.0004 15.5783C12.4587 16.4883 6.80371 24.0067 6.80371 29.25C6.80371 32.0233 7.84371 34.32 9.70704 35.7067C11.332 36.92 13.477 37.2883 15.427 36.7033C17.7454 36.0317 19.652 33.67 22.057 30.7017C24.6787 27.4733 28.1887 23.2483 30.897 23.2483C34.4287 23.2483 34.472 25.4367 34.7104 27.1267C26.5204 28.5133 23.0537 35.0783 23.0537 38.7617C23.0537 42.445 26.1737 45.4567 30.0087 45.4567C33.5404 45.4567 39.3037 42.575 40.1704 32.24H42.792C44.287 32.24 45.5004 31.0267 45.5004 29.5317C45.5004 28.0367 44.287 26.8233 42.792 26.8233H40.1487C39.8237 23.2483 37.787 17.7233 31.417 17.7233C26.542 17.7233 22.3604 21.8617 20.7137 23.8767C19.457 25.4583 16.2504 29.25 15.752 29.77C15.2104 30.42 14.2787 31.59 13.347 31.59C12.372 31.59 11.787 29.7917 12.567 27.43C13.3254 25.0683 15.6004 21.2333 16.5754 19.8033C18.2654 17.3333 19.392 15.6433 19.392 12.6967C19.392 7.995 15.8387 6.5 13.9537 6.5C11.592 6.5 9.53371 7.865 8.10371 9.14333C6.95538 10.1833 6.95538 12.0033 8.06038 13.0867ZM30.0737 40.1917C29.402 40.1917 28.4704 39.6283 28.4704 38.6317C28.4704 37.3317 30.052 33.865 34.6887 32.6517C34.0387 38.48 31.5904 40.1917 30.0737 40.1917Z" fill="#4E62EE"/>
</g>
<defs>
<clipPath id="clip0_30_6357">
<rect width="52" height="52" fill="white"/>
</clipPath>
</defs>
</svg>
