<svg width="20" height="20" viewBox="0 0 20 20" fill="none" xmlns="http://www.w3.org/2000/svg">
<mask id="mask0_992_7900" style="mask-type:alpha" maskUnits="userSpaceOnUse" x="0" y="0" width="20" height="20">
<rect width="20" height="20" fill="#D9D9D9"/>
</mask>
<g mask="url(#mask0_992_7900)">
<path d="M7.95828 14.3952C7.86106 14.3952 7.76745 14.3777 7.67745 14.3427C7.58689 14.3082 7.50689 14.2563 7.43745 14.1868L3.95828 10.7077C3.83328 10.5827 3.77411 10.4332 3.78078 10.2593C3.788 10.086 3.84717 9.93685 3.95828 9.81185C4.08328 9.68685 4.23272 9.62435 4.40661 9.62435C4.57995 9.62435 4.72217 9.68685 4.83328 9.81185L7.95828 12.9368L15.1666 5.72852C15.2777 5.60352 15.4236 5.54102 15.6041 5.54102C15.7847 5.54102 15.9305 5.60352 16.0416 5.72852C16.1666 5.85352 16.2291 6.00268 16.2291 6.17602C16.2291 6.3499 16.1666 6.49935 16.0416 6.62435L8.47911 14.1868C8.40967 14.2563 8.32995 14.3082 8.23995 14.3427C8.14939 14.3777 8.0555 14.3952 7.95828 14.3952Z" fill="#3CCD87"/>
</g>
</svg>
