<svg width="20" height="20" viewBox="0 0 20 20" fill="none" xmlns="http://www.w3.org/2000/svg">
<mask id="mask0_1022_4442" style="mask-type:alpha" maskUnits="userSpaceOnUse" x="0" y="0" width="20" height="20">
<rect width="20" height="20" fill="#D9D9D9"/>
</mask>
<g mask="url(#mask0_1022_4442)">
<path d="M4.16697 9.166C3.82617 9.166 3.53264 9.04287 3.28639 8.79662C3.04012 8.55036 2.91699 8.25682 2.91699 7.91602V4.16599C2.91699 3.82519 3.04012 3.53166 3.28639 3.28541C3.53264 3.03915 3.82617 2.91602 4.16697 2.91602H7.91699C8.2578 2.91602 8.55133 3.03915 8.7976 3.28541C9.04385 3.53166 9.16697 3.82519 9.16697 4.16599V7.91602C9.16697 8.25682 9.04385 8.55036 8.7976 8.79662C8.55133 9.04287 8.2578 9.166 7.91699 9.166H4.16697ZM4.16697 17.0826C3.82617 17.0826 3.53264 16.9595 3.28639 16.7132C3.04012 16.467 2.91699 16.1735 2.91699 15.8327V12.0826C2.91699 11.7418 3.04012 11.4483 3.28639 11.202C3.53264 10.9558 3.82617 10.8327 4.16697 10.8327H7.91699C8.2578 10.8327 8.55133 10.9558 8.7976 11.202C9.04385 11.4483 9.16697 11.7418 9.16697 12.0826V15.8327C9.16697 16.1735 9.04385 16.467 8.7976 16.7132C8.55133 16.9595 8.2578 17.0826 7.91699 17.0826H4.16697ZM12.0836 9.166C11.7428 9.166 11.4493 9.04287 11.203 8.79662C10.9568 8.55036 10.8336 8.25682 10.8336 7.91602V4.16599C10.8336 3.82519 10.9568 3.53166 11.203 3.28541C11.4493 3.03915 11.7428 2.91602 12.0836 2.91602H15.8336C16.1744 2.91602 16.468 3.03915 16.7142 3.28541C16.9605 3.53166 17.0836 3.82519 17.0836 4.16599V7.91602C17.0836 8.25682 16.9605 8.55036 16.7142 8.79662C16.468 9.04287 16.1744 9.166 15.8336 9.166H12.0836ZM12.0836 17.0826C11.7428 17.0826 11.4493 16.9595 11.203 16.7132C10.9568 16.467 10.8336 16.1735 10.8336 15.8327V12.0826C10.8336 11.7418 10.9568 11.4483 11.203 11.202C11.4493 10.9558 11.7428 10.8327 12.0836 10.8327H15.8336C16.1744 10.8327 16.468 10.9558 16.7142 11.202C16.9605 11.4483 17.0836 11.7418 17.0836 12.0826V15.8327C17.0836 16.1735 16.9605 16.467 16.7142 16.7132C16.468 16.9595 16.1744 17.0826 15.8336 17.0826H12.0836ZM4.16697 7.91602H7.91699V4.16599H4.16697V7.91602ZM12.0836 7.91602H15.8336V4.16599H12.0836V7.91602ZM12.0836 15.8327H15.8336V12.0826H12.0836V15.8327ZM4.16697 15.8327H7.91699V12.0826H4.16697V15.8327Z" fill="#2B3FCC"/>
</g>
</svg>
