<svg width="32" height="32" viewBox="0 0 32 32" fill="none" xmlns="http://www.w3.org/2000/svg">
<mask id="mask0_959_14385" style="mask-type:alpha" maskUnits="userSpaceOnUse" x="0" y="0" width="32" height="32">
<rect width="32" height="32" fill="#D9D9D9"/>
</mask>
<g mask="url(#mask0_959_14385)">
<path d="M15.9999 23.5007C16.3777 23.5007 16.6946 23.3673 16.9506 23.1007C17.2057 22.834 17.3333 22.5118 17.3333 22.134C17.3333 21.7562 17.2057 21.434 16.9506 21.1673C16.6946 20.9007 16.3777 20.7673 15.9999 20.7673C15.5999 20.7673 15.2724 20.9007 15.0173 21.1673C14.7613 21.434 14.6333 21.7562 14.6333 22.134C14.6333 22.5118 14.7613 22.834 15.0173 23.1007C15.2724 23.3673 15.5999 23.5007 15.9999 23.5007ZM16.0999 10.3007C16.7888 10.3007 17.3386 10.4838 17.7493 10.85C18.1608 11.2171 18.3666 11.7118 18.3666 12.334C18.3666 12.734 18.2497 13.1282 18.0159 13.5167C17.783 13.906 17.4333 14.3118 16.9666 14.734C16.3221 15.2895 15.8555 15.8171 15.5666 16.3167C15.2777 16.8171 15.1221 17.334 15.0999 17.8673C15.0777 18.0895 15.1555 18.2838 15.3333 18.45C15.511 18.6171 15.7221 18.7006 15.9666 18.7006C16.211 18.7006 16.4279 18.6171 16.6173 18.45C16.8057 18.2838 16.9221 18.0784 16.9666 17.834C17.0333 17.4562 17.1777 17.106 17.3999 16.7833C17.6221 16.4615 17.9777 16.0562 18.4666 15.5673C19.1555 14.9229 19.6333 14.3451 19.8999 13.834C20.1666 13.3229 20.2999 12.7673 20.2999 12.1673C20.2999 11.1007 19.911 10.2282 19.1333 9.54998C18.3555 8.87265 17.3555 8.53398 16.1333 8.53398C15.311 8.53398 14.5555 8.70598 13.8666 9.04998C13.1777 9.39487 12.6333 9.91176 12.2333 10.6007C12.1221 10.8229 12.0835 11.0398 12.1173 11.2513C12.1501 11.462 12.2777 11.634 12.4999 11.7673C12.6999 11.9007 12.939 11.9451 13.2173 11.9007C13.4946 11.8562 13.7221 11.7118 13.8999 11.4673C14.1666 11.1118 14.4724 10.8282 14.8173 10.6167C15.1613 10.406 15.5888 10.3007 16.0999 10.3007ZM15.9999 28.6673C14.2444 28.6673 12.5999 28.334 11.0666 27.6673C9.53325 27.0007 8.19414 26.1007 7.04925 24.9673C5.90525 23.834 4.99992 22.4949 4.33325 20.95C3.66659 19.406 3.33325 17.7562 3.33325 16.0007C3.33325 14.2451 3.66659 12.5949 4.33325 11.05C4.99992 9.50598 5.90525 8.16732 7.04925 7.03398C8.19414 5.90065 9.53325 5.00065 11.0666 4.33398C12.5999 3.66732 14.2444 3.33398 15.9999 3.33398C17.7777 3.33398 19.4333 3.66732 20.9666 4.33398C22.4999 5.00065 23.839 5.90065 24.9839 7.03398C26.1279 8.16732 27.0279 9.50598 27.6839 11.05C28.339 12.5949 28.6666 14.2451 28.6666 16.0007C28.6666 17.7562 28.339 19.406 27.6839 20.95C27.0279 22.4949 26.1279 23.834 24.9839 24.9673C23.839 26.1007 22.4999 27.0007 20.9666 27.6673C19.4333 28.334 17.7777 28.6673 15.9999 28.6673ZM15.9999 26.6673C18.9777 26.6673 21.4999 25.6287 23.5666 23.5513C25.6332 21.4731 26.6666 18.9562 26.6666 16.0007C26.6666 13.0451 25.6332 10.5282 23.5666 8.44998C21.4999 6.37265 18.9777 5.33398 15.9999 5.33398C13.0666 5.33398 10.5555 6.37265 8.46658 8.44998C6.3777 10.5282 5.33325 13.0451 5.33325 16.0007C5.33325 18.9562 6.3777 21.4731 8.46658 23.5513C10.5555 25.6287 13.0666 26.6673 15.9999 26.6673Z" fill="#4E62EE"/>
</g>
</svg>
