<svg width="188" height="40" viewBox="0 0 188 40" fill="none" xmlns="http://www.w3.org/2000/svg">
<g clip-path="url(#clip0_988_6794)">
<path d="M20.2296 39.0149C30.6958 39.0149 39.1804 30.5303 39.1804 20.0641C39.1804 9.59785 30.6958 1.11328 20.2296 1.11328C9.76344 1.11328 1.27892 9.59785 1.27892 20.0641C1.27892 30.5303 9.76344 39.0149 20.2296 39.0149Z" fill="white"/>
<path d="M80.2954 11.9331C75.6397 11.9331 71.902 15.7363 71.902 20.3265C71.902 24.9166 75.7053 28.7199 80.2954 28.7199C83.0495 28.7199 85.5413 27.3429 87.0495 25.3101L84.2954 23.2773C83.3774 24.5232 81.9348 25.3101 80.2954 25.3101C78.1315 25.3101 76.2954 23.933 75.6397 22.0314H88.5577C88.6888 21.5068 88.7544 20.9166 88.7544 20.3265C88.7544 15.7363 84.9511 11.9331 80.2954 11.9331ZM75.6397 18.6216C76.361 16.7199 78.1971 15.3429 80.2954 15.3429C82.4593 15.3429 84.2954 16.7199 84.9511 18.6216H75.6397Z" fill="white"/>
<path d="M109.607 11.9331C107.574 11.9331 105.803 12.8511 104.558 14.2281C103.312 12.8511 101.476 11.9331 99.5084 11.9331C98.5904 11.9331 97.3445 12.3921 96.1642 13.3101V11.9331H92.6888V28.8511H96.0986V18.8839C96.0986 17.1134 97.4101 15.6052 99.1806 15.474C101.148 15.3429 102.787 16.9167 102.787 18.8183V28.8511H106.197V18.8839C106.197 17.1134 107.508 15.6052 109.279 15.474C111.246 15.3429 112.885 16.9167 112.885 18.8183V28.8511H116.295V18.9494C116.426 15.0806 113.41 11.9331 109.607 11.9331Z" fill="white"/>
<path d="M141.213 18.6871V28.7199H144.623V18.6871C144.623 16.8511 146.131 15.3429 147.967 15.3429H149.344V11.9331H147.967C144.229 11.9331 141.213 14.9494 141.213 18.6871Z" fill="white"/>
<path d="M129.016 11.9331C124.361 11.9331 120.623 15.7363 120.623 20.3265C120.623 24.9166 124.426 28.7199 129.016 28.7199C131.771 28.7199 134.262 27.3429 135.771 25.3101L133.016 23.2773C132.098 24.5232 130.656 25.3101 129.016 25.3101C126.853 25.3101 125.016 23.933 124.361 22.0314H137.279C137.41 21.5068 137.475 20.9166 137.475 20.3265C137.475 15.7363 133.672 11.9331 129.016 11.9331ZM124.361 18.6216C125.082 16.7199 126.918 15.3429 129.016 15.3429C131.115 15.3429 133.016 16.7199 133.672 18.6216H124.361Z" fill="white"/>
<path d="M60.3611 11.9331C59.3775 11.9331 57.8693 12.3265 56.4267 13.5068V11.0806C56.4267 8.91664 58.1972 7.14615 60.3611 7.14615H60.4267V3.73633H60.3611C56.2956 3.73633 52.9513 7.08058 52.9513 11.1462V28.7199H56.3611V19.474C56.3611 17.3757 58.0004 15.5396 60.0988 15.474C62.3283 15.3429 64.2299 17.1789 64.2299 19.4085V28.7855H67.6397V19.4085C67.7053 15.2117 64.4267 11.9331 60.3611 11.9331Z" fill="white"/>
<path d="M187.574 29.0478V11.9331H184.164V21.1789C184.164 23.2773 182.524 25.1134 180.426 25.1789C178.197 25.3101 176.295 23.474 176.295 21.2445V11.8675H172.885V21.2445C172.885 25.3101 176.164 28.5888 180.229 28.5888C181.213 28.5888 182.721 28.1953 184.164 27.015V28.9822C184.164 31.1462 182.393 32.9167 180.229 32.9167H180.164V36.3265H180.229C184.229 36.3265 187.442 33.1789 187.639 29.1789V29.0478H187.574Z" fill="white"/>
<path d="M165.016 13.638C163.77 12.3921 162.065 11.5396 160.098 11.5396C155.443 11.5396 151.705 15.2773 151.705 19.933C151.705 24.5888 155.443 28.3265 160.098 28.3265C162.131 28.3265 163.77 27.4085 165.016 26.2281V29.1789C165.016 31.3429 163.246 33.1134 161.082 33.1134H161.016V36.5232H161.082C165.147 36.5232 168.492 33.1789 168.492 29.1134V11.9986H165.082V13.638H165.016ZM160.098 24.8511C157.344 24.8511 155.18 22.6216 155.18 19.933C155.18 17.1789 157.41 15.015 160.098 15.015C162.852 15.015 165.016 17.2445 165.016 19.933C165.016 22.6216 162.787 24.8511 160.098 24.8511Z" fill="white"/>
<path d="M20.2294 0.261719C9.27861 0.261719 0.360638 9.17976 0.360638 20.1306C0.360638 31.0814 9.27861 39.9994 20.2294 39.9994C31.1801 39.9994 40.0981 31.0814 40.0981 20.1306C40.0981 9.11419 31.1801 0.261719 20.2294 0.261719ZM8.29501 10.2945C8.95074 9.57321 9.99992 9.5732 10.7212 10.1634C13.5409 12.7207 15.1802 16.3929 15.1802 20.2617C15.1802 23.9338 13.7376 27.3437 11.1803 29.9011C10.8524 30.2289 10.3934 30.4257 9.99992 30.4257C9.5409 30.4257 9.14747 30.2289 8.81961 29.9011C8.16387 29.2453 8.16387 28.1306 8.81961 27.4748C10.7212 25.5732 11.836 22.9502 11.836 20.2617C11.836 17.3765 10.5901 14.6224 8.49174 12.7207C7.70486 12.065 7.70484 11.0158 8.29501 10.2945ZM17.8032 20.065C17.8032 18.7535 18.8523 17.6388 20.2294 17.6388C21.6064 17.6388 22.6556 18.688 22.6556 20.065C22.6556 21.3765 21.6064 22.4912 20.2294 22.4912C18.8523 22.4912 17.8032 21.4421 17.8032 20.065ZM31.7047 27.4748C32.3605 28.1306 32.3605 29.2453 31.7047 29.9011C31.3769 30.2289 30.9179 30.4257 30.5244 30.4257C30.0654 30.4257 29.6719 30.2289 29.3441 29.9011C26.7867 27.3437 25.3441 23.8683 25.3441 20.2617C25.3441 16.4584 26.9834 12.7863 29.8031 10.1634C30.5244 9.50762 31.5736 9.57321 32.2293 10.2945C32.885 11.0158 32.8195 12.065 32.0982 12.7207C29.9998 14.6224 28.7539 17.3765 28.7539 20.2617C28.6883 23.0158 29.7375 25.5732 31.7047 27.4748Z" fill="#EC5942"/>
</g>
<defs>
<clipPath id="clip0_988_6794">
<rect width="187.54" height="40" fill="white" transform="translate(0.230003)"/>
</clipPath>
</defs>
</svg>
