<svg width="32" height="32" viewBox="0 0 32 32" fill="none" xmlns="http://www.w3.org/2000/svg">
<mask id="mask0_959_14148" style="mask-type:alpha" maskUnits="userSpaceOnUse" x="0" y="0" width="32" height="32">
<rect width="32" height="32" fill="#D9D9D9"/>
</mask>
<g mask="url(#mask0_959_14148)">
<path d="M3.60039 25.7342C3.26706 25.7342 2.9835 25.6231 2.74972 25.4009C2.51684 25.1787 2.40039 24.8898 2.40039 24.5342V22.7676C2.40039 22.0787 2.57817 21.4676 2.93372 20.9342C3.28928 20.4009 3.76706 19.9787 4.36706 19.6676C5.63372 19.0676 6.90617 18.5956 8.18439 18.2516C9.46172 17.9067 10.8671 17.7342 12.4004 17.7342C13.9337 17.7342 15.3395 17.9067 16.6177 18.2516C17.8951 18.5956 19.1671 19.0676 20.4337 19.6676C21.0337 19.9787 21.5115 20.4009 21.8671 20.9342C22.2226 21.4676 22.4004 22.0787 22.4004 22.7676V24.5342C22.4004 24.8898 22.2839 25.1787 22.0511 25.4009C21.8173 25.6231 21.5337 25.7342 21.2004 25.7342H3.60039ZM24.5337 25.7342C24.7115 25.6009 24.8448 25.4289 24.9337 25.2182C25.0226 25.0067 25.0671 24.7787 25.0671 24.5342V22.6009C25.0671 21.7342 24.8502 20.9062 24.4164 20.1169C23.9835 19.3285 23.3782 18.6454 22.6004 18.0676C23.4893 18.2009 24.3337 18.4062 25.1337 18.6836C25.9337 18.9618 26.7004 19.2898 27.4337 19.6676C28.1226 20.0454 28.6559 20.4845 29.0337 20.9849C29.4115 21.4845 29.6004 22.0231 29.6004 22.6009V24.5342C29.6004 24.8898 29.4839 25.1787 29.2511 25.4009C29.0173 25.6231 28.7337 25.7342 28.4004 25.7342H24.5337ZM12.4004 15.6009C11.1115 15.6009 10.0115 15.1396 9.10039 14.2169C8.18928 13.2951 7.73372 12.2009 7.73372 10.9342C7.73372 9.64536 8.18928 8.54536 9.10039 7.63424C10.0115 6.72313 11.1115 6.26758 12.4004 6.26758C13.6893 6.26758 14.7893 6.72313 15.7004 7.63424C16.6115 8.54536 17.0671 9.64536 17.0671 10.9342C17.0671 12.2009 16.6115 13.2951 15.7004 14.2169C14.7893 15.1396 13.6893 15.6009 12.4004 15.6009ZM23.9004 10.9342C23.9004 12.2009 23.4448 13.2951 22.5337 14.2169C21.6226 15.1396 20.5226 15.6009 19.2337 15.6009C19.1004 15.6009 18.9168 15.584 18.6831 15.5502C18.4502 15.5174 18.2559 15.4787 18.1004 15.4342C18.6337 14.7898 19.0395 14.0845 19.3177 13.3182C19.5951 12.5511 19.7337 11.7565 19.7337 10.9342C19.7337 10.0898 19.5893 9.2898 19.3004 8.53425C19.0115 7.77869 18.6115 7.07869 18.1004 6.43424C18.2782 6.36758 18.4671 6.32313 18.6671 6.30091C18.8671 6.27869 19.0559 6.26758 19.2337 6.26758C20.5226 6.26758 21.6226 6.72313 22.5337 7.63424C23.4448 8.54536 23.9004 9.64536 23.9004 10.9342ZM4.40039 23.7342H20.4004V22.7676C20.4004 22.5009 20.3284 22.2565 20.1844 22.0342C20.0395 21.812 19.8226 21.6231 19.5337 21.4676C18.4226 20.912 17.2893 20.484 16.1337 20.1836C14.9782 19.884 13.7337 19.7342 12.4004 19.7342C11.0671 19.7342 9.81728 19.884 8.65106 20.1836C7.48395 20.484 6.35595 20.912 5.26706 21.4676C4.95595 21.6231 4.73372 21.812 4.60039 22.0342C4.46706 22.2565 4.40039 22.5009 4.40039 22.7676V23.7342ZM12.4004 13.6009C13.1337 13.6009 13.7617 13.3396 14.2844 12.8169C14.8062 12.2951 15.0671 11.6676 15.0671 10.9342C15.0671 10.2009 14.8062 9.57291 14.2844 9.05025C13.7617 8.52847 13.1337 8.26758 12.4004 8.26758C11.6671 8.26758 11.0395 8.52847 10.5177 9.05025C9.99506 9.57291 9.73372 10.2009 9.73372 10.9342C9.73372 11.6676 9.99506 12.2951 10.5177 12.8169C11.0395 13.3396 11.6671 13.6009 12.4004 13.6009Z" fill="#D6DBFF"/>
</g>
</svg>
