<svg width="7" height="12" viewBox="0 0 7 12" fill="none" xmlns="http://www.w3.org/2000/svg">
<path d="M0.874903 11.1249C0.724903 10.9749 0.649902 10.7999 0.649902 10.5999C0.649902 10.3999 0.724903 10.2249 0.874903 10.0749L4.9499 5.9999L0.874903 1.9249C0.724903 1.7749 0.649902 1.5999 0.649902 1.3999C0.649902 1.1999 0.724903 1.0249 0.874903 0.874902C1.0249 0.724902 1.1999 0.649902 1.3999 0.649902C1.5999 0.649902 1.7749 0.724902 1.9249 0.874902L6.4249 5.3749C6.50824 5.45824 6.5709 5.5539 6.6129 5.6619C6.65424 5.77057 6.6749 5.88324 6.6749 5.9999C6.6749 6.11657 6.65424 6.2289 6.6129 6.3369C6.5709 6.44557 6.50824 6.54157 6.4249 6.6249L1.9249 11.1249C1.7749 11.2749 1.5999 11.3499 1.3999 11.3499C1.1999 11.3499 1.0249 11.2749 0.874903 11.1249Z" fill="white"/>
</svg>
