<svg width="605" height="505" viewBox="0 0 605 505" fill="none" xmlns="http://www.w3.org/2000/svg">
<g clip-path="url(#clip0_454_7090)">
<path d="M472.78 389.348L439.136 500.657L442.936 500.112L484.018 388.62L472.78 389.348Z" fill="#C79516"/>
<path d="M500.454 389.348L466.81 500.657L470.61 500.112L511.692 388.62L500.454 389.348Z" fill="#FFCE1A"/>
<path d="M550.916 389.893L574.794 505L569.364 504.455L538.979 389.348L550.916 389.893Z" fill="#C79516"/>
<path d="M576.964 388.807L600.838 503.914L595.412 503.369L565.023 388.262L576.964 388.807Z" fill="#FFCE1A"/>
<path d="M595.514 275.88C581.488 261.87 553.989 264.033 540.268 277.393C517.902 299.167 494.329 388.079 494.329 388.079L584.288 387.453C589.974 372.682 595.445 357.127 598.452 341.612C602.123 322.681 610.796 298.028 599.082 280.256C598.026 278.654 596.831 277.198 595.514 275.884V275.88Z" fill="#6B7EFD"/>
<path d="M585.207 276.421C571.181 262.411 543.682 264.574 529.961 277.934C507.595 299.707 484.022 388.62 484.022 388.62L573.982 387.994C579.668 373.223 585.138 357.668 588.146 342.153C591.816 323.222 600.489 298.569 588.776 280.797C587.719 279.194 586.524 277.739 585.207 276.425V276.421Z" fill="#2B3FCC"/>
<path d="M584.443 380.352H439.087C438.665 380.352 438.323 380.695 438.323 381.117V389.267C438.323 389.689 438.665 390.031 439.087 390.031H584.443C584.865 390.031 585.207 389.689 585.207 389.267V381.117C585.207 380.695 584.865 380.352 584.443 380.352Z" fill="#6B7EFD"/>
<path d="M413.904 317.951H409.836V502.828H413.904V317.951Z" fill="#C79516"/>
<path d="M434.522 317.41H430.454V502.287H434.522V317.41Z" fill="#FFCE1A"/>
<path d="M299.409 316.324H295.341V501.202H299.409V316.324Z" fill="#C79516"/>
<path d="M324.912 317.41H320.844V502.287H324.912V317.41Z" fill="#FFCE1A"/>
<path d="M158.499 331.705L156.04 336.955C156.04 336.955 154.399 340.465 153.456 343.092C152.513 345.719 147.469 344.426 148.583 347.533C149.696 350.64 153.553 355.85 159.877 353.735C163.612 352.486 165.608 347.94 164.925 344.312C164.295 340.953 164.844 337.48 166.376 334.422L158.495 331.705H158.499Z" fill="#C79516"/>
<path d="M85.5045 139.345L85.5899 130.976C85.5899 130.976 88.5283 117.474 84.6388 116.86C80.7493 116.246 74.8073 114.464 71.6493 120.739C68.4913 127.014 73.592 127.295 73.9212 128.788C74.2504 130.28 75.8721 139.817 75.8721 139.817C75.8721 139.817 82.2734 141.488 85.5045 139.341V139.345Z" fill="#B7870E"/>
<path d="M69.04 467.488C69.04 467.488 72.7101 478.68 72.011 485.329C80.7046 484.422 84.3462 481.246 84.3462 481.246C84.3462 481.246 81.8263 468.126 81.1435 465.178C81.1435 465.178 73.8197 462.376 69.04 467.484V467.488Z" fill="#C79516"/>
<path d="M86.1831 491.006C68.9789 496.488 52.933 490.786 52.933 490.786C52.4656 489.729 52.1811 488.749 52.0632 487.871C52.0307 487.631 52.0023 487.378 51.9901 487.155C51.7381 482.807 55.335 480.794 58.5824 480.603C59.0498 480.575 59.4846 480.542 59.8951 480.538C61.0494 480.469 62.0533 480.416 63.0653 480.286C63.297 480.262 63.5286 480.237 63.7481 480.188C64.5284 480.079 65.3129 479.904 66.207 479.656C66.4143 479.595 66.6256 479.534 66.8614 479.46C67.5442 479.237 68.2879 478.972 69.1252 478.647C69.2268 478.606 69.3406 478.558 69.4462 478.517C69.56 478.468 69.6617 478.427 69.7673 478.387C74.421 476.577 76.8311 476.715 73.0554 480.274C77.1766 482.47 84.6467 480.384 84.6467 480.384C85.8782 480.111 86.1871 484.044 86.2237 487.195C86.2684 489.274 86.1871 491.002 86.1871 491.002L86.1831 491.006Z" fill="#192CB1"/>
<path d="M60.7446 488.098C57.6232 488.159 54.4002 487.793 52.0632 487.871C52.0307 487.631 52.0023 487.379 51.9901 487.155C51.7381 482.807 55.335 480.794 58.5824 480.603C59.0498 480.575 59.4846 480.542 59.8951 480.538C60.5576 482.36 61.533 486.024 60.7446 488.098Z" fill="#EFF1FF"/>
<path d="M86.1832 491.006C68.979 496.488 52.9332 490.786 52.9332 490.786C52.3357 489.428 52.0471 488.216 51.9902 487.155C67.7435 489.066 82.4237 487.631 86.2198 487.2C86.2645 489.278 86.1832 491.006 86.1832 491.006Z" fill="#192CB1"/>
<path d="M70.5192 483.076C70.4135 483.096 70.3038 483.076 70.2185 483.007C70.1656 482.962 70.129 482.897 70.1006 482.824L69.1211 478.647C69.2227 478.606 69.3365 478.558 69.4422 478.517C69.556 478.468 69.6576 478.427 69.7633 478.387C69.7633 478.407 69.7754 478.415 69.7795 478.436L70.7834 482.665C70.8322 482.848 70.7143 483.035 70.5233 483.072L70.5192 483.076Z" fill="#EFF1FF"/>
<path d="M67.597 483.938C67.4832 483.971 67.3816 483.938 67.2963 483.869C67.2434 483.824 67.2069 483.759 67.1784 483.686L66.207 479.656C66.4143 479.595 66.6257 479.534 66.8614 479.46L66.8736 479.469L67.849 483.515C67.8978 483.698 67.7799 483.885 67.597 483.93V483.938Z" fill="#EFF1FF"/>
<path d="M64.7359 484.743C64.6221 484.776 64.5001 484.747 64.4148 484.678C64.3619 484.633 64.3172 484.581 64.301 484.515L63.0695 480.347C63.0695 480.347 63.0695 480.306 63.0654 480.29C63.2971 480.266 63.5288 480.241 63.7482 480.192L64.9635 484.312C65.0122 484.491 64.9025 484.69 64.7318 484.747L64.7359 484.743Z" fill="#EFF1FF"/>
<path d="M85.9436 357.562C80.8022 381.951 72.9662 403.309 72.9662 403.309C77.0021 412.293 84.4764 467.154 84.4764 467.154L83.7163 467.354C78.9489 470.33 73.3971 471.807 67.7802 471.591L67.4591 471.579C67.4591 471.579 44.6218 418.161 46.1744 389.966C47.1254 330.115 62.1552 305.983 62.1552 305.983L90.2355 317.138C90.8532 329.448 88.8089 343.971 85.9476 357.566L85.9436 357.562Z" fill="#192CB1"/>
<path d="M149.932 403.448C149.932 403.448 161.703 403.521 167.783 406.299C169.685 397.762 167.836 393.297 167.836 393.297C167.836 393.297 154.606 391.52 151.595 391.231C151.595 391.231 146.616 397.291 149.932 403.448Z" fill="#C79516"/>
<path d="M170.749 389.856C178.768 406.042 175.561 422.777 175.561 422.777C174.586 423.399 173.663 423.831 172.814 424.079C172.582 424.148 172.334 424.213 172.119 424.258C167.864 425.164 165.328 421.911 164.649 418.731C164.551 418.275 164.45 417.848 164.389 417.442C164.145 416.307 163.942 415.327 163.661 414.343C163.604 414.115 163.543 413.891 163.462 413.68C163.238 412.923 162.942 412.175 162.564 411.329C162.474 411.13 162.381 410.935 162.275 410.711C161.95 410.073 161.58 409.373 161.129 408.596C161.072 408.499 161.007 408.397 160.954 408.299C160.889 408.198 160.832 408.1 160.775 408.003C158.284 403.671 158.056 401.268 162.141 404.464C163.686 400.056 160.495 392.984 160.495 392.984C160.04 391.804 163.877 390.906 166.986 390.393C169.034 390.035 170.753 389.852 170.753 389.852L170.749 389.856Z" fill="#192CB1"/>
<path d="M171.729 415.461C172.261 418.54 172.387 421.781 172.818 424.083C172.586 424.152 172.338 424.217 172.123 424.262C167.868 425.169 165.331 421.915 164.653 418.735C164.555 418.279 164.454 417.852 164.393 417.446C166.091 416.514 169.562 414.997 171.733 415.461H171.729Z" fill="#EFF1FF"/>
<path d="M170.749 389.856C178.768 406.042 175.561 422.777 175.561 422.777C174.309 423.574 173.155 424.042 172.119 424.258C171.623 408.389 167.985 394.086 166.981 390.393C169.03 390.035 170.749 389.852 170.749 389.852V389.856Z" fill="#192CB1"/>
<path d="M72.9666 403.309C77.0025 412.293 84.4767 467.154 84.4767 467.154L83.7167 467.354C80.8514 455.491 70.3126 412.671 65.6387 403.236C65.6387 403.236 80.7782 357.293 82.5055 344.471C83.5907 336.459 85.4074 344.43 85.948 357.566C80.8067 381.955 72.9707 403.313 72.9707 403.313L72.9666 403.309Z" fill="#10219C"/>
<path d="M165.807 407.73C165.828 407.836 165.807 407.946 165.738 408.031C165.693 408.084 165.628 408.12 165.555 408.145L161.373 409.088C161.332 408.983 161.284 408.873 161.247 408.767C161.198 408.653 161.158 408.552 161.121 408.446C161.141 408.446 161.15 408.434 161.17 408.434L165.405 407.466C165.588 407.421 165.775 407.539 165.811 407.73H165.807Z" fill="#EFF1FF"/>
<path d="M166.758 409.837C166.795 409.951 166.77 410.052 166.705 410.142C166.665 410.199 166.604 410.235 166.526 410.268L162.56 411.455C162.486 411.248 162.417 411.045 162.332 410.813L162.34 410.8L166.327 409.613C166.506 409.556 166.697 409.662 166.758 409.841V409.837Z" fill="#EFF1FF"/>
<path d="M167.811 412.02C167.859 412.13 167.851 412.252 167.794 412.346C167.758 412.407 167.713 412.456 167.648 412.484L163.718 414.335C163.718 414.335 163.681 414.343 163.661 414.351C163.604 414.123 163.543 413.899 163.462 413.688L167.347 411.862C167.518 411.789 167.729 411.862 167.811 412.025V412.02Z" fill="#EFF1FF"/>
<path d="M154.086 406.433C154.086 406.433 119.612 414.119 100.807 406.689C100.807 406.689 100.797 406.685 100.779 406.677C95.6128 404.627 91.6298 401.439 89.878 396.632C69.2598 350.791 79.5466 312.888 79.5466 312.888L104.493 321.083L110.317 322.998C113.886 348.05 117.357 375.871 118.243 387.453C130.147 387.892 153.602 389.877 154.236 389.706C155.903 394.977 155.907 400.629 154.248 405.904L154.082 406.437L154.086 406.433Z" fill="#192CB1"/>
<path d="M155.386 398.946L118.799 397.144C114.093 396.912 110.11 393.7 108.887 389.145L89.6055 317.309L90.8491 316.975L110.13 388.811C111.207 392.825 114.715 395.656 118.86 395.859L155.447 397.661L155.386 398.946Z" fill="#10219C"/>
<path d="M118.247 387.449C117.202 387.437 116.316 386.697 116.125 385.672C114.556 377.156 107.7 339.859 104.493 321.079L110.317 322.994C113.886 348.046 117.357 375.867 118.243 387.449H118.247Z" fill="#10219C"/>
<path d="M131.72 267.14H131.708C131.452 267.783 131.171 268.43 130.862 269.084C130.793 269.292 130.692 269.495 130.594 269.703C130.342 270.264 130.086 270.841 129.846 271.402C129.651 271.854 129.452 272.305 129.269 272.744C126.481 279.129 124.306 284.819 122.534 289.931C120.734 295.157 119.352 299.781 118.186 303.978C116.271 310.907 114.95 316.634 113.288 321.831C112.931 322.998 112.618 324.247 112.386 325.288V325.3C112.097 326.618 111.935 327.606 111.935 327.606C111.935 327.606 66.0162 316.845 56.0059 308.297C56.0059 308.297 65.4879 268.458 81.2818 241.857C95.4255 218.017 110.337 224.622 110.337 224.622L128.639 231.576C128.639 231.576 133.016 232.597 135.41 237.99C135.613 238.445 135.8 238.929 135.971 239.454C137.69 244.688 137.593 253.244 131.716 267.136L131.72 267.14Z" fill="#6B7EFD"/>
<path d="M108.237 226.045C107.692 228.132 107.042 229.998 106.269 231.625C98.6895 248.144 81.4732 242.74 81.4732 242.74C82.9526 229.791 74.4541 212.051 72.7999 195.068C71.1295 178.069 73.3892 137.047 73.3892 137.047L88.7361 137.202C93.2271 168.899 93.0076 190.676 93.0076 190.676C97.4906 201.73 108.245 226.045 108.245 226.045H108.237Z" fill="#6B7EFD"/>
<path d="M166.933 337.073L165.535 336.577L155.504 333.047C155.504 333.047 158.3 306.71 162.332 292.989C162.332 292.989 162.304 292.948 162.222 292.863C160.507 290.931 140.218 268.462 129.484 273.127H129.472C129.472 273.127 129.403 272.989 129.269 272.74C129.013 272.244 128.554 271.289 128.005 270.003C125.091 263.025 120.132 246.253 135.975 239.454C135.894 239.482 136.044 239.425 135.975 239.454C135.975 239.454 136.633 239.641 137.41 240.198C142.201 243.537 160.153 256.681 172.846 274.314C174.622 276.754 176.289 279.288 177.801 281.907C185.47 293.229 166.925 337.073 166.925 337.073H166.933Z" fill="#6B7EFD"/>
<path d="M123.307 243.947L110.59 237.217L123.628 215.138L136.309 222.633L123.307 243.947Z" fill="#B7870E"/>
<path d="M122.538 289.931C120.738 295.157 119.356 299.781 118.189 303.978C102.318 298.74 89.0037 289.288 91.5439 272.289C94.2426 254.249 112.178 243.077 112.178 243.077L116.283 246.656C102.794 261.463 101.05 269.247 102.493 276.226C103.871 282.899 115.344 287.601 122.542 289.927L122.538 289.931Z" fill="#2B3FCC"/>
<path d="M114.219 237.453L118.474 241.426L116.279 245.965L113.609 246.623L109.951 243.061L110.492 240.548L114.219 237.453Z" fill="#192CB1"/>
<path d="M130.541 232.398L116.349 239.694L115.142 247.843C115.142 247.843 131.712 240.995 132.114 239.433C132.362 238.478 132.594 236.526 132.74 235.147C132.838 234.232 132.366 233.353 131.549 232.926L130.537 232.394L130.541 232.398Z" fill="#EFF1FF"/>
<path d="M116.353 239.694L116.825 226.655L115.642 226.139C114.906 225.818 114.053 225.98 113.492 226.558C112.789 227.286 111.858 228.51 111.106 230.429C109.696 234.028 106.595 243.024 106.595 243.024L116.349 239.689L116.353 239.694Z" fill="#EFF1FF"/>
<path d="M108.26 223.878C105.96 224.069 104.034 223.931 102.201 224.545C98.0224 217.387 90.6579 201.51 87.9064 189.993C87.9998 180.623 86.9065 146.291 86.5977 137.181L88.7273 137.202C93.2184 168.899 92.9989 190.676 92.9989 190.676C97.4819 201.73 108.256 223.878 108.256 223.878H108.26Z" fill="#2B3FCC"/>
<path d="M162.222 292.867C160.507 290.935 140.218 268.466 129.484 273.131H129.472C129.472 273.131 129.403 272.993 129.269 272.745C118.962 296.377 116.938 310.407 113.284 321.831C112.926 322.998 112.613 324.247 112.382 325.288C112.219 323.649 112.109 322.437 112.097 322.356C110.622 307.89 123.465 276.88 126.448 271.585C126.826 270.914 127.354 270.398 128.005 270.003C128.793 269.515 129.773 269.223 130.862 269.084C131.122 269.048 131.386 269.019 131.646 269.011H131.659C136.666 268.706 141.299 271.642 145.441 274.038C149.558 276.421 161.052 291.354 162.218 292.867H162.222Z" fill="#2B3FCC"/>
<path d="M166.933 337.073L165.535 336.577C167.669 329.773 175.867 302.392 175.208 288.459C174.936 282.647 173.952 277.946 172.847 274.314C174.623 276.754 176.289 279.288 177.801 281.907C185.471 293.229 166.925 337.073 166.925 337.073H166.933Z" fill="#2B3FCC"/>
<path d="M109.951 243.061C109.951 243.061 93.9379 254.253 91.5196 272.289C89.1014 290.325 102.587 299.846 117.836 304.856L128.184 301.558L124.335 291.541C124.335 291.541 103.07 286.035 101.282 276.222C100.006 269.235 101.563 261.459 113.617 246.627L109.959 243.065L109.951 243.061Z" fill="#192CB1"/>
<path d="M155.029 402.769L154.086 406.433C154.086 406.433 119.612 414.119 100.807 406.689C120.372 408.58 146.831 404.542 155.029 402.769Z" fill="#10219C"/>
<path d="M152.104 219.717C159.651 211.661 159.888 199.615 152.633 192.81C145.378 186.005 133.379 187.019 125.833 195.074C118.286 203.13 118.049 215.176 125.304 221.981C132.558 228.786 144.557 227.772 152.104 219.717Z" fill="#C79516"/>
<path d="M133.432 228.701C133.432 228.701 144.295 229.909 153.834 221.515C163.373 213.121 159.634 211.161 159.634 211.161C159.634 211.161 165.735 200.778 160.89 193.446C156.045 186.113 142.69 173.274 138.069 162.432C133.444 151.59 122.056 177.142 131.672 187.716C141.292 198.289 143.373 199.932 143.373 199.932L134.078 195.861C134.078 195.861 141.211 202.242 145.397 204.621C149.583 207 145.527 208.253 141.528 211.628C137.528 215 135.947 218.575 135.947 218.575C135.947 218.575 145.499 214.63 147.567 217.188C149.632 219.746 140.841 221.726 137.451 224.114C132.928 227.302 132.2 229.64 132.2 229.64L133.428 228.701H133.432Z" fill="#0B0D13"/>
<path d="M148.997 222.295C151.676 219.435 151.986 215.371 149.69 213.218C147.394 211.064 143.361 211.636 140.682 214.496C138.004 217.355 137.693 221.419 139.989 223.573C142.285 225.726 146.318 225.154 148.997 222.295Z" fill="#B7870E"/>
<g clip-path="url(#clip1_454_7090)">
<path d="M72.0093 112.499C94.3718 112.499 112.5 94.3706 112.5 72.0081C112.5 49.6457 94.3718 31.5173 72.0093 31.5173C49.6469 31.5173 31.5186 49.6457 31.5186 72.0081C31.5186 94.3706 49.6469 112.499 72.0093 112.499Z" fill="#FFDE65"/>
<path d="M38.5543 75.5492C38.5543 87.9854 43.675 99.1676 51.9831 107.214C39.7561 100.265 31.5 87.0972 31.5 71.996C31.5 49.6316 49.6319 31.5 71.996 31.5C73.7728 31.5 75.4969 31.6046 77.169 31.8658C55.3796 34.5308 38.5543 53.0805 38.5543 75.5492Z" fill="#FFCE1A"/>
<path d="M85.0611 66.7704C87.9465 66.7704 90.2856 64.4314 90.2856 61.5459C90.2856 58.6605 87.9465 56.3214 85.0611 56.3214C82.1756 56.3214 79.8366 58.6605 79.8366 61.5459C79.831 64.4286 82.1632 66.7699 85.0459 66.7755C85.0526 66.7755 85.0594 66.7755 85.0661 66.7755L85.0611 66.7704ZM58.9335 66.7704C61.8189 66.7704 64.158 64.4314 64.158 61.5459C64.158 58.6605 61.8189 56.3214 58.9335 56.3214C56.0481 56.3214 53.709 58.6605 53.709 61.5459C53.7034 64.4286 56.0357 66.7699 58.9183 66.7755C58.9234 66.7755 58.9284 66.7704 58.9335 66.7704Z" fill="#0B0D13"/>
<path d="M90.6803 77.2245H53.319C52.1085 77.2105 51.1157 78.1805 51.1017 79.391C51.1006 79.4858 51.1057 79.5806 51.1168 79.6748C52.4696 89.5414 60.9322 96.8731 70.891 96.8062H73.1134C83.0772 96.8721 91.5417 89.5323 92.8875 79.6596C93.0302 78.4574 92.1713 77.3671 90.9691 77.2244C90.8749 77.2133 90.7801 77.2082 90.6853 77.2093L90.6803 77.2245Z" fill="#F9705A"/>
</g>
<path fill-rule="evenodd" clip-rule="evenodd" d="M72.25 0C74.4591 0 76.25 1.79086 76.25 4V16.4091C76.25 18.6182 74.4591 20.4091 72.25 20.4091C70.0409 20.4091 68.25 18.6182 68.25 16.4091V4C68.25 1.79086 70.0409 0 72.25 0Z" fill="#FFCE1A"/>
<path fill-rule="evenodd" clip-rule="evenodd" d="M72.25 124.091C74.4591 124.091 76.25 125.882 76.25 128.091V140.5C76.25 142.709 74.4591 144.5 72.25 144.5C70.0409 144.5 68.25 142.709 68.25 140.5V128.091C68.25 125.882 70.0409 124.091 72.25 124.091Z" fill="#FFCE1A"/>
<path fill-rule="evenodd" clip-rule="evenodd" d="M21.1501 21.1503C22.7122 19.5882 25.2448 19.5882 26.8069 21.1503L35.6174 29.9608C37.1795 31.5229 37.1795 34.0555 35.6174 35.6176C34.0553 37.1797 31.5226 37.1797 29.9605 35.6176L21.1501 26.8072C19.588 25.2451 19.588 22.7124 21.1501 21.1503Z" fill="#FFCE1A"/>
<path fill-rule="evenodd" clip-rule="evenodd" d="M108.883 108.883C110.445 107.32 112.977 107.32 114.539 108.883L123.35 117.693C124.912 119.255 124.912 121.788 123.35 123.35C121.788 124.912 119.255 124.912 117.693 123.35L108.883 114.539C107.32 112.977 107.32 110.445 108.883 108.883Z" fill="#FFCE1A"/>
<path fill-rule="evenodd" clip-rule="evenodd" d="M0 72.25C0 70.0409 1.79086 68.25 4 68.25H16.4091C18.6182 68.25 20.4091 70.0409 20.4091 72.25C20.4091 74.4591 18.6182 76.25 16.4091 76.25H4C1.79086 76.25 0 74.4591 0 72.25Z" fill="#FFCE1A"/>
<path fill-rule="evenodd" clip-rule="evenodd" d="M124.091 72.25C124.091 70.0409 125.882 68.25 128.091 68.25H140.5C142.709 68.25 144.5 70.0409 144.5 72.25C144.5 74.4591 142.709 76.25 140.5 76.25H128.091C125.882 76.25 124.091 74.4591 124.091 72.25Z" fill="#FFCE1A"/>
<path fill-rule="evenodd" clip-rule="evenodd" d="M35.6174 108.883C37.1795 110.445 37.1795 112.977 35.6174 114.539L26.8069 123.35C25.2448 124.912 22.7122 124.912 21.1501 123.35C19.588 121.788 19.588 119.255 21.1501 117.693L29.9605 108.883C31.5226 107.32 34.0553 107.32 35.6174 108.883Z" fill="#FFCE1A"/>
<path fill-rule="evenodd" clip-rule="evenodd" d="M123.35 21.1503C124.912 22.7124 124.912 25.2451 123.35 26.8072L114.539 35.6176C112.977 37.1797 110.445 37.1797 108.883 35.6176C107.32 34.0555 107.32 31.5229 108.883 29.9608L117.693 21.1503C119.255 19.5882 121.788 19.5882 123.35 21.1503Z" fill="#FFCE1A"/>
<path d="M423.276 504.882C443.844 504.882 460.518 488.198 460.518 467.618C460.518 447.037 443.844 430.354 423.276 430.354C402.709 430.354 386.035 447.037 386.035 467.618C386.035 488.198 402.709 504.882 423.276 504.882Z" fill="#FFCE1A"/>
<path d="M434.307 476.788C433.531 478.513 432.189 479.961 430.283 481.132C429.576 481.567 429.251 482.425 429.491 483.218L429.893 484.568C430.186 485.54 429.633 486.565 428.657 486.858L427.877 487.09C426.906 487.383 425.882 486.829 425.589 485.853L425.276 484.804C425.016 483.93 424.15 483.401 423.248 483.535C421.951 483.722 420.671 483.792 419.407 483.735C418.277 483.686 417.245 483.548 416.31 483.328C415.436 483.12 414.859 482.287 414.932 481.392L415.176 478.431C415.266 477.342 416.282 476.561 417.355 476.78C418.159 476.943 419.001 477.045 419.879 477.085C421.516 477.159 423.053 476.98 424.487 476.553C427.215 475.735 428.345 474.556 427.881 473.002C427.637 472.185 427.068 471.697 426.174 471.534C425.28 471.371 423.906 471.331 422.053 471.412C420.025 471.514 418.298 471.489 416.875 471.339C415.448 471.188 414.107 470.664 412.847 469.765C411.587 468.866 410.665 467.427 410.071 465.442C409.372 463.104 409.515 460.875 410.498 458.76C411.315 456.999 412.721 455.552 414.717 454.413C415.457 453.99 415.806 453.111 415.562 452.294L415.184 451.033C414.892 450.061 415.444 449.037 416.42 448.744L417.2 448.512C418.172 448.219 419.196 448.772 419.488 449.748L419.822 450.859C420.074 451.704 420.895 452.262 421.773 452.16C422.671 452.054 423.565 452.013 424.451 452.034C425.207 452.05 425.934 452.119 426.633 452.237C427.568 452.396 428.247 453.217 428.19 454.165L428.011 457.146C427.946 458.223 426.971 459.016 425.906 458.854C423.857 458.541 421.98 458.638 420.269 459.151C418.858 459.574 417.899 460.119 417.399 460.786C416.895 461.457 416.757 462.172 416.985 462.933C417.212 463.693 417.765 464.153 418.643 464.303C419.521 464.454 420.87 464.482 422.691 464.381C424.744 464.271 426.475 464.291 427.889 464.446C429.304 464.6 430.645 465.117 431.909 465.999C433.173 466.882 434.104 468.313 434.697 470.298C435.372 472.555 435.242 474.718 434.311 476.793L434.307 476.788Z" fill="#C79516"/>
<path d="M552.44 366.318C566.984 351.765 566.984 328.171 552.44 313.618C537.896 299.066 514.317 299.066 499.773 313.618C485.229 328.171 485.229 351.765 499.773 366.318C514.317 380.87 537.896 380.87 552.44 366.318Z" fill="#FFCE1A"/>
<path d="M537.135 349.14C536.359 350.864 535.017 352.312 533.111 353.483C532.404 353.918 532.079 354.776 532.319 355.569L532.721 356.919C533.014 357.891 532.461 358.916 531.486 359.209L530.705 359.441C529.734 359.734 528.71 359.18 528.417 358.204L528.104 357.155C527.844 356.281 526.978 355.752 526.076 355.886C524.779 356.073 523.499 356.143 522.235 356.086C521.105 356.037 520.073 355.899 519.138 355.679C518.264 355.472 517.687 354.638 517.76 353.743L518.004 350.783C518.094 349.693 519.11 348.912 520.183 349.131C520.987 349.294 521.829 349.396 522.707 349.436C524.345 349.51 525.881 349.331 527.316 348.904C530.043 348.086 531.173 346.907 530.709 345.353C530.465 344.536 529.896 344.048 529.002 343.885C528.108 343.723 526.734 343.682 524.881 343.763C522.853 343.865 521.126 343.84 519.703 343.69C518.277 343.54 516.935 343.015 515.675 342.116C514.416 341.217 513.493 339.778 512.9 337.793C512.2 335.455 512.343 333.226 513.326 331.111C514.143 329.35 515.549 327.903 517.545 326.764C518.285 326.341 518.634 325.463 518.39 324.645L518.012 323.384C517.72 322.412 518.273 321.388 519.248 321.095L520.028 320.863C521 320.57 522.024 321.123 522.317 322.099L522.65 323.21C522.902 324.055 523.723 324.613 524.601 324.511C525.499 324.405 526.393 324.365 527.279 324.385C528.035 324.401 528.762 324.47 529.462 324.588C530.396 324.747 531.075 325.568 531.018 326.516L530.839 329.497C530.774 330.575 529.799 331.368 528.734 331.205C526.686 330.892 524.808 330.989 523.097 331.502C521.687 331.925 520.727 332.47 520.227 333.137C519.723 333.808 519.585 334.523 519.813 335.284C520.04 336.044 520.593 336.504 521.471 336.654C522.349 336.805 523.698 336.833 525.519 336.732C527.572 336.622 529.303 336.642 530.717 336.797C532.132 336.951 533.473 337.468 534.737 338.35C536.001 339.233 536.932 340.664 537.525 342.649C538.2 344.906 538.07 347.07 537.139 349.144L537.135 349.14Z" fill="#C79516"/>
<path d="M202.31 488.773C216.854 474.22 216.854 450.626 202.31 436.073C187.767 421.521 164.187 421.521 149.643 436.073C135.099 450.626 135.099 474.22 149.643 488.773C164.187 503.325 187.767 503.325 202.31 488.773Z" fill="#FFCE1A"/>
<path d="M187.007 471.595C186.231 473.32 184.89 474.767 182.983 475.939C182.276 476.374 181.951 477.232 182.191 478.025L182.593 479.375C182.886 480.347 182.333 481.372 181.358 481.665L180.577 481.896C179.606 482.189 178.582 481.636 178.289 480.66L177.976 479.611C177.716 478.736 176.85 478.208 175.948 478.342C174.652 478.529 173.371 478.598 172.107 478.541C170.977 478.492 169.945 478.354 169.01 478.135C168.136 477.927 167.559 477.094 167.632 476.199L167.876 473.238C167.966 472.148 168.982 471.367 170.055 471.587C170.86 471.75 171.701 471.851 172.579 471.892C174.217 471.965 175.753 471.786 177.188 471.359C179.915 470.542 181.045 469.362 180.581 467.809C180.338 466.992 179.769 466.504 178.874 466.341C177.98 466.178 176.606 466.138 174.753 466.219C172.725 466.321 170.998 466.296 169.575 466.146C168.149 465.995 166.807 465.471 165.548 464.572C164.288 463.673 163.365 462.233 162.772 460.249C162.073 457.91 162.215 455.682 163.198 453.567C164.015 451.806 165.422 450.358 167.417 449.22C168.157 448.797 168.506 447.918 168.262 447.101L167.884 445.84C167.592 444.868 168.145 443.843 169.12 443.55L169.9 443.319C170.872 443.026 171.896 443.579 172.189 444.555L172.522 445.665C172.774 446.511 173.595 447.068 174.473 446.967C175.371 446.861 176.265 446.82 177.151 446.841C177.907 446.857 178.635 446.926 179.334 447.044C180.268 447.202 180.947 448.024 180.89 448.972L180.711 451.952C180.646 453.03 179.671 453.823 178.606 453.661C176.558 453.347 174.68 453.445 172.969 453.957C171.559 454.38 170.599 454.925 170.1 455.592C169.596 456.263 169.457 456.979 169.685 457.74C169.913 458.5 170.465 458.96 171.343 459.11C172.221 459.261 173.57 459.289 175.391 459.187C177.444 459.078 179.175 459.098 180.59 459.252C182.004 459.407 183.345 459.923 184.609 460.806C185.873 461.688 186.804 463.12 187.397 465.105C188.072 467.362 187.942 469.525 187.011 471.599L187.007 471.595Z" fill="#C79516"/>
<path d="M274.146 269.796C274.146 269.796 283.599 305.539 259.754 350.433C235.909 395.326 244.692 451.68 244.692 451.68L244.302 458.297C244.302 458.297 240.176 409.564 242.956 382.939C245.736 356.317 230.255 337.757 244.806 316.617C259.356 295.478 274.15 269.792 274.15 269.792L274.146 269.796Z" fill="#83ECAD"/>
<path d="M244.598 457.443C244.598 457.443 247.573 370.864 279.335 349.595C311.098 328.326 310.769 312.77 310.769 312.77C310.769 312.77 321.531 345.886 310.659 363.682C299.787 381.483 267.183 383.154 260.644 396.298C254.104 409.442 244.602 457.443 244.602 457.443H244.598Z" fill="#3CCD87"/>
<path d="M243.484 455.121C243.484 455.121 242.867 391.983 230.426 377.965C217.985 363.947 188.856 334.804 184.385 318.952L179.915 303.099C179.915 303.099 166.645 334.336 187.596 363.695C208.548 393.053 222.468 386.363 230.885 407.458C239.302 428.556 243.489 455.117 243.489 455.117L243.484 455.121Z" fill="#6BDB9E"/>
<path d="M245.35 453.652C245.35 453.652 251.405 423.741 264.208 414.725C277.011 405.709 285.066 391.556 285.066 391.556C285.066 391.556 291.004 409.275 283.05 420.955C275.096 432.635 257.473 429.536 254.051 434.896C250.629 440.256 245.354 453.652 245.354 453.652H245.35Z" fill="#83ECAD"/>
<path d="M245.151 455.32C245.151 455.32 236.254 420.736 219.635 412.586C203.012 404.432 184.613 388.706 184.613 388.706C184.613 388.706 188.966 423.046 209.873 429.422C230.784 435.799 237.096 437.052 245.151 455.32Z" fill="#2EAA6F"/>
<path d="M218.399 439.561H272.117V496.639C272.117 498.977 270.219 500.876 267.882 500.876H222.634C220.297 500.876 218.399 498.977 218.399 496.639V439.561Z" fill="#192CB1"/>
<path d="M433.243 150.313C433.243 150.313 439.583 174.283 423.59 204.39C407.597 234.496 413.491 272.285 413.491 272.285L413.226 276.722C413.226 276.722 410.459 244.041 412.324 226.188C414.19 208.334 403.809 195.886 413.564 181.713C423.322 167.536 433.243 150.313 433.243 150.313Z" fill="#83ECAD"/>
<path d="M413.425 276.148C413.425 276.148 415.42 218.091 436.721 203.824C458.022 189.562 457.799 179.127 457.799 179.127C457.799 179.127 465.013 201.335 457.726 213.267C450.438 225.199 428.568 226.326 424.183 235.139C419.798 243.951 413.425 276.144 413.425 276.144V276.148Z" fill="#3CCD87"/>
<path d="M412.681 274.591C412.681 274.591 412.267 232.251 403.923 222.849C395.579 213.446 376.046 193.905 373.046 183.275L370.047 172.644C370.047 172.644 361.146 193.592 375.196 213.28C389.247 232.967 398.582 228.481 404.224 242.63C409.869 256.778 412.677 274.591 412.677 274.591H412.681Z" fill="#6BDB9E"/>
<path d="M413.929 273.607C413.929 273.607 417.989 253.549 426.577 247.502C435.165 241.459 440.562 231.963 440.562 231.963C440.562 231.963 444.545 243.846 439.209 251.678C433.872 259.511 422.057 257.433 419.761 261.028C417.465 264.623 413.929 273.607 413.929 273.607Z" fill="#83ECAD"/>
<path d="M413.795 274.725C413.795 274.725 407.828 251.532 396.684 246.066C385.536 240.6 373.196 230.051 373.196 230.051C373.196 230.051 376.114 253.077 390.136 257.356C404.158 261.634 408.389 262.472 413.795 274.725Z" fill="#2EAA6F"/>
<path d="M395.859 264.155H431.885V302.432C431.885 304.002 430.613 305.275 429.044 305.275H398.7C397.131 305.275 395.859 304.002 395.859 302.432V264.155Z" fill="#6B7EFD"/>
<path d="M391.787 264.155H427.813V302.432C427.813 304.002 426.541 305.275 424.972 305.275H394.628C393.059 305.275 391.787 304.002 391.787 302.432V264.155Z" fill="#192CB1"/>
<path d="M456.482 306.548H278.25V319.578H456.482V306.548Z" fill="#6B7EFD"/>
<path d="M442.021 306.548H278.25V319.578H442.021V306.548Z" fill="#192CB1"/>
<path d="M321.076 221.69H364.024C366.243 221.69 368.043 223.491 368.043 225.712V306.141H317.057V225.712C317.057 223.491 318.857 221.69 321.076 221.69Z" fill="white"/>
<path d="M320.67 221.69H359.24C361.232 221.69 362.849 223.308 362.849 225.301V306.141H317.057V225.301C317.057 223.308 318.674 221.69 320.666 221.69H320.67Z" fill="#B0BBFF"/>
<path d="M358.695 221.202V224.935C358.695 225 358.695 225.069 358.683 225.134C358.581 226.334 357.586 227.274 356.354 227.274H327.067C325.839 227.274 324.831 226.334 324.734 225.134C324.722 225.069 324.722 225 324.722 224.935V221.202C324.722 221.002 324.746 220.807 324.799 220.62C325.059 219.608 325.973 218.863 327.067 218.863H356.354C357.447 218.863 358.366 219.612 358.618 220.62C358.671 220.807 358.695 221.002 358.695 221.202Z" fill="#192CB1"/>
<g opacity="0.34">
<path d="M358.695 221.202V221.238H324.726V221.202C324.726 221.002 324.75 220.807 324.803 220.62H358.622C358.675 220.807 358.699 221.002 358.699 221.202H358.695Z" fill="white"/>
</g>
<g opacity="0.34">
<path d="M358.691 222.662H324.722V223.28H358.691V222.662Z" fill="white"/>
</g>
<g opacity="0.34">
<path d="M358.695 224.52V224.939C358.695 225.004 358.695 225.073 358.683 225.138H324.734C324.722 225.073 324.722 225.004 324.722 224.939V224.52H358.691H358.695Z" fill="white"/>
</g>
<path d="M360.825 298.723H333.603C333.297 298.723 333.05 298.971 333.05 299.276V305.194C333.05 305.499 333.297 305.747 333.603 305.747H360.825C361.131 305.747 361.378 305.499 361.378 305.194V299.276C361.378 298.971 361.131 298.723 360.825 298.723Z" fill="#FFCE1A"/>
<path d="M342.093 286.026L319.257 300.854C319.001 301.02 318.928 301.363 319.094 301.619L322.313 306.583C322.479 306.839 322.821 306.912 323.077 306.746L345.913 291.918C346.17 291.752 346.242 291.409 346.076 291.153L342.857 286.189C342.691 285.933 342.349 285.86 342.093 286.026Z" fill="#FFCE1A"/>
<g opacity="0.39">
<path d="M343.467 296.206L324.58 305.747L325.499 305.084L340.232 295.519C341.126 294.937 342.276 295.047 343.048 295.718L343.471 296.206H343.467Z" fill="#192CB1"/>
</g>
<g opacity="0.66">
<path d="M353.749 252.398C357.235 252.398 360.061 247.367 360.061 241.162C360.061 234.956 357.235 229.925 353.749 229.925C350.263 229.925 347.438 234.956 347.438 241.162C347.438 247.367 350.263 252.398 353.749 252.398Z" fill="white"/>
</g>
<g opacity="0.66">
<path d="M353.936 267.779C355.714 267.779 357.155 265.213 357.155 262.049C357.155 258.884 355.714 256.319 353.936 256.319C352.158 256.319 350.717 258.884 350.717 262.049C350.717 265.213 352.158 267.779 353.936 267.779Z" fill="white"/>
</g>
<g opacity="0.66">
<path d="M356.033 275.872C356.033 278.064 355.033 279.841 353.802 279.841C352.57 279.841 351.57 278.064 351.57 275.872C351.57 273.68 352.57 271.903 353.802 271.903C355.033 271.903 356.033 273.68 356.033 275.872Z" fill="white"/>
</g>
<path d="M336.854 241.938H333.054V265.558H336.854V241.938Z" fill="#192CB1"/>
</g>
<defs>
<clipPath id="clip0_454_7090">
<rect width="605" height="505" fill="white"/>
</clipPath>
<clipPath id="clip1_454_7090">
<rect width="81" height="81" fill="white" transform="translate(31.5 31.5)"/>
</clipPath>
</defs>
</svg>
