<svg width="40" height="40" viewBox="0 0 40 40" fill="none" xmlns="http://www.w3.org/2000/svg">
<rect x="0.5" y="0.5" width="39" height="39" rx="11.5" fill="white"/>
<path d="M26.336 26.339H23.671V22.162C23.671 21.166 23.651 19.884 22.281 19.884C20.892 19.884 20.68 20.968 20.68 22.089V26.339H18.014V17.75H20.574V18.92H20.609C20.967 18.246 21.837 17.533 23.137 17.533C25.837 17.533 26.337 19.311 26.337 21.624L26.336 26.339ZM15.004 16.575C14.8006 16.5753 14.5991 16.5354 14.4111 16.4576C14.2231 16.3798 14.0523 16.2657 13.9085 16.1218C13.7646 15.9779 13.6507 15.8071 13.573 15.619C13.4954 15.431 13.4556 15.2294 13.456 15.026C13.4562 14.7198 13.5472 14.4206 13.7174 14.1661C13.8877 13.9117 14.1296 13.7134 14.4125 13.5965C14.6955 13.4795 15.0067 13.449 15.307 13.5089C15.6072 13.5689 15.883 13.7165 16.0993 13.9331C16.3157 14.1497 16.4629 14.4257 16.5225 14.726C16.582 15.0263 16.5511 15.3375 16.4338 15.6203C16.3164 15.9031 16.1179 16.1447 15.8632 16.3147C15.6085 16.4846 15.3092 16.5752 15.003 16.575H15.004ZM16.34 26.339H13.667V17.75H16.34V26.339ZM27.67 11H12.33C11.594 11 11 11.58 11 12.297V27.703C11 28.42 11.594 29 12.328 29H27.667C28.4 29 29 28.42 29 27.703V12.297C29 11.581 28.4 11 27.666 11H27.67Z" fill="#0A66C2"/>
<rect x="0.5" y="0.5" width="39" height="39" rx="11.5" stroke="#4E62EE"/>
</svg>
