<svg width="12" height="14" viewBox="0 0 12 14" fill="none" xmlns="http://www.w3.org/2000/svg">
<path d="M6.00016 6.83333C6.32239 6.83333 6.5975 6.71955 6.8255 6.492C7.05305 6.264 7.16683 5.98889 7.16683 5.66667C7.16683 5.34444 7.05305 5.06933 6.8255 4.84133C6.5975 4.61378 6.32239 4.5 6.00016 4.5C5.67794 4.5 5.40283 4.61378 5.17483 4.84133C4.94727 5.06933 4.8335 5.34444 4.8335 5.66667C4.8335 5.98889 4.94727 6.264 5.17483 6.492C5.40283 6.71955 5.67794 6.83333 6.00016 6.83333ZM6.00016 12.2C7.37794 10.9778 8.41683 9.80822 9.11683 8.69133C9.81683 7.57489 10.1668 6.61111 10.1668 5.8C10.1668 4.53333 9.76416 3.5 8.95883 2.7C8.15305 1.9 7.16683 1.5 6.00016 1.5C4.8335 1.5 3.84727 1.9 3.0415 2.7C2.23616 3.5 1.8335 4.53333 1.8335 5.8C1.8335 6.61111 2.1835 7.57489 2.8835 8.69133C3.5835 9.80822 4.62239 10.9778 6.00016 12.2ZM6.00016 13.3C5.92239 13.3 5.84461 13.2889 5.76683 13.2667C5.68905 13.2444 5.61683 13.2056 5.55016 13.15C3.97238 11.7167 2.79194 10.3889 2.00883 9.16667C1.22527 7.94444 0.833496 6.82222 0.833496 5.8C0.833496 4.18889 1.35305 2.90267 2.39216 1.94133C3.43083 0.980445 4.6335 0.5 6.00016 0.5C7.36683 0.5 8.56972 0.980445 9.60883 1.94133C10.6475 2.90267 11.1668 4.18889 11.1668 5.8C11.1668 6.82222 10.7753 7.94444 9.99216 9.16667C9.20861 10.3889 8.02794 11.7167 6.45016 13.15C6.3835 13.2056 6.31127 13.2444 6.2335 13.2667C6.15572 13.2889 6.07794 13.3 6.00016 13.3Z" fill="#4E62EE"/>
</svg>
