<svg width="20" height="20" viewBox="0 0 20 20" fill="none" xmlns="http://www.w3.org/2000/svg">
<mask id="mask0_557_77" style="mask-type:alpha" maskUnits="userSpaceOnUse" x="0" y="0" width="20" height="20">
<rect width="20" height="20" fill="#D9D9D9"/>
</mask>
<g mask="url(#mask0_557_77)">
<path d="M3.33325 14.6875C3.1527 14.6875 3.00353 14.6286 2.88575 14.5108C2.76742 14.3925 2.70825 14.2431 2.70825 14.0625C2.70825 13.8958 2.76742 13.75 2.88575 13.625C3.00353 13.5 3.1527 13.4375 3.33325 13.4375H16.6666C16.8471 13.4375 16.9966 13.5 17.1149 13.625C17.2327 13.75 17.2916 13.8958 17.2916 14.0625C17.2916 14.2431 17.2327 14.3925 17.1149 14.5108C16.9966 14.6286 16.8471 14.6875 16.6666 14.6875H3.33325ZM3.33325 10.625C3.1527 10.625 3.00353 10.5658 2.88575 10.4475C2.76742 10.3297 2.70825 10.1806 2.70825 10C2.70825 9.81944 2.76742 9.67 2.88575 9.55167C3.00353 9.43389 3.1527 9.375 3.33325 9.375H16.6666C16.8471 9.375 16.9966 9.43389 17.1149 9.55167C17.2327 9.67 17.2916 9.81944 17.2916 10C17.2916 10.1806 17.2327 10.3297 17.1149 10.4475C16.9966 10.5658 16.8471 10.625 16.6666 10.625H3.33325ZM3.33325 6.5625C3.1527 6.5625 3.00353 6.5 2.88575 6.375C2.76742 6.25 2.70825 6.10417 2.70825 5.9375C2.70825 5.75694 2.76742 5.60778 2.88575 5.49C3.00353 5.37167 3.1527 5.3125 3.33325 5.3125H16.6666C16.8471 5.3125 16.9966 5.37167 17.1149 5.49C17.2327 5.60778 17.2916 5.75694 17.2916 5.9375C17.2916 6.10417 17.2327 6.25 17.1149 6.375C16.9966 6.5 16.8471 6.5625 16.6666 6.5625H3.33325Z" fill="white"/>
</g>
</svg>
