<svg width="240" height="264" viewBox="0 0 240 264" fill="none" xmlns="http://www.w3.org/2000/svg">
<rect y="24" width="240" height="240" rx="120" fill="white"/>
<g clip-path="url(#clip0_140_6748)">
<path d="M88.5 88.6934C71.103 88.6934 57 102.796 57 120.193V193.501C57 197.081 58.4223 200.514 60.9541 203.046C63.4858 205.578 66.9195 207.001 70.5 207.001L157.909 207C161.489 207 164.923 205.578 167.454 203.046C169.986 200.514 171.409 197.081 171.409 193.5V185.255V138.746V130.5C171.409 126.92 169.986 123.486 167.454 120.954C164.923 118.423 161.489 117 157.909 117H155.985C155.811 117.017 155.635 117.025 155.456 117.025H87.1992C84.0926 117.025 81.5742 114.506 81.5742 111.4C81.5742 108.293 84.0926 105.775 87.1992 105.775H151.5V93.1934C151.5 90.708 149.485 88.6934 147 88.6934H88.5Z" fill="#B0BBFF"/>
<path d="M176.364 149.996H144.864C142.379 149.996 140.364 151.788 140.364 153.997V170.003C140.364 172.213 142.379 174.005 144.864 174.005H176.364C178.849 174.005 180.864 172.213 180.864 170.003V153.997C180.864 151.788 178.849 149.996 176.364 149.996Z" fill="#4E62EE"/>
<path fill-rule="evenodd" clip-rule="evenodd" d="M151.5 117.023V105.773H87.1992C84.0926 105.773 81.5742 108.292 81.5742 111.398C81.5742 114.505 84.0926 117.023 87.1992 117.023H151.5Z" fill="#4E62EE"/>
</g>
<path d="M115.754 110.001C125.254 52 68.2539 18 19.2541 62.5009C18.7541 69.8557 21.4541 80.1524 36.2541 62.5009C51.0541 44.8495 48.4207 25.4789 45.2539 18" stroke="#4E62EE" stroke-width="2" stroke-linecap="round" stroke-dasharray="4 4"/>
<path fill-rule="evenodd" clip-rule="evenodd" d="M50.3397 7.67704C50.8946 6.693 51.0795 5.49935 50.764 4.3219C50.1245 1.93535 47.6714 0.519055 45.2849 1.15853C42.8983 1.79801 41.482 4.25109 42.1215 6.63765C42.437 7.81525 43.1941 8.75662 44.1669 9.33134C43.612 10.3154 43.4271 11.509 43.7426 12.6865C44.3821 15.073 46.8352 16.4893 49.2217 15.8499C51.6083 15.2104 53.0246 12.7573 52.3851 10.3707C52.0695 9.19313 51.3124 8.25177 50.3397 7.67704Z" fill="#B0BBFF"/>
<path fill-rule="evenodd" clip-rule="evenodd" d="M37.376 11.1497C37.931 10.1657 38.1159 8.97201 37.8004 7.79456C37.1609 5.408 34.7078 3.99171 32.3212 4.63119C29.9347 5.27066 28.5184 7.72375 29.1579 10.1103C29.4734 11.2879 30.2305 12.2293 31.2033 12.804C30.6484 13.788 30.4635 14.9817 30.779 16.1591C31.4184 18.5457 33.8715 19.962 36.2581 19.3225C38.6446 18.683 40.0609 16.2299 39.4215 13.8434C39.1059 12.6658 38.3488 11.7244 37.376 11.1497Z" fill="#B0BBFF"/>
<ellipse cx="41.0031" cy="11.1047" rx="4.92105" ry="8.5" transform="rotate(-15 41.0031 11.1047)" fill="#6B7EFD"/>
<defs>
<clipPath id="clip0_140_6748">
<rect width="126" height="126" fill="white" transform="translate(57 81)"/>
</clipPath>
</defs>
</svg>
