<svg width="38" height="56" viewBox="0 0 38 56" fill="none" xmlns="http://www.w3.org/2000/svg">
<circle cx="18.5424" cy="19.0161" r="9.5" fill="#4E62EE"/>
<circle cx="18.5424" cy="19.0161" r="16.5" stroke="#4E62EE" stroke-width="4"/>
<path d="M16.891 55.0161C16.241 55.0161 15.5823 54.8984 14.915 54.6629C14.2462 54.4289 13.7132 54.1133 13.316 53.7161L4.92013 44.8869C4.5229 44.4897 4.31562 43.9842 4.29829 43.3703C4.27951 42.7564 4.43263 42.2147 4.75763 41.7453C5.0104 41.3842 5.35346 41.122 5.78679 40.9588C6.22013 40.797 6.70762 40.7883 7.24929 40.9328L14.291 42.5578V19.2661C14.291 18.3633 14.6073 17.5963 15.24 16.9651C15.8712 16.3324 16.6382 16.0161 17.541 16.0161C18.4437 16.0161 19.2115 16.3324 19.8441 16.9651C20.4753 17.5963 20.791 18.3633 20.791 19.2661V32.2661H22.741C23.0298 32.2661 23.3548 32.3022 23.716 32.3744C24.0771 32.4467 24.4021 32.555 24.691 32.6994L33.5743 37.1411C34.4049 37.5383 35.0368 38.1609 35.4701 39.0088C35.9035 39.8581 36.0479 40.7342 35.9035 41.6369L34.5493 51.2786C34.3687 52.3619 33.8812 53.2553 33.0868 53.9588C32.2923 54.6637 31.3535 55.0161 30.2701 55.0161H16.891Z" fill="#FFCE1A"/>
</svg>
