<svg width="20" height="20" viewBox="0 0 20 20" fill="none" xmlns="http://www.w3.org/2000/svg">
<mask id="mask0_726_1212" style="mask-type:alpha" maskUnits="userSpaceOnUse" x="0" y="0" width="20" height="20">
<rect width="20" height="20" fill="#D9D9D9"/>
</mask>
<g mask="url(#mask0_726_1212)">
<path d="M2.70898 5.85433C2.52843 5.85433 2.37926 5.79516 2.26148 5.67683C2.14315 5.55905 2.08398 5.40988 2.08398 5.22933V2.81266C2.08398 2.60433 2.15343 2.43072 2.29232 2.29183C2.43121 2.15294 2.60482 2.0835 2.81315 2.0835H5.22982C5.41037 2.0835 5.55954 2.14238 5.67732 2.26016C5.79565 2.3785 5.85482 2.52794 5.85482 2.7085C5.85482 2.88905 5.79565 3.03822 5.67732 3.156C5.55954 3.27433 5.41037 3.3335 5.22982 3.3335H3.33398V5.22933C3.33398 5.40988 3.2751 5.55905 3.15732 5.67683C3.03898 5.79516 2.88954 5.85433 2.70898 5.85433ZM2.81315 17.9168C2.60482 17.9168 2.43121 17.8474 2.29232 17.7085C2.15343 17.5696 2.08398 17.396 2.08398 17.1877V14.771C2.08398 14.5904 2.14315 14.4413 2.26148 14.3235C2.37926 14.2052 2.52843 14.146 2.70898 14.146C2.88954 14.146 3.03898 14.2052 3.15732 14.3235C3.2751 14.4413 3.33398 14.5904 3.33398 14.771V16.6668H5.22982C5.41037 16.6668 5.55954 16.7257 5.67732 16.8435C5.79565 16.9618 5.85482 17.1113 5.85482 17.2918C5.85482 17.4724 5.79565 17.6218 5.67732 17.7402C5.55954 17.8579 5.41037 17.9168 5.22982 17.9168H2.81315ZM14.7715 17.9168C14.5909 17.9168 14.4418 17.8579 14.324 17.7402C14.2057 17.6218 14.1465 17.4724 14.1465 17.2918C14.1465 17.1113 14.2057 16.9618 14.324 16.8435C14.4418 16.7257 14.5909 16.6668 14.7715 16.6668H16.6673V14.771C16.6673 14.5904 16.7262 14.4413 16.844 14.3235C16.9623 14.2052 17.1118 14.146 17.2923 14.146C17.4729 14.146 17.6223 14.2052 17.7407 14.3235C17.8584 14.4413 17.9173 14.5904 17.9173 14.771V17.1877C17.9173 17.396 17.8479 17.5696 17.709 17.7085C17.5701 17.8474 17.3965 17.9168 17.1882 17.9168H14.7715ZM17.2923 5.85433C17.1118 5.85433 16.9623 5.79516 16.844 5.67683C16.7262 5.55905 16.6673 5.40988 16.6673 5.22933V3.3335H14.7715C14.5909 3.3335 14.4418 3.27433 14.324 3.156C14.2057 3.03822 14.1465 2.88905 14.1465 2.7085C14.1465 2.52794 14.2057 2.3785 14.324 2.26016C14.4418 2.14238 14.5909 2.0835 14.7715 2.0835H17.1882C17.3965 2.0835 17.5701 2.15294 17.709 2.29183C17.8479 2.43072 17.9173 2.60433 17.9173 2.81266V5.22933C17.9173 5.40988 17.8584 5.55905 17.7407 5.67683C17.6223 5.79516 17.4729 5.85433 17.2923 5.85433ZM14.3548 14.3543H15.4798V15.4793H14.3548V14.3543ZM14.3548 12.0835H15.4798V13.2293H14.3548V12.0835ZM13.2298 13.2293H14.3548V14.3543H13.2298V13.2293ZM12.084 14.3543H13.2298V15.4793H12.084V14.3543ZM10.959 13.2293H12.084V14.3543H10.959V13.2293ZM13.2298 10.9585H14.3548V12.0835H13.2298V10.9585ZM12.084 12.0835H13.2298V13.2293H12.084V12.0835ZM10.959 10.9585H12.084V12.0835H10.959V10.9585ZM15.4798 4.521V9.04183H10.959V4.521H15.4798ZM9.04232 10.9585V15.4793H4.52148V10.9585H9.04232ZM9.04232 4.521V9.04183H4.52148V4.521H9.04232ZM8.04232 14.4793V11.9585H5.52148V14.4793H8.04232ZM8.04232 8.04183V5.521H5.52148V8.04183H8.04232ZM14.4798 8.04183V5.521H11.959V8.04183H14.4798Z" fill="#0B0D13"/>
</g>
</svg>
