<svg width="20" height="20" viewBox="0 0 20 20" fill="none" xmlns="http://www.w3.org/2000/svg">
<mask id="mask0_1053_7148" style="mask-type:alpha" maskUnits="userSpaceOnUse" x="0" y="0" width="20" height="20">
<rect width="20" height="20" fill="#D9D9D9"/>
</mask>
<g mask="url(#mask0_1053_7148)">
<path d="M5 10.625C4.81944 10.625 4.67028 10.5658 4.5525 10.4475C4.43417 10.3297 4.375 10.1806 4.375 10C4.375 9.81944 4.43417 9.67 4.5525 9.55167C4.67028 9.43389 4.81944 9.375 5 9.375H15C15.1806 9.375 15.33 9.43389 15.4483 9.55167C15.5661 9.67 15.625 9.81944 15.625 10C15.625 10.1806 15.5661 10.3297 15.4483 10.4475C15.33 10.5658 15.1806 10.625 15 10.625H5Z" fill="#0B0D13"/>
</g>
</svg>
