<svg width="20" height="20" viewBox="0 0 20 20" fill="none" xmlns="http://www.w3.org/2000/svg">
<mask id="mask0_972_5500" style="mask-type:alpha" maskUnits="userSpaceOnUse" x="0" y="0" width="20" height="20">
<rect width="20" height="20" fill="#D9D9D9"/>
</mask>
<g mask="url(#mask0_972_5500)">
<path d="M11.2292 14.2702L7.47916 10.5202C7.40972 10.4507 7.35749 10.3707 7.32249 10.2802C7.28805 10.1902 7.27083 10.0966 7.27083 9.99935C7.27083 9.90213 7.28805 9.80824 7.32249 9.71768C7.35749 9.62768 7.40972 9.54796 7.47916 9.47852L11.2292 5.72852C11.3542 5.60352 11.5 5.54102 11.6667 5.54102C11.8333 5.54102 11.9792 5.60352 12.1042 5.72852C12.2292 5.85352 12.2917 5.99935 12.2917 6.16602C12.2917 6.33268 12.2292 6.47852 12.1042 6.60352L8.70833 9.99935L12.1042 13.3952C12.2292 13.5202 12.2917 13.666 12.2917 13.8327C12.2917 13.9993 12.2292 14.1452 12.1042 14.2702C11.9792 14.3952 11.8333 14.4577 11.6667 14.4577C11.5 14.4577 11.3542 14.3952 11.2292 14.2702Z" fill="#4E62EE"/>
</g>
</svg>
