<svg width="12" height="18" viewBox="0 0 12 18" fill="none" xmlns="http://www.w3.org/2000/svg">
<path d="M2.08398 17.75C1.66732 17.75 1.31315 17.6042 1.02148 17.3125C0.729818 17.0208 0.583984 16.6667 0.583984 16.25V1.75C0.583984 1.33333 0.729818 0.979167 1.02148 0.6875C1.31315 0.395833 1.66732 0.25 2.08398 0.25H9.91732C10.334 0.25 10.6882 0.395833 10.9798 0.6875C11.2715 0.979167 11.4173 1.33333 11.4173 1.75V16.25C11.4173 16.6667 11.2715 17.0208 10.9798 17.3125C10.6882 17.6042 10.334 17.75 9.91732 17.75H2.08398ZM1.83398 15.4583V16.25C1.83398 16.3056 1.86176 16.3611 1.91732 16.4167C1.97287 16.4722 2.02843 16.5 2.08398 16.5H9.91732C9.97287 16.5 10.0284 16.4722 10.084 16.4167C10.1395 16.3611 10.1673 16.3056 10.1673 16.25V15.4583H1.83398ZM1.83398 14.2083H10.1673V3.79167H1.83398V14.2083ZM1.83398 2.54167H10.1673V1.75C10.1673 1.69444 10.1395 1.63889 10.084 1.58333C10.0284 1.52778 9.97287 1.5 9.91732 1.5H2.08398C2.02843 1.5 1.97287 1.52778 1.91732 1.58333C1.86176 1.63889 1.83398 1.69444 1.83398 1.75V2.54167ZM1.83398 15.4583V16.5V16.25V15.4583Z" fill="#4E62EE"/>
</svg>
