<svg width="17" height="17" viewBox="0 0 17 17" fill="none" xmlns="http://www.w3.org/2000/svg">
<mask id="mask0_1022_7203" style="mask-type:alpha" maskUnits="userSpaceOnUse" x="0" y="0" width="17" height="17">
<rect x="0.799805" y="0.5" width="16" height="16" fill="#D9D9D9"/>
</mask>
<g mask="url(#mask0_1022_7203)">
<path d="M8.79974 3.96758C8.6553 3.96758 8.53596 3.92024 8.44174 3.82558C8.34707 3.73136 8.29974 3.61202 8.29974 3.46758V2.01758C8.29974 1.87313 8.34707 1.75358 8.44174 1.65891C8.53596 1.56469 8.6553 1.51758 8.79974 1.51758C8.94418 1.51758 9.06374 1.56469 9.15841 1.65891C9.25263 1.75358 9.29974 1.87313 9.29974 2.01758V3.46758C9.29974 3.61202 9.25263 3.73136 9.15841 3.82558C9.06374 3.92024 8.94418 3.96758 8.79974 3.96758ZM11.9997 5.30091C11.9109 5.21202 11.8664 5.09824 11.8664 4.95958C11.8664 4.82047 11.9109 4.70091 11.9997 4.60091L13.0164 3.56758C13.1164 3.45647 13.236 3.40091 13.3751 3.40091C13.5137 3.40091 13.6331 3.45647 13.7331 3.56758C13.8331 3.65647 13.8831 3.77024 13.8831 3.90891C13.8831 4.04802 13.8331 4.16758 13.7331 4.26758L12.6997 5.30091C12.5997 5.40091 12.4831 5.45091 12.3497 5.45091C12.2164 5.45091 12.0997 5.40091 11.9997 5.30091ZM13.8331 9.00091C13.6886 9.00091 13.5693 8.95358 13.4751 8.85891C13.3804 8.76469 13.3331 8.64536 13.3331 8.50091C13.3331 8.35647 13.3804 8.23691 13.4751 8.14225C13.5693 8.04802 13.6886 8.00091 13.8331 8.00091H15.2831C15.4275 8.00091 15.5471 8.04802 15.6417 8.14225C15.736 8.23691 15.7831 8.35647 15.7831 8.50091C15.7831 8.64536 15.736 8.76469 15.6417 8.85891C15.5471 8.95358 15.4275 9.00091 15.2831 9.00091H13.8331ZM8.79974 15.4842C8.6553 15.4842 8.53596 15.4371 8.44174 15.3429C8.34707 15.2482 8.29974 15.1287 8.29974 14.9842V13.5342C8.29974 13.3898 8.34707 13.2705 8.44174 13.1762C8.53596 13.0816 8.6553 13.0342 8.79974 13.0342C8.94418 13.0342 9.06374 13.0816 9.15841 13.1762C9.25263 13.2705 9.29974 13.3898 9.29974 13.5342V14.9842C9.29974 15.1287 9.25263 15.2482 9.15841 15.3429C9.06374 15.4371 8.94418 15.4842 8.79974 15.4842ZM4.89974 5.30091L3.86641 4.28425C3.7553 4.18424 3.69974 4.06202 3.69974 3.91758C3.69974 3.77313 3.7553 3.65647 3.86641 3.56758C3.9553 3.46758 4.07196 3.41758 4.21641 3.41758C4.36085 3.41758 4.47752 3.46758 4.56641 3.56758L5.61641 4.60091C5.7053 4.70091 5.74974 4.82047 5.74974 4.95958C5.74974 5.09824 5.7053 5.21202 5.61641 5.30091C5.51641 5.3898 5.39974 5.43424 5.26641 5.43424C5.13307 5.43424 5.01085 5.3898 4.89974 5.30091ZM13.0331 13.4342L11.9997 12.4009C11.9109 12.3009 11.8664 12.1814 11.8664 12.0422C11.8664 11.9036 11.9109 11.7898 11.9997 11.7009C12.0886 11.612 12.2024 11.5676 12.3411 11.5676C12.4802 11.5676 12.5997 11.612 12.6997 11.7009L13.7331 12.7342C13.8331 12.8231 13.8831 12.9371 13.8831 13.0762C13.8831 13.2149 13.8331 13.3342 13.7331 13.4342C13.6331 13.5454 13.5137 13.6009 13.3751 13.6009C13.236 13.6009 13.122 13.5454 13.0331 13.4342ZM2.31641 9.00091C2.17196 9.00091 2.05263 8.95358 1.95841 8.85891C1.86374 8.76469 1.81641 8.64536 1.81641 8.50091C1.81641 8.35647 1.86374 8.23691 1.95841 8.14225C2.05263 8.04802 2.17196 8.00091 2.31641 8.00091H3.76641C3.91085 8.00091 4.03041 8.04802 4.12507 8.14225C4.2193 8.23691 4.26641 8.35647 4.26641 8.50091C4.26641 8.64536 4.2193 8.76469 4.12507 8.85891C4.03041 8.95358 3.91085 9.00091 3.76641 9.00091H2.31641ZM3.86641 13.4342C3.77752 13.3454 3.73041 13.2314 3.72507 13.0922C3.7193 12.9536 3.76641 12.8342 3.86641 12.7342L4.89974 11.7009C4.98863 11.612 5.09974 11.5676 5.23307 11.5676C5.36641 11.5676 5.48863 11.612 5.59974 11.7009C5.69974 11.812 5.74974 11.9342 5.74974 12.0676C5.74974 12.2009 5.69974 12.3176 5.59974 12.4176L4.58307 13.4342C4.47196 13.5454 4.34707 13.6009 4.20841 13.6009C4.0693 13.6009 3.9553 13.5454 3.86641 13.4342ZM8.79974 12.1676C7.77752 12.1676 6.91085 11.812 6.19974 11.1009C5.48863 10.3898 5.13307 9.52313 5.13307 8.50091C5.13307 7.47869 5.48863 6.61202 6.19974 5.90091C6.91085 5.1898 7.77752 4.83424 8.79974 4.83424C9.82196 4.83424 10.6886 5.1898 11.3997 5.90091C12.1109 6.61202 12.4664 7.47869 12.4664 8.50091C12.4664 9.52313 12.1109 10.3898 11.3997 11.1009C10.6886 11.812 9.82196 12.1676 8.79974 12.1676ZM8.79974 11.1676C9.53307 11.1676 10.1609 10.9065 10.6831 10.3842C11.2053 9.86202 11.4664 9.23425 11.4664 8.50091C11.4664 7.76758 11.2053 7.1398 10.6831 6.61758C10.1609 6.09536 9.53307 5.83424 8.79974 5.83424C8.06641 5.83424 7.43863 6.09536 6.91641 6.61758C6.39418 7.1398 6.13307 7.76758 6.13307 8.50091C6.13307 9.23425 6.39418 9.86202 6.91641 10.3842C7.43863 10.9065 8.06641 11.1676 8.79974 11.1676Z" fill="#0B0D13"/>
</g>
</svg>
