<svg width="20" height="20" viewBox="0 0 20 20" fill="none" xmlns="http://www.w3.org/2000/svg">
<mask id="mask0_1022_4437" style="mask-type:alpha" maskUnits="userSpaceOnUse" x="0" y="0" width="20" height="20">
<rect width="20" height="20" fill="#D9D9D9"/>
</mask>
<g mask="url(#mask0_1022_4437)">
<path d="M15.8336 15.5762V13.0522H4.16697V15.5762C4.16697 15.651 4.19101 15.7125 4.2391 15.7605C4.28718 15.8086 4.34862 15.8327 4.42341 15.8327H15.5772C15.652 15.8327 15.7134 15.8086 15.7615 15.7605C15.8096 15.7125 15.8336 15.651 15.8336 15.5762ZM15.8336 11.8022V8.19643H4.16697V11.8022H15.8336ZM15.8336 6.94647V4.42243C15.8336 4.34764 15.8096 4.2862 15.7615 4.23812C15.7134 4.19004 15.652 4.16599 15.5772 4.16599H4.42341C4.34862 4.16599 4.28718 4.19004 4.2391 4.23812C4.19101 4.2862 4.16697 4.34764 4.16697 4.42243V6.94647H15.8336ZM4.42341 17.0826C4.00246 17.0826 3.64616 16.9368 3.35449 16.6451C3.06283 16.3535 2.91699 15.9972 2.91699 15.5762V4.42243C2.91699 4.00149 3.06283 3.64518 3.35449 3.35352C3.64616 3.06185 4.00246 2.91602 4.42341 2.91602H15.5772C15.9981 2.91602 16.3545 3.06185 16.6461 3.35352C16.9378 3.64518 17.0836 4.00149 17.0836 4.42243V15.5762C17.0836 15.9972 16.9378 16.3535 16.6461 16.6451C16.3545 16.9368 15.9981 17.0826 15.5772 17.0826H4.42341Z" fill="#2B3FCC"/>
</g>
</svg>
