<svg width="52" height="52" viewBox="0 0 52 52" fill="none" xmlns="http://www.w3.org/2000/svg">
<mask id="mask0_30_6349" style="mask-type:alpha" maskUnits="userSpaceOnUse" x="0" y="0" width="52" height="52">
<rect width="52" height="52" fill="#D9D9D9"/>
</mask>
<g mask="url(#mask0_30_6349)">
<path d="M18.176 43.821C18.9587 44.607 19.9 45 21 45H37C37.7667 45 38.5 44.7657 39.2 44.297C39.9 43.8284 40.4 43.2593 40.7 42.5898L46.7 28.4297C46.8 28.1954 46.8747 27.9443 46.924 27.6765C46.9747 27.4087 47 27.1577 47 26.9233V22.9063C47 21.8351 46.6 20.8978 45.8 20.0944C45 19.291 44.0667 18.8893 43 18.8893H32.1L34.35 9.65009C34.5167 9.01406 34.458 8.39477 34.174 7.79222C33.8913 7.18966 33.4333 6.72101 32.8 6.38625C32.1667 6.0515 31.5087 5.93434 30.826 6.03476C30.142 6.13519 29.55 6.41973 29.05 6.88838L18.2 17.7344C17.8333 18.1026 17.542 18.5291 17.326 19.0138C17.1087 19.4999 17 20.0107 17 20.5463V40.983C17 42.0877 17.392 43.0337 18.176 43.821Z" fill="#FFCE1A"/>
<path d="M9 44.9999C7.9 44.9999 6.95867 44.6069 6.176 43.8209C5.392 43.0336 5 42.0875 5 40.9829V22.9062C5 21.8015 5.392 20.8555 6.176 20.0682C6.95867 19.2822 7.9 18.8892 9 18.8892C10.1 18.8892 11.0413 19.2822 11.824 20.0682C12.608 20.8555 13 21.8015 13 22.9062V40.9829C13 42.0875 12.608 43.0336 11.824 43.8209C11.0413 44.6069 10.1 44.9999 9 44.9999Z" fill="#4E62EE"/>
</g>
</svg>
