<svg width="32" height="32" viewBox="0 0 32 32" fill="none" xmlns="http://www.w3.org/2000/svg">
<mask id="mask0_959_14131" style="mask-type:alpha" maskUnits="userSpaceOnUse" x="0" y="0" width="32" height="32">
<rect width="32" height="32" fill="#D9D9D9"/>
</mask>
<g mask="url(#mask0_959_14131)">
<path d="M3.76723 22.9668C3.56723 22.7668 3.47257 22.5335 3.48323 22.2668C3.49479 22.0001 3.58945 21.7668 3.76723 21.5668L11.6339 13.6335C11.745 13.5224 11.8726 13.4388 12.0166 13.3828C12.1615 13.3277 12.3117 13.3001 12.4672 13.3001C12.6228 13.3001 12.773 13.3277 12.9179 13.3828C13.0619 13.4388 13.1895 13.5224 13.3006 13.6335L17.8006 18.1335L25.5672 10.4668H22.6006C22.3117 10.4668 22.073 10.3721 21.8846 10.1828C21.6952 9.99435 21.6006 9.75569 21.6006 9.4668C21.6006 9.17791 21.6952 8.9388 21.8846 8.74946C22.073 8.56102 22.3117 8.4668 22.6006 8.4668H27.7339C28.0672 8.4668 28.3508 8.58324 28.5846 8.81613C28.8175 9.04991 28.9339 9.33346 28.9339 9.6668V14.8001C28.9339 15.089 28.8397 15.3277 28.6512 15.5161C28.4619 15.7055 28.2228 15.8001 27.9339 15.8001C27.645 15.8001 27.4063 15.7055 27.2179 15.5161C27.0286 15.3277 26.9339 15.089 26.9339 14.8001V11.8668L18.6339 20.1668C18.5228 20.2779 18.3952 20.361 18.2512 20.4161C18.1063 20.4721 17.9561 20.5001 17.8006 20.5001C17.645 20.5001 17.4952 20.4721 17.3512 20.4161C17.2063 20.361 17.0783 20.2779 16.9672 20.1668L12.4672 15.6668L5.1339 23.0001C4.95612 23.1779 4.7339 23.2668 4.46723 23.2668C4.20057 23.2668 3.96723 23.1668 3.76723 22.9668Z" fill="#D6DBFF"/>
</g>
</svg>
