<svg width="20" height="20" viewBox="0 0 20 20" fill="none" xmlns="http://www.w3.org/2000/svg">
<path d="M16.5958 6.55695C16.6066 6.70711 16.6066 6.85729 16.6066 7.00744C16.6066 11.5873 13.1207 16.8643 6.74972 16.8643C4.78692 16.8643 2.96358 16.2958 1.42981 15.3091C1.70869 15.3412 1.9768 15.352 2.2664 15.352C3.88595 15.352 5.37683 14.805 6.56738 13.8718C5.04434 13.8397 3.76798 12.8422 3.32823 11.4693C3.54276 11.5015 3.75725 11.5229 3.98251 11.5229C4.29355 11.5229 4.60461 11.48 4.89419 11.4049C3.3068 11.0832 2.11622 9.68884 2.11622 8.00492V7.96203C2.5774 8.21945 3.11373 8.38033 3.68215 8.40176C2.74902 7.77966 2.13768 6.71784 2.13768 5.51656C2.13768 4.87303 2.30926 4.28313 2.60959 3.76829C4.31497 5.87051 6.87841 7.24337 9.75284 7.39355C9.69923 7.13613 9.66704 6.86802 9.66704 6.59987C9.66704 4.69069 11.2115 3.1355 13.1314 3.1355C14.1289 3.1355 15.0298 3.5538 15.6627 4.22951C16.4456 4.07936 17.1964 3.78975 17.8614 3.39291C17.604 4.19735 17.057 4.87307 16.3384 5.30206C17.0355 5.22702 17.7113 5.03392 18.3333 4.7658C17.8615 5.45221 17.2715 6.06355 16.5958 6.55695Z" fill="white"/>
</svg>
