<svg width="20" height="20" viewBox="0 0 20 20" fill="none" xmlns="http://www.w3.org/2000/svg">
<mask id="mask0_1022_8013" style="mask-type:alpha" maskUnits="userSpaceOnUse" x="0" y="0" width="20" height="20">
<rect width="20" height="20" fill="#D9D9D9"/>
</mask>
<g mask="url(#mask0_1022_8013)">
<path d="M9.375 11.6257V14.6882C9.375 14.8687 9.43417 15.0182 9.5525 15.1365C9.67028 15.2543 9.81944 15.3132 10 15.3132C10.1806 15.3132 10.33 15.2543 10.4483 15.1365C10.5661 15.0182 10.625 14.8687 10.625 14.6882V11.6257L11.7292 12.7298C11.7847 12.7854 11.8542 12.8307 11.9375 12.8657C12.0208 12.9001 12.1008 12.914 12.1775 12.9073C12.2536 12.9001 12.3297 12.8826 12.4058 12.8548C12.4825 12.827 12.5486 12.7784 12.6042 12.709C12.7292 12.584 12.7917 12.4382 12.7917 12.2715C12.7917 12.1048 12.7292 11.959 12.6042 11.834L10.5208 9.75065C10.4514 9.68121 10.3717 9.62898 10.2817 9.59398C10.1911 9.55954 10.0972 9.54232 10 9.54232C9.90278 9.54232 9.80917 9.55954 9.71917 9.59398C9.62861 9.62898 9.54861 9.68121 9.47917 9.75065L7.39583 11.834C7.27083 11.959 7.20833 12.1048 7.20833 12.2715C7.20833 12.4382 7.27778 12.584 7.41667 12.709C7.54167 12.834 7.68417 12.9001 7.84417 12.9073C8.00361 12.914 8.15278 12.8479 8.29167 12.709L9.375 11.6257ZM5.25 17.9173C4.83333 17.9173 4.47917 17.7715 4.1875 17.4798C3.89583 17.1882 3.75 16.834 3.75 16.4173V3.58398C3.75 3.16732 3.89583 2.81315 4.1875 2.52148C4.47917 2.22982 4.83333 2.08398 5.25 2.08398H11.25C11.4583 2.08398 11.6528 2.12204 11.8333 2.19815C12.0139 2.27482 12.1736 2.3826 12.3125 2.52148L15.8125 6.02148C15.9514 6.16037 16.0592 6.3201 16.1358 6.50065C16.2119 6.68121 16.25 6.87565 16.25 7.08398V16.4173C16.25 16.834 16.1042 17.1882 15.8125 17.4798C15.5208 17.7715 15.1667 17.9173 14.75 17.9173H5.25ZM11.25 6.33398V3.33398H5.25C5.19444 3.33398 5.13889 3.36176 5.08333 3.41732C5.02778 3.47287 5 3.52843 5 3.58398V16.4173C5 16.4729 5.02778 16.5284 5.08333 16.584C5.13889 16.6395 5.19444 16.6673 5.25 16.6673H14.75C14.8056 16.6673 14.8611 16.6395 14.9167 16.584C14.9722 16.5284 15 16.4729 15 16.4173V7.08398H12C11.7917 7.08398 11.6144 7.01093 11.4683 6.86482C11.3228 6.71926 11.25 6.54232 11.25 6.33398Z" fill="#0B0D13"/>
</g>
</svg>
