<svg width="20" height="20" viewBox="0 0 20 20" fill="none" xmlns="http://www.w3.org/2000/svg">
<g clip-path="url(#clip0_959_13684)">
<mask id="mask0_959_13684" style="mask-type:alpha" maskUnits="userSpaceOnUse" x="0" y="0" width="20" height="20">
<rect width="20" height="20" fill="#D9D9D9"/>
</mask>
<g mask="url(#mask0_959_13684)">
<path d="M1 18L10 3L19 18H1ZM3.646 16.5H16.354L10 5.917L3.646 16.5ZM10 15.5C10.208 15.5 10.385 15.427 10.531 15.281C10.677 15.135 10.75 14.958 10.75 14.75C10.75 14.542 10.677 14.365 10.531 14.219C10.385 14.073 10.208 14 10 14C9.792 14 9.615 14.073 9.469 14.219C9.323 14.365 9.25 14.542 9.25 14.75C9.25 14.958 9.323 15.135 9.469 15.281C9.615 15.427 9.792 15.5 10 15.5ZM9.25 13H10.75V9H9.25V13Z" fill="white"/>
</g>
</g>
<defs>
<clipPath id="clip0_959_13684">
<rect width="20" height="20" fill="white"/>
</clipPath>
</defs>
</svg>
