<svg width="24" height="24" viewBox="0 0 24 24" fill="none" xmlns="http://www.w3.org/2000/svg">
<mask id="mask0_514_3257" style="mask-type:alpha" maskUnits="userSpaceOnUse" x="0" y="0" width="24" height="24">
<rect width="24" height="24" fill="#D9D9D9"/>
</mask>
<g mask="url(#mask0_514_3257)">
<path d="M11.9999 14.65C11.8832 14.65 11.7709 14.6334 11.6629 14.6C11.5542 14.5667 11.4582 14.5 11.3749 14.4L6.8499 9.90002C6.71657 9.75002 6.6499 9.57502 6.6499 9.37502C6.6499 9.17502 6.7249 9.00002 6.8749 8.85002C7.0249 8.71669 7.1999 8.65002 7.3999 8.65002C7.5999 8.65002 7.7749 8.71669 7.9249 8.85002L11.9999 12.925L16.0999 8.85002C16.2332 8.70002 16.3999 8.62902 16.5999 8.63702C16.7999 8.64569 16.9749 8.71669 17.1249 8.85002C17.2749 9.00002 17.3499 9.17902 17.3499 9.38702C17.3499 9.59569 17.2749 9.76669 17.1249 9.90002L12.6249 14.4C12.5416 14.5 12.4459 14.5667 12.3379 14.6C12.2292 14.6334 12.1166 14.65 11.9999 14.65Z" fill="white"/>
</g>
</svg>
