<svg width="24" height="24" viewBox="0 0 24 24" fill="none" xmlns="http://www.w3.org/2000/svg">
<g clip-path="url(#clip0_1023_9002)">
<mask id="mask0_1023_9002" style="mask-type:alpha" maskUnits="userSpaceOnUse" x="0" y="0" width="24" height="24">
<rect width="24" height="24" fill="#D9D9D9"/>
</mask>
<g mask="url(#mask0_1023_9002)">
<path d="M1.2002 21.5996L12.0002 3.59961L22.8002 21.5996H1.2002ZM4.3754 19.7996H19.625L12.0002 7.10001L4.3754 19.7996ZM12.0002 18.5996C12.2498 18.5996 12.4622 18.512 12.6374 18.3368C12.8126 18.1616 12.9002 17.9492 12.9002 17.6996C12.9002 17.45 12.8126 17.2376 12.6374 17.0624C12.4622 16.8872 12.2498 16.7996 12.0002 16.7996C11.7506 16.7996 11.5382 16.8872 11.363 17.0624C11.1878 17.2376 11.1002 17.45 11.1002 17.6996C11.1002 17.9492 11.1878 18.1616 11.363 18.3368C11.5382 18.512 11.7506 18.5996 12.0002 18.5996ZM11.1002 15.5996H12.9002V10.7996H11.1002V15.5996Z" fill="#E9B123"/>
</g>
</g>
<defs>
<clipPath id="clip0_1023_9002">
<rect width="24" height="24" fill="white"/>
</clipPath>
</defs>
</svg>
