<svg width="176" height="58" viewBox="0 0 176 58" fill="none" xmlns="http://www.w3.org/2000/svg">
<g clip-path="url(#clip0_1137_29955)">
<g clip-path="url(#clip1_1137_29955)">
<path fill-rule="evenodd" clip-rule="evenodd" d="M90.7651 40.335C89.6299 40.335 88.5893 40.097 87.6434 39.621C87.1095 39.3464 86.6458 39.02 86.2521 38.6419C86.0033 38.4031 85.4991 38.5651 85.4991 38.9073V39.4181C85.4991 39.6501 85.308 39.8383 85.0722 39.8383H83.0249C82.7892 39.8383 82.5981 39.6501 82.5981 39.4181V18.0306C82.5981 17.7985 82.7892 17.6104 83.0249 17.6104H85.0627C85.2983 17.6104 85.4895 17.7985 85.4895 18.0306V25.5582C85.4895 25.9004 85.9949 26.0634 86.2444 25.8252C86.6413 25.4465 87.1088 25.1196 87.6434 24.8445C88.5893 24.3685 89.6299 24.1305 90.7651 24.1305C92.8043 24.1305 94.528 24.9169 95.9365 26.4898C97.387 28.0833 98.1122 29.9977 98.1122 32.2327C98.1122 34.4885 97.387 36.4028 95.9365 37.9757C94.528 39.5486 92.8043 40.335 90.7651 40.335ZM90.2921 37.7274C91.6796 37.7274 92.8462 37.2101 93.7923 36.1753C94.7383 35.1612 95.2113 33.847 95.2113 32.2327C95.2113 30.6393 94.7383 29.3251 93.7923 28.2903C92.8462 27.2555 91.6796 26.7381 90.2921 26.7381C88.8836 26.7381 87.7064 27.2555 86.7604 28.2903C85.8354 29.3251 85.373 30.6393 85.373 32.2327C85.373 33.847 85.8354 35.1715 86.7604 36.2063C87.7064 37.2203 88.8836 37.7274 90.2921 37.7274ZM72.6294 40.335C70.3591 40.335 68.4882 39.5693 67.0166 38.0379C65.5452 36.5064 64.8093 34.5714 64.8093 32.2327C64.8093 29.9149 65.524 27.9902 66.9535 26.4587C68.3831 24.9066 70.2119 24.1305 72.4403 24.1305C74.7317 24.1305 76.5501 24.8652 77.8956 26.3346C79.3453 27.8717 80.0386 30.1837 79.9478 32.2865C79.9361 32.5561 79.7049 32.7605 79.4307 32.7605H68.2946C68.0091 32.7605 67.7777 32.993 67.8073 33.2725C67.9401 34.5279 68.4333 35.5576 69.287 36.3615C70.254 37.2721 71.4102 37.7274 72.7556 37.7274C74.4721 37.7274 75.8447 36.9435 76.8735 35.3755C77.0109 35.1659 77.2846 35.0808 77.5125 35.1902L79.2458 36.0226C79.4901 36.1399 79.5881 36.4342 79.4465 36.6627C78.7765 37.7444 77.8915 38.6063 76.7918 39.2485C75.5726 39.9729 74.1851 40.335 72.6294 40.335ZM68.162 29.8017C68.0594 30.1045 68.3018 30.4013 68.626 30.4013H76.3067C76.6023 30.4013 76.8385 30.152 76.7785 29.8671C76.6064 29.0489 76.1904 28.3577 75.5305 27.7936C74.7527 27.0899 73.7016 26.7381 72.3773 26.7381C71.284 26.7381 70.3381 27.0692 69.5393 27.7315C68.9061 28.2707 68.4469 28.9608 68.162 29.8017ZM63.92 25.2107C64.0144 24.9224 63.796 24.6272 63.4884 24.6272H61.4862C61.2851 24.6272 61.108 24.7576 61.0511 24.9475L58.0981 34.816C57.9796 35.2117 57.4132 35.22 57.2829 34.8278L53.9967 24.9349C53.9357 24.7513 53.7617 24.6272 53.5656 24.6272H51.2268C51.0311 24.6272 50.8574 24.7508 50.7961 24.9339L47.4801 34.8344C47.349 35.2258 46.7835 35.2168 46.6653 34.8216L43.7106 24.9475C43.6537 24.7576 43.4766 24.6272 43.2755 24.6272H41.2102C40.9026 24.6272 40.6842 24.9224 40.7786 25.2107L45.4684 39.5288C45.5288 39.7133 45.7032 39.8383 45.9 39.8383H48.1718C48.3687 39.8383 48.5432 39.7132 48.6036 39.5286L51.9131 29.404C52.0399 29.0159 52.5976 29.0152 52.7255 29.403L56.063 39.5296C56.1237 39.7138 56.2978 39.8383 56.4945 39.8383H58.7986C58.9955 39.8383 59.1698 39.7133 59.2302 39.5288L63.92 25.2107ZM153.802 38.9381C154.643 39.7039 155.693 40.0867 156.955 40.0867C157.79 40.0867 158.538 39.9946 159.2 39.8105C159.426 39.7477 159.54 39.5073 159.462 39.2895L158.843 37.5661C158.76 37.335 158.495 37.2235 158.257 37.2974C158.192 37.3174 158.126 37.3366 158.059 37.3549C157.848 37.3963 157.627 37.4169 157.396 37.4169C156.892 37.4169 156.44 37.2411 156.04 36.8892C155.641 36.5167 155.442 35.8234 155.442 34.8094V27.655C155.442 27.423 155.633 27.2348 155.868 27.2348H158.799C159.034 27.2348 159.225 27.0467 159.225 26.8146V25.0474C159.225 24.8153 159.034 24.6272 158.799 24.6272H155.868C155.633 24.6272 155.442 24.4391 155.442 24.207V18.0306C155.442 17.7985 155.251 17.6104 155.014 17.6104H152.967C152.731 17.6104 152.54 17.7985 152.54 18.0306V24.207C152.54 24.4391 152.349 24.6272 152.113 24.6272H150.255C150.02 24.6272 149.829 24.8153 149.829 25.0474V26.8146C149.829 27.0467 150.02 27.2348 150.255 27.2348H152.113C152.349 27.2348 152.54 27.423 152.54 27.655V35.7406C152.561 37.1065 152.982 38.1724 153.802 38.9381ZM112.371 38.4724C113.779 37.2308 114.483 35.6786 114.483 33.816C114.483 32.6777 114.157 31.6533 113.506 30.7427C113.206 30.3098 112.775 29.7593 111.511 29.0619C111.244 28.9146 111.238 28.522 111.49 28.3516C113.002 27.3314 113.758 25.7869 113.758 23.9753C113.758 22.2576 113.117 20.8606 111.835 19.7845C110.531 18.6669 108.923 18.1081 107.01 18.1081C105.475 18.1081 104.141 18.5117 103.005 19.3188C101.994 20.038 101.241 20.9544 100.747 22.068C100.645 22.2987 100.762 22.5623 100.998 22.6605L102.79 23.4079C103.044 23.5137 103.334 23.3865 103.448 23.1394C104.154 21.6064 105.342 20.8399 107.01 20.8399C108.145 20.8399 109.06 21.1297 109.753 21.7091C110.447 22.2886 110.794 23.044 110.794 23.9753C110.794 24.9894 110.426 25.8172 109.69 26.4587C108.955 27.0796 108.009 27.3901 106.852 27.3901H105.693C105.428 27.3901 105.213 27.6016 105.213 27.8628V29.587C105.213 29.8481 105.428 30.0597 105.693 30.0597H107.073C108.292 30.0597 109.333 30.422 110.195 31.1462C111.078 31.8706 111.519 32.7605 111.519 33.816C111.519 34.8714 111.099 35.7717 110.258 36.5167C109.396 37.2411 108.377 37.6032 107.199 37.6032C106.127 37.6032 105.202 37.2928 104.424 36.672C103.78 36.1259 103.288 35.3848 102.949 34.4489C102.852 34.1817 102.55 34.0363 102.284 34.1454L100.53 34.8649C100.305 34.9571 100.185 35.2011 100.264 35.428C100.754 36.8387 101.605 37.9985 102.816 38.9071C104.12 39.859 105.581 40.335 107.199 40.335C109.259 40.335 110.983 39.7142 112.371 38.4724ZM119.631 35.1819C119.631 34.354 120.02 33.6607 120.798 33.1019C121.597 32.5433 122.585 32.2638 123.762 32.2638C125.272 32.2638 126.471 32.5701 127.359 33.1826C127.48 33.2656 127.548 33.4037 127.54 33.5481C127.482 34.6529 127 35.6217 126.095 36.4547C125.149 37.3445 124.067 37.7894 122.847 37.7894C121.986 37.7894 121.229 37.5412 120.577 37.0445C119.946 36.5478 119.631 35.9269 119.631 35.1819ZM128.46 25.8379C127.22 24.6996 125.528 24.1305 123.384 24.1305C120.798 24.1305 118.806 25.0059 117.406 26.7566C117.256 26.9451 117.313 27.2176 117.519 27.3454L119.348 28.4795C119.542 28.5993 119.795 28.5467 119.938 28.371C120.857 27.241 122.058 26.676 123.541 26.676C124.613 26.676 125.549 27.0279 126.348 27.7315C127.152 28.4187 127.436 29.2449 127.518 30.1779C127.546 30.4986 127.19 30.706 126.888 30.582C125.89 30.1717 124.69 29.9666 123.289 29.9666C121.271 29.9666 119.652 30.4323 118.433 31.3636C117.235 32.2948 116.636 33.5469 116.636 35.1198C116.636 36.6098 117.203 37.8516 118.338 38.8449C119.494 39.8383 120.924 40.335 122.627 40.335C124.624 40.335 126.222 39.4658 127.42 37.7274V39.4181C127.42 39.6501 127.611 39.8383 127.847 39.8383H129.894C130.13 39.8383 130.321 39.6501 130.321 39.4181V30.4633C130.321 28.4973 129.701 26.9554 128.46 25.8379ZM147.152 39.3918C147.152 39.6385 146.949 39.8383 146.699 39.8383H144.704C144.454 39.8383 144.251 39.6385 144.251 39.3918V38.8931C144.251 38.5715 143.756 38.4172 143.524 38.6428C143.158 38.9972 142.718 39.3129 142.201 39.59C141.298 40.0867 140.352 40.335 139.363 40.335C137.471 40.335 136.01 39.8073 134.98 38.7518C133.971 37.6756 133.467 36.1546 133.467 34.1884V25.0737C133.467 24.8271 133.67 24.6272 133.92 24.6272H135.914C136.165 24.6272 136.368 24.8271 136.368 25.0737V34.0023C136.431 36.4857 137.703 37.7274 140.183 37.7274C141.339 37.7274 142.306 37.2721 143.084 36.3615C143.862 35.4302 144.251 34.323 144.251 33.0399V25.0737C144.251 24.8271 144.454 24.6272 144.704 24.6272H146.699C146.949 24.6272 147.152 24.8271 147.152 25.0737V39.3918ZM162.138 18.0306C162.138 17.7985 162.329 17.6104 162.566 17.6104H164.613C164.849 17.6104 165.04 17.7985 165.04 18.0306V25.5724C165.04 25.8941 165.532 26.047 165.763 25.8199C166.124 25.4667 166.555 25.1519 167.058 24.8755C167.983 24.3789 168.939 24.1305 169.927 24.1305C171.82 24.1305 173.27 24.6686 174.278 25.7448C175.309 26.8002 175.824 28.311 175.824 30.277V39.4181C175.824 39.6501 175.633 39.8383 175.398 39.8383H173.35C173.114 39.8383 172.923 39.6501 172.923 39.4181V30.8358C172.923 28.104 171.693 26.7381 169.233 26.7381C168.056 26.7381 167.058 27.2245 166.238 28.1971C165.439 29.1491 165.04 30.2667 165.04 31.5498V39.4181C165.04 39.6501 164.849 39.8383 164.613 39.8383H162.566C162.329 39.8383 162.138 39.6501 162.138 39.4181V18.0306Z" fill="#0A0B33"/>
<path d="M29.3762 37.4272C29.5451 38.0579 30.4393 38.0579 30.6082 37.4272L35.4693 19.2676C35.6931 18.4314 35.0637 17.6104 34.1988 17.6104H31.2017C30.6064 17.6104 30.0854 18.0106 29.9312 18.5861L27.19 28.8266C27.1521 28.9686 27.1521 29.1182 27.19 29.2602L29.3762 37.4272Z" fill="#0364FF"/>
<path d="M12.3875 28.8134C12.4255 28.9554 12.4255 29.105 12.3875 29.247L10.2013 37.4138C10.0324 38.0446 9.13821 38.0446 8.96936 37.4138L4.11178 19.2676C3.88795 18.4314 4.51739 17.6104 5.38219 17.6104H8.37935C8.97462 17.6104 9.49567 18.0106 9.64975 18.5861L12.3875 28.8134Z" fill="#0364FF"/>
<path d="M16.4853 41.4189C16.3365 41.9764 15.8333 42.3641 15.2584 42.3641H12.1913C11.3561 42.3641 10.7482 41.5686 10.9644 40.7587L16.8665 18.6441C17.0293 18.0343 17.5797 17.6104 18.2084 17.6104H21.7758C22.4045 17.6104 22.955 18.0343 23.1177 18.6441L29.0199 40.7587C29.236 41.5686 28.6281 42.3641 27.793 42.3641H24.7258C24.151 42.3641 23.6477 41.9764 23.4989 41.4189L20.5864 30.5059C20.4234 29.8955 19.5607 29.8955 19.3978 30.5059L16.4853 41.4189Z" fill="#0364FF"/>
<path d="M18.915 39.1181C18.6955 39.1181 18.5357 38.9198 18.5926 38.718L19.6697 34.8899C19.758 34.5757 20.2261 34.5757 20.3146 34.8899L21.3917 38.718C21.4486 38.9198 21.2888 39.1181 21.0693 39.1181H18.915Z" fill="#0364FF"/>
</g>
</g>
<defs>
<clipPath id="clip0_1137_29955">
<rect width="175.824" height="58" fill="white"/>
</clipPath>
<clipPath id="clip1_1137_29955">
<rect width="172.161" height="31.1355" fill="white" transform="translate(3.66299 13.5527)"/>
</clipPath>
</defs>
</svg>
